<svg width="330" height="219" viewBox="0 0 330 219" fill="none" xmlns="http://www.w3.org/2000/svg">
<g clip-path="url(#clip0_582_1406)">
<path d="M118.371 125.656C129.68 105.85 151.253 90.6418 174.089 92.1068C157.244 110.344 147.422 133.925 146.359 158.677C145.984 168.225 146.566 178.883 140.198 186.032C136.236 190.481 130.181 192.635 124.226 193.087C118.272 193.539 112.319 192.468 106.444 191.401L105.018 191.837C104.476 169.061 107.062 145.462 118.371 125.656Z" fill="#4BA8FD" fill-opacity="0.5"/>
<path d="M174.123 92.5837C157.236 100.677 142.837 114.194 133.997 130.679C132.086 134.243 130.459 138.024 129.749 142.022C129.039 146.022 129.535 149.829 130.907 153.628C132.162 157.1 133.849 160.508 134.234 164.224C134.639 168.141 133.191 171.803 130.586 174.709C127.398 178.266 123.116 180.469 118.854 182.479C114.122 184.711 109.171 186.955 105.819 191.12C105.413 191.625 104.65 190.968 105.056 190.464C110.887 183.217 120.869 181.855 127.791 176.017C131.021 173.293 133.446 169.583 133.293 165.236C133.159 161.435 131.423 157.919 130.122 154.414C128.756 150.733 128.075 147.033 128.565 143.109C129.066 139.094 130.548 135.242 132.359 131.645C136.444 123.533 142.034 116.085 148.437 109.647C155.797 102.247 164.373 96.1544 173.796 91.6335C174.38 91.3539 174.702 92.3059 174.123 92.5837Z" fill="white"/>
<path d="M136.586 125.17C133.998 123.285 132.166 120.546 131.419 117.441C130.671 114.336 131.057 111.068 132.506 108.22C132.802 107.644 133.714 108.074 133.418 108.65C132.063 111.3 131.704 114.344 132.406 117.234C133.108 120.124 134.824 122.669 137.245 124.41C137.771 124.789 137.109 125.547 136.586 125.17Z" fill="white"/>
<path d="M130.038 151.95C136.525 151.006 142.417 147.663 146.538 142.587C146.946 142.084 147.709 142.741 147.302 143.243C143.003 148.518 136.865 151.984 130.112 152.952C129.469 153.043 129.398 152.041 130.038 151.95V151.95Z" fill="white"/>
<path d="M156.295 103.482C157.144 104.419 158.213 105.132 159.407 105.556C160.601 105.979 161.882 106.101 163.135 105.91C163.777 105.81 163.847 106.813 163.209 106.912C161.824 107.116 160.409 106.98 159.089 106.515C157.769 106.049 156.583 105.269 155.636 104.242C155.538 104.153 155.479 104.03 155.469 103.899C155.459 103.767 155.5 103.637 155.584 103.534C155.671 103.434 155.795 103.372 155.929 103.363C156.062 103.353 156.193 103.396 156.295 103.482Z" fill="white"/>
<path d="M170.394 20.261C165.386 20.261 160.583 22.2416 157.042 25.7672C153.501 29.2928 151.511 34.0745 151.511 39.0605C151.511 44.0464 153.501 48.8281 157.042 52.3537C160.583 55.8793 165.386 57.8599 170.394 57.8599H311.117C316.125 57.8599 320.928 55.8793 324.469 52.3537C328.011 48.8281 330 44.0464 330 39.0605C330 34.0745 328.011 29.2928 324.469 25.7672C320.928 22.2416 316.125 20.261 311.117 20.261H170.394Z" fill="#E5E5E5"/>
<path d="M170.394 24.0656C166.4 24.0656 162.569 25.6454 159.744 28.4575C156.919 31.2696 155.333 35.0836 155.333 39.0604C155.333 43.0373 156.919 46.8513 159.744 49.6634C162.569 52.4754 166.4 54.0553 170.394 54.0553H311.117C315.112 54.0553 318.942 52.4754 321.767 49.6634C324.592 46.8513 326.178 43.0373 326.178 39.0604C326.178 35.0836 324.592 31.2696 321.767 28.4575C318.942 25.6454 315.112 24.0656 311.117 24.0656H170.394Z" fill="white"/>
<path d="M82.6784 109.575C99.7043 109.575 113.506 95.8334 113.506 78.8828C113.506 61.9323 99.7043 48.1911 82.6784 48.1911C65.6525 48.1911 51.8503 61.9323 51.8503 78.8828C51.8503 95.8334 65.6525 109.575 82.6784 109.575Z" fill="#9E616A"/>
<path d="M74.792 108.072C74.6603 107.783 74.5289 107.493 74.3979 107.203C74.4484 107.204 74.4984 107.212 74.5489 107.213L74.792 108.072Z" fill="#2F2E41"/>
<path d="M50.993 49.5868C52.5522 48.3485 54.3745 47.2091 56.3681 47.2731C58.3615 47.3371 60.383 49.1296 59.97 51.0723C63.6316 44.6177 69.4598 39.6535 76.4315 37.0508C83.4033 34.4482 91.073 34.3734 98.0946 36.8398C103.049 38.5801 107.908 42.0617 109.046 47.1682C109.338 48.479 109.401 49.9163 110.223 50.9808C111.26 52.3229 113.243 52.6265 114.876 52.1544C114.892 52.1496 114.909 52.1448 114.925 52.14C115.201 52.0462 115.498 52.037 115.78 52.1135C116.061 52.1901 116.312 52.3489 116.502 52.5693C116.692 52.7898 116.81 53.0619 116.843 53.3503C116.876 53.6387 116.82 53.9302 116.685 54.1871L115.283 56.7901C117.05 57.1822 118.886 57.1433 120.635 56.6767C120.926 56.6009 121.233 56.6164 121.514 56.7211C121.795 56.8258 122.037 57.0146 122.206 57.2616C122.376 57.5085 122.464 57.8016 122.459 58.1006C122.455 58.3996 122.357 58.6898 122.181 58.9315C117.558 65.25 109.835 69.3301 101.954 69.2822C96.3528 69.2482 90.6938 67.3262 85.2425 68.6086C83.1336 69.1047 81.163 70.0646 79.4753 71.4178C77.7876 72.771 76.4256 74.4833 75.4893 76.4289C74.553 78.3745 74.066 80.5041 74.0643 82.6615C74.0625 84.8189 74.5458 86.9494 75.4789 88.8965C73.8042 87.0729 70.5669 87.5046 68.8538 89.2927C67.1409 91.0807 66.6974 93.7495 66.87 96.2145C67.1339 99.9846 68.6176 103.537 70.1818 106.995C57.0679 106.584 44.6643 97.4251 40.4892 85.038C36.2966 72.5989 40.6906 57.769 50.993 49.5868Z" fill="#2F2E41"/>
<path d="M58.3678 33.8241C56.71 34.5133 54.9801 33.758 54.2546 32.0283C53.518 30.2721 54.206 28.4893 55.8904 27.7891C57.575 27.0887 59.2741 27.8459 60.0225 29.6304C60.7598 31.3882 60.0793 33.1126 58.3678 33.8241ZM55.1921 24.3323L53.8739 24.8803C53.5446 25.0156 53.1763 25.0229 52.8419 24.9007C52.5074 24.7786 52.2312 24.536 52.0678 24.2208L52.0026 24.0938C50.5843 21.5472 50.4219 18.4521 51.5225 14.8994C52.5421 11.7124 52.9656 9.47107 52.1139 7.4405C51.1292 5.09279 49.0266 4.35736 46.3452 5.42271C45.3053 5.85503 44.9744 5.84814 44.156 6.65641C43.9779 6.83437 43.7658 6.97481 43.532 7.06937C43.2983 7.16392 43.0479 7.21065 42.7956 7.20676C42.5518 7.2039 42.311 7.15219 42.0877 7.05469C41.8643 6.9572 41.663 6.81592 41.4957 6.6393C41.1733 6.29891 40.9928 5.84943 40.9904 5.38162C40.988 4.91381 41.164 4.46253 41.4829 4.11892C42.8585 2.68531 44.5176 1.55115 46.3556 0.787999C52.1167 -1.60699 55.0169 1.92887 56.344 5.09313C57.6421 8.18814 56.9119 11.0598 55.7386 14.7789C54.7554 17.8692 54.8127 20.1591 55.9296 22.4359C56.0102 22.6081 56.0551 22.7946 56.0614 22.9845C56.0678 23.1743 56.0356 23.3634 55.9668 23.5406C55.8979 23.7177 55.7938 23.8791 55.6606 24.0152C55.5275 24.1512 55.3682 24.2591 55.1921 24.3323L55.1921 24.3323Z" fill="#26649D"/>
<path d="M201.478 48.0266H173.479C173.39 48.0272 173.302 48.0102 173.22 47.9768C173.137 47.9433 173.063 47.8939 172.999 47.8315C172.936 47.7691 172.886 47.6949 172.852 47.6131C172.818 47.5314 172.8 47.4437 172.8 47.3551C172.8 47.2666 172.818 47.1789 172.852 47.0971C172.886 47.0154 172.936 46.9412 172.999 46.8788C173.063 46.8164 173.137 46.767 173.22 46.7335C173.302 46.7001 173.39 46.6831 173.479 46.6837H201.478C201.656 46.6849 201.826 46.7562 201.952 46.882C202.077 47.0078 202.148 47.1779 202.148 47.3551C202.148 47.5324 202.077 47.7025 201.952 47.8283C201.826 47.9541 201.656 48.0253 201.478 48.0266Z" fill="#26649D"/>
<path d="M236.996 48.2503H208.997C208.908 48.2509 208.82 48.234 208.738 48.2005C208.655 48.1671 208.581 48.1177 208.517 48.0553C208.454 47.9929 208.404 47.9187 208.37 47.8369C208.336 47.7551 208.318 47.6675 208.318 47.5789C208.318 47.4903 208.336 47.4027 208.37 47.3209C208.404 47.2391 208.454 47.1649 208.517 47.1025C208.581 47.0401 208.655 46.9907 208.738 46.9573C208.82 46.9238 208.908 46.9069 208.997 46.9075H236.996C237.085 46.9069 237.173 46.9238 237.255 46.9573C237.338 46.9907 237.413 47.0401 237.476 47.1025C237.539 47.1649 237.589 47.2391 237.623 47.3209C237.657 47.4027 237.675 47.4903 237.675 47.5789C237.675 47.6675 237.657 47.7551 237.623 47.8369C237.589 47.9187 237.539 47.9929 237.476 48.0553C237.413 48.1177 237.338 48.1671 237.255 48.2005C237.173 48.234 237.085 48.2509 236.996 48.2503Z" fill="#26649D"/>
<path d="M272.514 48.4741H244.515C244.337 48.4729 244.167 48.4016 244.041 48.2759C243.916 48.1501 243.845 47.98 243.845 47.8027C243.845 47.6254 243.916 47.4553 244.041 47.3296C244.167 47.2038 244.337 47.1325 244.515 47.1313H272.514C272.603 47.1307 272.691 47.1476 272.773 47.1811C272.856 47.2146 272.931 47.2639 272.994 47.3263C273.057 47.3887 273.107 47.463 273.141 47.5447C273.175 47.6265 273.193 47.7141 273.193 47.8027C273.193 47.8913 273.175 47.979 273.141 48.0607C273.107 48.1425 273.057 48.2167 272.994 48.2791C272.931 48.3415 272.856 48.3909 272.773 48.4243C272.691 48.4578 272.603 48.4747 272.514 48.4741H272.514Z" fill="#26649D"/>
<path d="M308.032 48.6979H280.033C279.855 48.6967 279.685 48.6254 279.559 48.4997C279.434 48.3739 279.363 48.2038 279.363 48.0265C279.363 47.8492 279.434 47.6791 279.559 47.5534C279.685 47.4276 279.855 47.3563 280.033 47.3551H308.032C308.21 47.3563 308.38 47.4276 308.506 47.5534C308.631 47.6791 308.702 47.8492 308.702 48.0265C308.702 48.2038 308.631 48.3739 308.506 48.4997C308.38 48.6254 308.21 48.6967 308.032 48.6979Z" fill="#26649D"/>
<path d="M187.417 41.8474C190.291 41.8474 192.621 39.5279 192.621 36.6667C192.621 33.8054 190.291 31.4859 187.417 31.4859C184.543 31.4859 182.213 33.8054 182.213 36.6667C182.213 39.5279 184.543 41.8474 187.417 41.8474Z" fill="#26649D"/>
<path d="M223.149 41.8474C226.023 41.8474 228.353 39.5279 228.353 36.6667C228.353 33.8054 226.023 31.4859 223.149 31.4859C220.275 31.4859 217.946 33.8054 217.946 36.6667C217.946 39.5279 220.275 41.8474 223.149 41.8474Z" fill="#26649D"/>
<path d="M258.882 41.8474C261.756 41.8474 264.086 39.5279 264.086 36.6667C264.086 33.8054 261.756 31.4859 258.882 31.4859C256.008 31.4859 253.678 33.8054 253.678 36.6667C253.678 39.5279 256.008 41.8474 258.882 41.8474Z" fill="#26649D"/>
<path d="M294.614 41.8474C297.488 41.8474 299.818 39.5279 299.818 36.6667C299.818 33.8054 297.488 31.4859 294.614 31.4859C291.74 31.4859 289.411 33.8054 289.411 36.6667C289.411 39.5279 291.74 41.8474 294.614 41.8474Z" fill="#26649D"/>
<path d="M219.526 154.588C219.127 154.661 218.728 154.735 218.325 154.816C212.963 155.835 207.692 157.285 202.566 159.153C202.168 159.291 201.766 159.437 201.372 159.587C189.07 164.218 177.738 171.084 167.954 179.834C164.063 183.319 160.445 187.094 157.13 191.126C152.552 196.695 148.033 203.095 142.051 206.726C141.431 207.111 140.788 207.459 140.125 207.765L105.663 193.534C105.601 193.463 105.535 193.399 105.473 193.327L104.071 192.822C104.227 192.602 104.394 192.377 104.55 192.157C104.641 192.029 104.738 191.905 104.829 191.777C104.891 191.692 104.954 191.608 105.006 191.529C105.026 191.501 105.048 191.473 105.065 191.452C105.117 191.373 105.173 191.304 105.221 191.232C106.151 189.974 107.091 188.72 108.042 187.47C108.045 187.463 108.045 187.463 108.056 187.458C115.324 177.954 123.453 168.971 132.693 161.502C132.971 161.277 133.252 161.045 133.546 160.827C137.73 157.483 142.181 154.485 146.855 151.864C149.419 150.436 152.054 149.139 154.75 147.977C161.722 144.987 169.122 143.108 176.68 142.408C191.748 141.016 207.094 144.436 218.65 153.859C218.946 154.1 219.234 154.339 219.526 154.588Z" fill="#4BA8FD" fill-opacity="0.5"/>
<path d="M219.267 154.991C200.889 151.331 181.218 153.493 164.191 161.357C160.51 163.057 156.924 165.101 153.94 167.867C150.954 170.635 149.048 173.972 147.846 177.828C146.748 181.352 146.034 185.084 144.094 188.282C142.049 191.652 138.678 193.709 134.84 194.468C130.144 195.396 125.393 194.589 120.774 193.64C115.646 192.585 110.336 191.409 105.141 192.726C104.512 192.885 104.3 191.903 104.928 191.744C113.967 189.453 122.761 194.349 131.819 193.836C136.045 193.597 140.225 192.089 142.731 188.527C144.923 185.411 145.662 181.563 146.743 177.985C147.879 174.228 149.573 170.864 152.337 168.025C155.165 165.12 158.678 162.933 162.299 161.146C170.466 157.117 179.433 154.521 188.44 153.219C198.791 151.722 209.323 151.998 219.581 154.037C220.216 154.163 219.898 155.117 219.267 154.991V154.991Z" fill="white"/>
<path d="M169.59 158.51C168.663 155.453 168.857 152.168 170.138 149.241C171.419 146.314 173.703 143.935 176.583 142.53C177.167 142.248 177.635 143.138 177.05 143.42C174.366 144.724 172.238 146.94 171.051 149.668C169.864 152.396 169.695 155.457 170.576 158.298C170.767 158.916 169.78 159.124 169.59 158.51Z" fill="white"/>
<path d="M148.167 175.967C153.917 179.102 160.643 179.964 167.003 178.382C167.633 178.224 167.845 179.206 167.216 179.363C160.594 180.998 153.597 180.087 147.62 176.811C147.051 176.499 147.6 175.657 148.167 175.967Z" fill="white"/>
<path d="M198.442 153.007C198.553 154.264 198.976 155.474 199.673 156.528C200.37 157.582 201.319 158.447 202.435 159.046C203.008 159.351 202.458 160.193 201.888 159.89C200.659 159.222 199.612 158.266 198.839 157.103C198.066 155.94 197.591 154.606 197.456 153.219C197.432 153.089 197.459 152.955 197.53 152.844C197.602 152.733 197.714 152.654 197.842 152.622C197.973 152.595 198.109 152.62 198.221 152.692C198.334 152.764 198.413 152.877 198.442 153.007Z" fill="white"/>
<path d="M153.878 178.066C149.052 154.834 143.019 147.088 143.019 147.088L140.714 145.308L137.943 143.165L137.956 142.889L137.299 142.667L137.144 142.547L136.891 142.354L136.851 142.398L136.765 142.486L124.223 138.242L108.311 132.861L100.943 123.326C99.7433 121.773 98.1984 120.518 96.4297 119.659C94.6609 118.801 92.7164 118.361 90.7485 118.376L67.2174 118.549C64.0357 118.572 60.9779 119.78 58.6452 121.934L43.1786 136.217L19.0786 147.676L19.0379 147.636L18.7848 147.816L15.0612 149.588L15.2148 150.385L12.9101 152.04C12.9101 152.04 6.8772 159.248 2.05087 180.866C0.823102 186.366 0.218751 198.166 0.000613014 212.706C-0.010344 213.442 0.125683 214.172 0.400781 214.855C0.675878 215.537 1.08456 216.159 1.60306 216.683C2.12157 217.207 2.73955 217.623 3.42107 217.908C4.1026 218.192 4.83407 218.338 5.57295 218.338H134.296V218.338H150.362C151.1 218.338 151.831 218.192 152.512 217.908C153.193 217.624 153.811 217.208 154.33 216.685C154.848 216.161 155.257 215.541 155.532 214.859C155.808 214.177 155.944 213.447 155.934 212.712C155.721 196.89 155.117 184.032 153.878 178.066Z" fill="#3F3D56"/>
<path opacity="0.2" d="M30.3428 171.052L38.9893 217.889L44.1775 218.338L30.3428 171.052Z" fill="black"/>
<path opacity="0.2" d="M125.586 167.52L116.94 217.855L111.752 218.338L125.586 167.52Z" fill="black"/>
</g>
<defs>
<clipPath id="clip0_582_1406">
<rect width="330" height="218.338" fill="white"/>
</clipPath>
</defs>
</svg>
