<svg width="29" height="40" viewBox="0 0 29 40" fill="none" xmlns="http://www.w3.org/2000/svg">
<path d="M12.2961 34.1032C10.1521 35.0416 7.8393 35.5329 5.49899 35.547C4.0466 35.4892 2.62583 35.1053 1.34204 34.4236L7.09689 31.1021L12.2961 34.1032Z" fill="#615586"/>
<path d="M20.963 14.523L21.62 14.9285L22.2648 15.3341L22.9015 15.7396L23.522 16.1776L24.0128 16.5467L24.4913 16.9279L24.7265 17.1266L24.9577 17.3294L25.1848 17.5362L25.4038 17.7471L25.5782 17.9175L25.7485 18.0919L25.9148 18.2703L26.077 18.4487L26.2311 18.6353L26.3853 18.8259L26.5353 19.0165L26.6773 19.2153L26.7868 19.3734L26.8922 19.5356L26.9936 19.7019L27.0869 19.8682L27.1801 20.0385L27.2653 20.2129L27.3424 20.3873L27.3829 20.4765L27.4194 20.5658L27.4721 20.7158L27.5249 20.8699L27.5695 21.024L27.6141 21.1781V21.2593V21.3363V21.4134V21.4945V21.5715V21.6526V21.7338V21.8108V21.8879V22.4394V22.5165V22.5935V22.6706V22.7517V22.8288V22.9058V22.9829V23.0599V23.141V23.2181V23.2992L27.5898 23.3763L27.5451 23.5344L27.4924 23.6885L27.4316 23.8427L27.3708 23.9927L27.3018 24.1428L27.2329 24.2888L27.1761 24.4023L27.1153 24.5118L27.0504 24.6213L26.9855 24.7308L26.9206 24.8363L26.8516 24.9458L26.7097 25.1526C25.5344 24.0164 24.2144 23.04 22.7839 22.2488L6.92261 13.0954L7.24705 12.9332L7.5715 12.775L7.9 12.625L8.23255 12.479L8.63811 12.3086L9.06394 12.1464L9.48572 11.9923L9.89128 11.8666L10.2968 11.7571L10.4956 11.7084L10.6943 11.6638L10.8971 11.6232L11.1079 11.5867L11.3107 11.5543L11.5135 11.5259L11.7082 11.5016L11.8988 11.4813H12.0935H12.2841H12.4787H13.0587H13.3547L13.6548 11.5056L13.9509 11.5381L14.247 11.5827L14.5633 11.6395L14.8796 11.7084L15.1919 11.7895L15.5042 11.8747L15.784 11.9639L16.0598 12.0572L16.3356 12.1586L16.6113 12.264L16.9642 12.4141L17.313 12.5682L18.0065 12.9007L18.7567 13.3063L20.963 14.523Z" fill="#615586"/>
<path d="M21.3888 26.8965L21.1536 27.0019L20.9143 27.0992L20.6709 27.1925L20.4276 27.2817L20.0707 27.4034L19.7098 27.5129L19.3448 27.6102L18.9757 27.6954L18.6756 27.7562L18.3795 27.809L18.0794 27.8576L17.7753 27.8982L17.3697 27.9387L16.9642 27.9671H16.5586H16.153H15.7475H15.3419L14.9364 27.9428L14.5308 27.9022L14.0888 27.8495L13.6508 27.7846L13.2128 27.7076L12.7788 27.6184L12.3368 27.517L11.919 27.4034L11.4851 27.2777L11.0552 27.1439L10.6172 26.9979L10.2116 26.8437L9.80609 26.6775L9.40053 26.499L8.99497 26.3084L8.58942 26.1097L8.18386 25.9029L7.77831 25.6839L7.29975 25.4081L6.8293 25.1282L5.83569 24.5321L5.13813 24.0535L4.81774 23.8264L4.50141 23.5871L4.18508 23.3478L3.87685 23.0964L3.56863 22.8328L3.26446 22.5651L2.96841 22.2853L2.68452 21.9973L2.44524 21.7256L2.21002 21.462L2.10052 21.3201L1.99102 21.1862L1.88152 21.0443L1.78013 20.9145L1.64224 20.7158L1.50435 20.509L1.43946 20.4035L1.37457 20.3021L1.31374 20.1967L1.25696 20.1034L1.20424 20.0061L1.15557 19.9087L1.11096 19.8114L1.06635 19.6978L1.02174 19.6005L0.981182 19.4991L0.944681 19.3977L0.908181 19.2923L0.875737 19.199L0.847348 19.1098L0.818958 19.0165L0.794625 18.9232L0.770292 18.83L0.750014 18.7326L0.729736 18.6393V18.542V18.4568V18.3676V18.2784V18.1892V18.1V17.6944C0.79106 16.6656 1.15509 15.678 1.77607 14.8555C2.95219 15.9908 4.27202 16.967 5.70186 17.7593L21.3888 26.8965Z" fill="#338FB8"/>
<path d="M21.2916 8.93845L16.0964 5.93733C18.1837 5.02981 20.4275 4.5367 22.7029 4.48544C24.2195 4.51667 25.7074 4.90428 27.0465 5.61695L21.2916 8.93845Z" fill="#338FB8"/>
<path d="M27.5616 5.19923L27.2777 5.04918L26.9938 4.90318L26.7099 4.76529L26.4179 4.63551L26.1259 4.51384L25.8258 4.40029L25.5217 4.29484L25.2134 4.20156L24.8971 4.1164L24.7389 4.07584L24.5767 4.03934L24.4104 4.0069L24.2482 3.97445L24.0779 3.94606L23.9075 3.92173L23.7372 3.90145L23.5628 3.88117L23.3884 3.86495L23.2059 3.84873L23.0275 3.84062L22.8409 3.83251L22.6544 3.82845H22.4678L22.0825 3.83251L21.6851 3.85684L21.2755 3.89334L20.8537 3.94201L20.4198 4.0069L19.9696 4.08801L19.5073 4.18534L19.0287 4.2989L18.538 4.42868L18.027 4.57468L17.5038 4.7369L16.9604 4.9194L16.4007 5.12218L15.8248 5.34118L14.6122 5.83596L13.797 6.1969L12.9494 6.59029L11.1528 7.4744L9.20613 8.50857L7.09724 9.69685L6.46862 10.0619L5.7954 10.4796L5.08568 10.9379L4.72068 11.1852L4.35973 11.4448L3.99879 11.7125L3.63784 11.9923L3.28095 12.2802L2.93623 12.5804L2.59556 12.8886L2.26706 13.209L2.10889 13.3752L1.95478 13.5415L1.80067 13.7078L1.65467 13.8781L1.48028 14.0931L1.314 14.308L1.15178 14.5311L1.00172 14.7541L0.859779 14.9813L0.790834 15.0948L0.725946 15.2124L0.661057 15.326L0.600223 15.4436L0.543446 15.5612L0.486667 15.6829L0.433945 15.8045L0.385278 15.9221L0.336612 16.0438L0.292 16.1655L0.251445 16.2912L0.210889 16.4129L0.174389 16.5386L0.141944 16.6643L0.113555 16.79L0.0851665 16.9198L0.064889 17.0455L0.0446107 17.1753L0.0283888 17.3051L0.0121662 17.4349L0.00405566 17.5687L0 17.6985L0.00811054 9.95641V9.86719L0.0121662 9.77796L0.0162219 9.68874L0.0202775 9.60357L0.0283888 9.51435L0.0365001 9.42919L0.0567776 9.2548L0.0851665 9.08041L0.117611 8.90602L0.158167 8.73568L0.202778 8.56535L0.251445 8.39907L0.308223 8.23279L0.369056 8.06652L0.433945 7.90024L0.50289 7.73396L0.57589 7.57174L0.657001 7.40951L0.738112 7.25135L0.827335 7.09318L0.920612 6.93501L1.01389 6.7809L1.11528 6.62679L1.21667 6.47268L1.32211 6.31857L1.43161 6.16851L1.54517 6.01846L1.78039 5.72646L2.02778 5.43851L2.28734 5.15868L2.55095 4.8829L2.82267 4.61523L3.10656 4.35568L3.39045 4.10017L3.6784 3.85279L3.97445 3.61351L4.27051 3.38234L4.86262 2.94028L5.45068 2.52662L6.02657 2.14945L6.57812 1.80878L7.09724 1.50056L7.38113 1.34239L7.66907 1.19234L7.95702 1.05445L8.24902 0.920613L8.54102 0.803002L8.83707 0.689446L9.13313 0.588057L9.42919 0.490723L9.7293 0.405556L10.0294 0.328501L10.3336 0.259556L10.6377 0.198723L10.946 0.150056L11.2542 0.105445L11.5624 0.0689446L11.8747 0.0405558L12.187 0.0202779L12.4992 0.00811112L12.8156 0L13.1319 0.00405566L13.4482 0.0121668L13.7686 0.028389L14.089 0.0486669L14.4094 0.0770557L14.7339 0.113556L15.0583 0.154111L15.3828 0.202778L15.7072 0.259556L16.3601 0.385279L17.0171 0.535334L17.6782 0.709724L18.3393 0.900335L19.0044 1.11528L19.6735 1.34645L20.3427 1.59789L21.0159 1.86556L21.6851 2.14539L22.3583 2.4455L23.7048 3.07817L25.0512 3.75951L26.3936 4.47329L27.7279 5.21951L27.7319 5.22357H27.736V5.22762V5.23168H27.7319H27.7279H27.7238H27.7198H27.7157H27.7076H27.7036H27.6954H27.6792L27.663 5.22762L27.6468 5.22357L27.6306 5.21951H27.6143L27.6062 5.21545H27.5981L27.59 5.2114L27.5819 5.20734H27.5778H27.5738L27.5697 5.20329H27.5657L27.5616 5.19923Z" fill="#80DDEF"/>
<path d="M0.819259 34.8089L1.10315 34.963L1.37487 35.109L1.66282 35.2509L1.95076 35.3848L2.24682 35.5064L2.54693 35.624L2.8511 35.7295L3.15932 35.8268L3.31749 35.8714L3.47565 35.912L3.63788 35.9525L3.8001 35.989L3.96232 36.0255L4.1286 36.0539L4.29893 36.0864L4.46521 36.1107L4.6396 36.135H4.81399H4.98838H5.17088H5.34932H5.53588H6.29427L6.69983 36.1107L7.10538 36.0783L7.51094 36.0255L7.94894 35.9607L8.39505 35.8795L8.85739 35.7863L9.33594 35.6727L9.82667 35.5429L10.3377 35.3969L10.8608 35.2307L11.4286 35.109L11.9883 34.9062L12.5682 34.7034L13.7849 34.2046L14.596 33.8477L15.4436 33.4422L17.2443 32.554L19.191 31.5239L21.2958 30.3356L21.9244 29.9665L22.6017 29.561L23.3114 29.1027L23.6724 28.8553L24.0333 28.5958L24.3983 28.3281L24.7593 28.0483L25.1121 27.7603L25.4609 27.4602L25.7975 27.152L26.126 26.8316L26.2841 26.6653L26.4423 26.499L26.5924 26.3328L26.7384 26.1584L26.9128 25.9475L27.0831 25.7325L27.2413 25.5095L27.3913 25.2864L27.5333 25.0593L27.6022 24.9457L27.6671 24.8281L27.732 24.7105L27.7928 24.597L27.8496 24.4753L27.9064 24.3577L27.9591 24.236L28.0118 24.1184L28.0564 23.9967L28.101 23.871L28.1416 23.7534L28.1781 23.6277L28.2146 23.506L28.247 23.3803L28.2795 23.2505L28.3038 23.1248L28.3281 22.995L28.3484 22.8693V22.7395V22.6097V22.4759V22.3461V30.0882V30.3518V30.441V30.5303V30.6154V30.7898L28.32 30.9642L28.2876 31.1345L28.247 31.3089L28.2024 31.4752L28.1538 31.6455L28.101 31.8118L28.0402 31.9781L27.9753 32.1444L27.9023 32.3066L27.8293 32.4729L27.7523 32.631L27.6671 32.7933L27.5779 32.9514L27.4886 33.1096L27.3913 33.2637L27.294 33.4178L27.1885 33.5719L27.0831 33.726L26.9736 33.8761L26.86 34.0221L26.6248 34.3182L26.3774 34.6061L26.1219 34.8859L25.8543 35.1577L25.5825 35.4294L25.3027 35.6889L25.0148 35.9444L24.7268 36.1918L24.4348 36.4311L24.1387 36.6623L23.5426 37.1043L22.9545 37.5099L22.3786 37.887L21.8271 38.2318L21.308 38.54L21.0241 38.6982L20.7361 38.8482L20.4482 38.9861L20.1562 39.1159L19.8642 39.2376L19.5722 39.3511L19.2761 39.4525L18.976 39.5498L18.6759 39.635L18.3758 39.7121L18.0716 39.7769L17.7675 39.8378L17.4592 39.8905L17.151 39.9351L16.8428 39.9716L16.5305 40H16.2182H15.906H15.5896H15.2733H14.957H14.6366H14.3162L13.9958 39.9716L13.6754 39.9351L13.351 39.8905L13.0265 39.8459L12.7021 39.7891L12.0451 39.6634L11.3881 39.5133L10.7027 39.3308L10.0376 39.1362L9.37244 38.9253L8.70328 38.6941L8.03411 38.4427L7.36494 38.175L6.69172 37.8911L6.01849 37.595L4.67204 36.9624L3.3256 36.281L1.98321 35.5632L0.648926 34.817C0.670589 34.7936 0.700577 34.7796 0.732435 34.7781C0.764292 34.7766 0.79547 34.7876 0.819259 34.8089V34.8089Z" fill="#AA95D1"/>
</svg>
