 <svg
                width="166"
                height="26"
                viewBox="0 0 166 26"
                fill="none"
                xmlns="http://www.w3.org/2000/svg"
              >
                <path
                  d="M7.21232 2.06381C8.71181 2.06381 10.0087 2.38803 11.1029 2.99593C12.1971 3.60383 13.0887 4.49542 13.8182 5.71123L12.0755 7.04861C11.4271 5.95439 10.6976 5.14385 9.92762 4.69806C9.11708 4.25226 8.14443 4.0091 7.00968 4.0091C6.07757 4.0091 5.34808 4.13068 4.74018 4.41437C4.13228 4.65753 3.68648 5.02227 3.44332 5.42754C3.15963 5.83281 3.03805 6.31913 3.03805 6.88651C3.03805 7.49441 3.24069 8.02126 3.60543 8.46705C3.97017 8.91285 4.74018 9.27759 5.87493 9.56128L9.6034 10.3718C11.265 10.7366 12.3998 11.3039 13.0482 12.0334C13.6966 12.7629 14.0208 13.695 14.0208 14.7892C14.0208 15.7619 13.7371 16.613 13.2103 17.383C12.6834 18.153 11.9134 18.7203 10.9003 19.1256C9.92762 19.5309 8.75234 19.7335 7.41495 19.7335C6.15862 19.7335 5.06439 19.5714 4.13228 19.2472C3.20016 18.923 2.38962 18.4367 1.70067 17.8693C1.01171 17.3019 0.484858 16.6535 0.0390625 15.9645L1.86277 14.5056C2.18699 15.154 2.63278 15.7619 3.11911 16.2482C3.64595 16.7345 4.25386 17.1398 4.98334 17.4235C5.71282 17.7072 6.56389 17.8288 7.496 17.8288C8.38759 17.8288 9.15761 17.7072 9.80604 17.5045C10.4545 17.3019 10.9408 16.9777 11.3055 16.5319C11.6703 16.1266 11.8324 15.5998 11.8324 14.9919C11.8324 14.4245 11.6703 13.9382 11.3055 13.4924C10.9408 13.0466 10.2518 12.7224 9.23866 12.4792L5.2265 11.5876C4.1728 11.3445 3.32174 11.0202 2.67331 10.5745C2.02488 10.1692 1.53856 9.64233 1.25487 9.07496C0.97118 8.50758 0.809073 7.85915 0.809073 7.21072C0.809073 6.27861 1.05224 5.46807 1.57908 4.69806C2.10593 3.92805 2.83542 3.32015 3.76753 2.83382C4.78071 2.30697 5.91546 2.06381 7.21232 2.06381Z"
                  fill="#58595B"
                />
                <path
                  d="M23.3827 19.693C22.1669 19.693 21.0727 19.4093 20.1001 18.8825C19.1274 18.3556 18.3979 17.5856 17.8711 16.5724C17.3442 15.5593 17.0605 14.3435 17.0605 12.9656C17.0605 11.5471 17.3442 10.3718 17.8711 9.35867C18.3979 8.34549 19.1274 7.57548 20.0595 7.04864C20.9917 6.52179 22.0454 6.2381 23.2612 6.2381C24.477 6.2381 25.4901 6.48126 26.3412 7.00811C27.1923 7.53496 27.8407 8.22391 28.2865 9.11551C28.7323 10.0071 28.9754 11.0203 28.9754 12.1145C28.9754 12.3982 28.9754 12.6819 28.9349 12.925C28.9349 13.1682 28.8944 13.3708 28.8539 13.5735H18.3574V11.7498H27.9217L26.868 11.9524C26.868 10.6961 26.5438 9.76393 25.8549 9.07498C25.1659 8.38602 24.2743 8.06181 23.1801 8.06181C22.329 8.06181 21.5996 8.26444 20.9917 8.62918C20.3837 9.03445 19.8974 9.5613 19.5732 10.3313C19.249 11.0608 19.0869 11.9524 19.0869 13.0061C19.0869 14.0193 19.249 14.9108 19.6137 15.6403C19.9785 16.3698 20.4648 16.9372 21.0727 17.3425C21.7211 17.7477 22.4506 17.9098 23.3422 17.9098C24.2743 17.9098 25.0849 17.7477 25.6522 17.383C26.2601 17.0182 26.7465 16.5319 27.1112 15.924L28.7323 16.8967C28.4081 17.5046 28.0028 17.9909 27.4759 18.4367C26.9491 18.8825 26.3817 19.2067 25.6928 19.4499C25.0038 19.5714 24.2338 19.693 23.3827 19.693Z"
                  fill="#58595B"
                />
                <path
                  d="M32.9473 19.4499V6.48126H34.771L34.9331 9.39919L34.6089 9.11551C34.8926 8.42655 35.2573 7.85917 35.7436 7.4539C36.2299 7.04864 36.7568 6.72442 37.3647 6.52179C37.9726 6.31915 38.621 6.2381 39.2695 6.2381C40.2016 6.2381 41.0526 6.40021 41.8226 6.76495C42.5927 7.12969 43.2006 7.65654 43.6464 8.38602C44.0922 9.11551 44.3353 10.0476 44.3353 11.1418V19.4499H42.2684V11.8713C42.2684 10.4529 41.9442 9.43972 41.3363 8.87234C40.7284 8.30497 39.9584 8.02128 39.0668 8.02128C38.4589 8.02128 37.8105 8.18339 37.2026 8.46708C36.5947 8.75076 36.0678 9.23709 35.6626 9.88551C35.2573 10.5339 35.0547 11.4255 35.0547 12.5198V19.4093H32.9473V19.4499Z"
                  fill="#58595B"
                />
                <path
                  d="M53.6562 19.693C52.3998 19.693 51.2246 19.4093 50.1709 18.8825C49.1172 18.3556 48.3066 17.5856 47.7393 16.613L49.5224 15.3566C49.8872 16.1672 50.4546 16.7751 51.184 17.2209C51.9135 17.6667 52.8051 17.9098 53.8588 17.9098C54.7909 17.9098 55.4799 17.7477 56.0067 17.383C56.5336 17.0182 56.7767 16.5724 56.7767 16.0051C56.7767 15.6403 56.6552 15.3161 56.412 14.9919C56.1688 14.7082 55.7231 14.465 55.0746 14.3435L51.9541 13.695C50.6977 13.4519 49.8061 13.0061 49.2388 12.3982C48.7119 11.7903 48.4282 11.0608 48.4282 10.1287C48.4282 9.43972 48.6309 8.79129 49.0361 8.18339C49.4414 7.61601 50.0088 7.12969 50.7788 6.76495C51.5488 6.40021 52.3998 6.2381 53.4535 6.2381C54.7504 6.2381 55.8041 6.48126 56.6957 7.00811C57.5873 7.49443 58.2357 8.22391 58.6815 9.11551L56.9389 10.2503C56.6552 9.48025 56.1688 8.91287 55.5204 8.58866C54.872 8.22391 54.183 8.06181 53.4535 8.06181C52.8456 8.06181 52.3188 8.14286 51.873 8.30497C51.4272 8.46708 51.103 8.71024 50.8598 9.03445C50.6167 9.31814 50.4951 9.68288 50.4951 10.0476C50.4951 10.4124 50.6167 10.7771 50.9004 11.1013C51.1435 11.4255 51.6298 11.6687 52.3593 11.7903L55.6015 12.4792C56.8173 12.7224 57.6683 13.1277 58.1547 13.6545C58.641 14.2219 58.8841 14.8703 58.8841 15.6809C58.8841 16.4914 58.6815 17.2209 58.2357 17.8288C57.7899 18.4367 57.182 18.923 56.412 19.2472C55.642 19.5714 54.6694 19.693 53.6562 19.693Z"
                  fill="#58595B"
                />
                <path
                  d="M63.7065 3.96859C63.2202 3.96859 62.8555 3.80648 62.5718 3.52279C62.2881 3.23911 62.126 2.87436 62.126 2.38804C62.126 1.90172 62.2881 1.53698 62.5718 1.25329C62.8555 0.969602 63.2202 0.807495 63.7065 0.807495C64.1928 0.807495 64.5576 0.969602 64.8413 1.25329C65.125 1.53698 65.2871 1.90172 65.2871 2.38804C65.2871 2.87436 65.125 3.23911 64.8413 3.52279C64.5171 3.84701 64.1523 3.96859 63.7065 3.96859ZM64.7197 6.48125V19.4498H62.6528V6.48125H64.7197Z"
                  fill="#58595B"
                />
                <path
                  d="M76.9589 6.48125V8.26443H67.9619V6.48125H76.9589ZM74.811 0.402222C75.2568 0.402222 75.7025 0.442748 76.0673 0.564329C76.4726 0.685909 76.7562 0.80749 76.9994 1.01012L76.4726 2.71225C76.2699 2.59067 76.0268 2.46909 75.7836 2.42856C75.5404 2.38804 75.2568 2.34751 74.9731 2.34751C74.2436 2.34751 73.6357 2.50962 73.2304 2.87436C72.8251 3.2391 72.6225 3.80648 72.6225 4.57649V6.5623V7.25126V19.5309H70.5556V4.2928C70.5556 3.72542 70.6367 3.19857 70.7988 2.71225C70.9609 2.22593 71.2446 1.82066 71.6093 1.45592C71.9741 1.09118 72.4199 0.848016 72.9467 0.645382C73.4736 0.483275 74.122 0.402222 74.811 0.402222Z"
                  fill="#58595B"
                />
                <path
                  d="M90.4139 6.48126L84.3349 21.6383C84.0107 22.4894 83.6459 23.1378 83.2407 23.6646C82.8354 24.1915 82.4301 24.5157 81.9438 24.7183C81.4575 24.921 80.9306 25.0426 80.2822 25.0426C79.6743 25.0426 79.1474 24.9615 78.6611 24.7994C78.1748 24.6373 77.729 24.3941 77.3643 24.151L77.9316 22.3273C78.2964 22.6515 78.6611 22.8541 79.0259 23.0162C79.4311 23.1783 79.7959 23.2189 80.1606 23.2189C80.6064 23.2189 81.0522 23.0973 81.4169 22.8136C81.8222 22.5299 82.187 21.9625 82.5112 21.1115L83.2001 19.4093L81.9033 16.3293L77.7695 6.48126H80.1201L83.3622 14.9514L84.1728 17.2614L85.1049 14.7082L88.1444 6.52179H90.4139V6.48126Z"
                  fill="#58595B"
                />
                <path
                  d="M106.3 19.4498H104.112L102.288 14.7082H94.5473L92.7236 19.4498H90.5352L97.1816 2.3475H99.6537L106.3 19.4498ZM95.2768 12.7629H101.518L98.3974 4.33332L95.2768 12.7629Z"
                  fill="#58595B"
                />
                <path
                  d="M124.983 6.48126H127.293L122.795 19.4499H120.728L117.08 9.11551L113.636 19.4499H111.569L107.07 6.48126H109.38L112.663 17.0182L116.189 6.48126H118.256L121.782 17.0182L124.983 6.48126Z"
                  fill="#58595B"
                />
                <path
                  d="M137.668 11.0608C137.668 10.0881 137.425 9.35866 136.898 8.83182C136.371 8.30497 135.642 8.02128 134.709 8.02128C133.818 8.02128 133.048 8.22391 132.44 8.58865C131.832 8.99392 131.346 9.60183 131.062 10.4529L129.36 9.39919C129.725 8.42655 130.333 7.65654 131.265 7.04863C132.197 6.44073 133.372 6.15704 134.75 6.15704C135.682 6.15704 136.533 6.31915 137.303 6.64336C138.073 6.96758 138.681 7.4539 139.086 8.10233C139.532 8.75076 139.735 9.60183 139.735 10.615V16.9372C139.735 17.5451 140.059 17.8693 140.707 17.8693C141.032 17.8693 141.356 17.8288 141.68 17.7477L141.558 19.3688C141.194 19.5309 140.748 19.612 140.221 19.612C139.735 19.612 139.289 19.5309 138.884 19.3283C138.478 19.1256 138.195 18.8419 137.952 18.4772C137.708 18.0719 137.627 17.5856 137.627 17.0182V16.7751L138.154 16.8561C137.952 17.5451 137.587 18.0719 137.1 18.5177C136.614 18.923 136.047 19.2472 135.398 19.4498C134.79 19.6525 134.142 19.7335 133.575 19.7335C132.805 19.7335 132.116 19.612 131.467 19.3283C130.819 19.0851 130.292 18.6798 129.887 18.153C129.481 17.6261 129.319 16.9777 129.319 16.2077C129.319 15.2351 129.644 14.4245 130.292 13.8166C130.94 13.1682 131.832 12.7629 133.007 12.5198L138.154 11.5066V13.2087L133.98 14.0598C133.129 14.2219 132.521 14.465 132.075 14.7893C131.67 15.1135 131.467 15.5187 131.467 16.0861C131.467 16.613 131.67 17.0588 132.116 17.383C132.521 17.7072 133.129 17.8693 133.899 17.8693C134.385 17.8693 134.872 17.7883 135.358 17.6667C135.844 17.5451 136.209 17.3425 136.574 17.0588C136.938 16.7751 137.222 16.4509 137.425 16.0456C137.627 15.6403 137.749 15.154 137.749 14.5866V11.0608H137.668Z"
                  fill="#58595B"
                />
                <path
                  d="M144.801 19.4499V6.48126H146.503L146.787 8.58866C147.151 7.77812 147.678 7.21074 148.367 6.80547C149.056 6.40021 149.907 6.19757 150.92 6.19757C151.163 6.19757 151.407 6.19757 151.65 6.2381C151.934 6.27862 152.136 6.35968 152.339 6.44073L151.974 8.34549C151.771 8.26444 151.569 8.22391 151.366 8.18339C151.123 8.14286 150.839 8.14286 150.393 8.14286C149.867 8.14286 149.299 8.30497 148.772 8.62918C148.246 8.9534 147.759 9.39919 147.394 10.0476C147.03 10.6961 146.868 11.4661 146.868 12.4387V19.4499H144.801V19.4499Z"
                  fill="#58595B"
                />
                <path
                  d="M160.363 19.693C159.147 19.693 158.053 19.4093 157.081 18.8825C156.108 18.3556 155.378 17.5856 154.852 16.5724C154.325 15.5593 154.041 14.3435 154.041 12.9656C154.041 11.5471 154.325 10.3718 154.852 9.35867C155.378 8.34549 156.108 7.57548 157.04 7.04864C157.972 6.52179 159.026 6.2381 160.242 6.2381C161.457 6.2381 162.471 6.48126 163.322 7.00811C164.173 7.53496 164.821 8.22391 165.267 9.11551C165.713 10.0071 165.956 11.0203 165.956 12.1145C165.956 12.3982 165.956 12.6819 165.915 12.925C165.915 13.1682 165.875 13.3708 165.834 13.5735H155.338V11.7498H164.902L163.849 11.9524C163.849 10.6961 163.524 9.76393 162.835 9.07498C162.146 8.38602 161.255 8.06181 160.161 8.06181C159.309 8.06181 158.58 8.26444 157.972 8.62918C157.364 9.03445 156.878 9.5613 156.554 10.3313C156.229 11.0608 156.067 11.9524 156.067 13.0061C156.067 14.0193 156.229 14.9108 156.594 15.6403C156.959 16.3698 157.445 16.9372 158.053 17.3425C158.702 17.7477 159.431 17.9098 160.323 17.9098C161.255 17.9098 162.065 17.7477 162.633 17.383C163.241 17.0182 163.727 16.5319 164.092 15.924L165.713 16.8967C165.389 17.5046 164.983 17.9909 164.456 18.4367C163.93 18.8825 163.362 19.2067 162.673 19.4499C161.984 19.5714 161.214 19.693 160.363 19.693Z"
                  fill="#58595B"
                />
              </svg>