<svg width="11" height="7" viewBox="0 0 11 7" fill="none" xmlns="http://www.w3.org/2000/svg">
<path d="M0.754201 1.71078L5.0442 5.95078C5.13716 6.04451 5.24777 6.11891 5.36963 6.16968C5.49148 6.22044 5.62219 6.24658 5.7542 6.24658C5.88621 6.24658 6.01692 6.22044 6.13878 6.16968C6.26064 6.11891 6.37124 6.04451 6.4642 5.95078L10.7042 1.71078C10.7979 1.61782 10.8723 1.50722 10.9231 1.38536C10.9739 1.2635 11 1.1328 11 1.00078C11 0.868772 10.9739 0.738066 10.9231 0.616207C10.8723 0.494348 10.7979 0.383747 10.7042 0.290784C10.5168 0.104533 10.2634 -8.51867e-06 9.9992 -8.49558e-06C9.73502 -8.47248e-06 9.48156 0.104533 9.2942 0.290784L5.7542 3.83078L2.2142 0.290785C2.02794 0.106041 1.77654 0.00188935 1.5142 0.00078475C1.38259 2.3868e-05 1.25213 0.0252485 1.13029 0.0750131C1.00846 0.124778 0.897641 0.198103 0.804201 0.290785C0.707126 0.380403 0.628772 0.488369 0.573665 0.608444C0.518558 0.72852 0.487792 0.858325 0.483142 0.99036C0.478493 1.1224 0.500054 1.25404 0.546579 1.3777C0.593104 1.50135 0.66367 1.61456 0.754201 1.71078Z" fill="#4E4E4E"/>
</svg>
