<svg width="499" height="144" viewBox="0 0 499 144" fill="none" xmlns="http://www.w3.org/2000/svg">
<g opacity="0.5">
<g clip-path="url(#clip0_582_2326)">
<g opacity="0.2">
<path d="M300.357 134.396L301.271 134.396C302.397 136.126 303.694 137.737 305.143 139.204C306.59 140.663 308.183 141.97 309.895 143.102L309.895 144C307.366 144 304.94 142.988 303.151 141.187C301.362 139.386 300.357 136.943 300.357 134.396Z" fill="#26649D"/>
<path d="M289.231 144L289.231 143.102C292.682 140.814 295.626 137.831 297.877 134.342L298.769 134.342C298.776 135.607 298.535 136.862 298.059 138.034C297.583 139.205 296.881 140.27 295.995 141.168C295.108 142.065 294.054 142.778 292.894 143.264C291.733 143.75 290.488 144 289.231 144V144Z" fill="#26649D"/>
</g>
<g opacity="0.4">
<path d="M276.516 132.798L275.625 132.798C274.498 131.072 273.2 129.465 271.753 128.001C270.298 126.537 268.698 125.227 266.978 124.092L266.978 123.194C269.508 123.194 271.934 124.206 273.723 126.007C275.512 127.808 276.516 130.251 276.516 132.798Z" fill="#26649D"/>
<path d="M287.643 123.194L287.643 124.092C285.928 125.23 284.332 126.54 282.879 128.001C281.427 129.464 280.127 131.071 278.996 132.798L278.104 132.798C278.104 130.251 279.109 127.808 280.898 126.007C282.687 124.206 285.113 123.194 287.643 123.194Z" fill="#26649D"/>
<path d="M278.104 112.003L278.996 112.003C281.273 115.471 284.235 118.431 287.697 120.697L287.697 121.595C286.445 121.597 285.205 121.35 284.048 120.868C282.891 120.387 281.839 119.68 280.953 118.789C280.067 117.899 279.365 116.841 278.885 115.676C278.406 114.511 278.159 113.263 278.159 112.003L278.104 112.003Z" fill="#26649D"/>
<path d="M266.978 121.595L266.978 120.708C270.43 118.42 273.374 115.437 275.625 111.948L276.516 111.948C276.516 113.208 276.27 114.457 275.79 115.621C275.311 116.786 274.608 117.844 273.722 118.735C272.836 119.626 271.785 120.332 270.627 120.813C269.47 121.295 268.23 121.542 266.978 121.54L266.978 121.595Z" fill="#26649D"/>
</g>
<g opacity="0.3">
<path d="M298.769 132.798L297.877 132.798C296.747 131.071 295.446 129.464 293.994 128.001C292.542 126.54 290.946 125.23 289.231 124.092L289.231 123.194C291.76 123.194 294.187 124.206 295.975 126.007C297.764 127.808 298.769 130.251 298.769 132.798Z" fill="#26649D"/>
<path d="M309.895 123.194L309.895 124.092C308.175 125.227 306.575 126.537 305.121 128.001C303.681 129.466 302.391 131.073 301.271 132.798L300.379 132.798C300.379 130.254 301.381 127.815 303.165 126.015C304.949 124.214 307.369 123.2 309.895 123.194Z" fill="#26649D"/>
<path d="M300.357 112.003L301.271 112.003C302.398 113.729 303.695 115.335 305.143 116.799C306.597 118.26 308.197 119.566 309.917 120.697L309.917 121.595C308.665 121.597 307.425 121.35 306.268 120.868C305.111 120.387 304.059 119.68 303.173 118.789C302.287 117.899 301.585 116.841 301.105 115.676C300.626 114.511 300.379 113.263 300.379 112.003L300.357 112.003Z" fill="#26649D"/>
<path d="M289.231 121.595L289.231 120.708C290.943 119.566 292.538 118.257 293.994 116.799C295.446 115.336 296.747 113.729 297.877 112.003L298.769 112.003C298.769 113.263 298.522 114.511 298.043 115.676C297.563 116.841 296.861 117.899 295.975 118.789C295.089 119.68 294.037 120.387 292.88 120.868C291.723 121.35 290.483 121.597 289.231 121.595Z" fill="#26649D"/>
</g>
<g opacity="0.2">
<path d="M344.852 134.396L345.743 134.396C346.87 136.126 348.167 137.737 349.615 139.204C351.075 140.659 352.674 141.965 354.39 143.102L354.39 144C351.86 144 349.434 142.988 347.645 141.187C345.856 139.386 344.852 136.944 344.852 134.396Z" fill="#26649D"/>
<path d="M333.725 144L333.725 143.102C337.203 140.828 340.167 137.843 342.426 134.342L343.318 134.342C343.325 135.612 343.082 136.871 342.603 138.046C342.123 139.221 341.417 140.289 340.524 141.187C339.632 142.086 338.572 142.797 337.405 143.28C336.238 143.762 334.987 144.007 333.725 144Z" fill="#26649D"/>
</g>
<g opacity="0.5">
<path d="M367.104 134.396L367.996 134.396C370.245 137.869 373.186 140.833 376.632 143.102L376.632 144C374.104 143.997 371.681 142.984 369.894 141.183C368.108 139.383 367.104 136.941 367.104 134.396Z" fill="#26649D"/>
<path d="M355.978 144L355.978 143.102C359.43 140.814 362.374 137.831 364.625 134.342L365.516 134.342C365.524 135.607 365.282 136.862 364.806 138.034C364.33 139.205 363.628 140.27 362.742 141.168C361.856 142.065 360.802 142.778 359.641 143.264C358.48 143.75 357.235 144 355.978 144V144Z" fill="#26649D"/>
</g>
<g opacity="0.4">
<path d="M321.011 132.798L320.13 132.798C318.996 131.074 317.695 129.467 316.247 128.001C314.794 126.54 313.198 125.23 311.484 124.092L311.484 123.194C312.736 123.194 313.975 123.442 315.132 123.925C316.289 124.408 317.339 125.116 318.224 126.007C319.109 126.899 319.811 127.958 320.289 129.123C320.767 130.288 321.012 131.537 321.011 132.798Z" fill="#26649D"/>
<path d="M332.137 123.194L332.137 124.092C330.423 125.23 328.827 126.54 327.374 128.001C325.922 129.464 324.621 131.071 323.491 132.798L322.61 132.798C322.608 131.537 322.854 130.288 323.332 129.123C323.81 127.958 324.512 126.899 325.397 126.007C326.281 125.116 327.332 124.408 328.489 123.925C329.646 123.442 330.885 123.194 332.137 123.194Z" fill="#26649D"/>
<path d="M322.61 112.002L323.491 112.002C325.752 115.466 328.695 118.425 332.137 120.697L332.137 121.595C330.885 121.598 329.645 121.352 328.488 120.871C327.331 120.39 326.279 119.683 325.394 118.792C324.509 117.901 323.807 116.842 323.329 115.677C322.851 114.512 322.607 113.263 322.61 112.002Z" fill="#26649D"/>
<path d="M311.484 121.595L311.484 120.708C314.929 118.412 317.871 115.431 320.13 111.948L321.011 111.948C321.014 113.208 320.769 114.457 320.292 115.622C319.814 116.787 319.112 117.846 318.227 118.737C317.342 119.629 316.29 120.335 315.133 120.816C313.976 121.297 312.736 121.543 311.484 121.54L311.484 121.595Z" fill="#26649D"/>
</g>
<g opacity="0.5">
<path d="M343.264 132.798L342.372 132.798C341.245 131.072 339.948 129.465 338.5 128.001C337.043 126.54 335.443 125.23 333.725 124.092L333.725 123.194C336.255 123.194 338.681 124.206 340.47 126.007C342.259 127.808 343.264 130.251 343.264 132.798Z" fill="#26649D"/>
<path d="M354.39 123.194L354.39 124.092C352.674 125.233 351.075 126.542 349.615 128.001C348.168 129.465 346.87 131.072 345.744 132.798L344.852 132.798C344.852 130.251 345.857 127.808 347.645 126.007C349.434 124.206 351.86 123.194 354.39 123.194Z" fill="#26649D"/>
<path d="M344.852 112.003L345.744 112.003C346.87 113.729 348.168 115.335 349.615 116.799C351.075 118.255 352.674 119.56 354.39 120.697L354.39 121.595C353.138 121.597 351.898 121.35 350.741 120.868C349.584 120.387 348.532 119.68 347.646 118.789C346.76 117.899 346.057 116.841 345.578 115.676C345.098 114.511 344.852 113.263 344.852 112.003Z" fill="#26649D"/>
<path d="M333.725 121.595L333.725 120.708C335.441 119.567 337.04 118.257 338.5 116.799C339.948 115.335 341.245 113.729 342.372 112.003L343.264 112.003C343.264 113.263 343.017 114.511 342.537 115.676C342.058 116.841 341.355 117.899 340.469 118.789C339.583 119.68 338.532 120.387 337.375 120.868C336.218 121.35 334.977 121.597 333.725 121.595Z" fill="#26649D"/>
</g>
<g opacity="0.6">
<path d="M365.516 132.798L364.625 132.798C363.494 131.071 362.193 129.464 360.742 128.001C359.289 126.54 357.693 125.23 355.978 124.092L355.978 123.194C358.508 123.194 360.934 124.206 362.723 126.007C364.512 127.808 365.516 130.251 365.516 132.798Z" fill="#26649D"/>
<path d="M376.632 123.194L376.632 124.092C374.917 125.23 373.321 126.54 371.868 128.001C370.42 129.465 369.123 131.072 367.996 132.798L367.104 132.798C367.104 130.252 368.108 127.811 369.894 126.011C371.681 124.21 374.104 123.197 376.632 123.194Z" fill="#26649D"/>
<path d="M367.104 112.003L367.996 112.003C370.249 115.469 373.189 118.429 376.632 120.697L376.632 121.595C374.105 121.595 371.682 120.585 369.895 118.786C368.108 116.987 367.104 114.547 367.104 112.003Z" fill="#26649D"/>
<path d="M355.978 121.595L355.978 120.708C357.69 119.566 359.286 118.257 360.742 116.799C362.193 115.336 363.494 113.729 364.625 112.003L365.516 112.003C365.516 113.263 365.27 114.511 364.79 115.676C364.311 116.841 363.608 117.899 362.722 118.789C361.836 119.68 360.785 120.387 359.627 120.868C358.47 121.35 357.23 121.597 355.978 121.595Z" fill="#26649D"/>
</g>
<g opacity="0.5">
<path d="M276.516 110.404L275.625 110.404C273.381 106.908 270.436 103.924 266.978 101.643L266.978 100.745C268.231 100.745 269.471 100.994 270.628 101.476C271.785 101.959 272.837 102.666 273.723 103.558C274.608 104.45 275.311 105.509 275.79 106.674C276.27 107.839 276.516 109.088 276.516 110.349L276.516 110.404Z" fill="#26649D"/>
<path d="M287.643 100.8L287.643 101.698C285.929 102.833 284.332 104.139 282.879 105.596C281.425 107.061 280.124 108.672 278.996 110.404L278.104 110.404C278.104 107.857 279.109 105.414 280.898 103.613C282.687 101.812 285.113 100.8 287.643 100.8Z" fill="#26649D"/>
<path d="M278.104 89.5976L278.996 89.5976C281.271 93.086 284.232 96.0675 287.697 98.358L287.697 99.256C286.445 99.256 285.204 99.0076 284.047 98.5249C282.89 98.0423 281.838 97.3349 280.952 96.4431C280.067 95.5514 279.364 94.4927 278.885 93.3275C278.405 92.1623 278.159 90.9135 278.159 89.6523L278.104 89.5976Z" fill="#26649D"/>
<path d="M266.978 99.2012L266.978 98.3033C268.698 97.1681 270.298 95.8581 271.753 94.3939C273.2 92.9305 274.498 91.3236 275.625 89.5976L276.516 89.5976C276.516 92.1446 275.512 94.5874 273.723 96.3884C271.934 98.1894 269.508 99.2012 266.978 99.2012Z" fill="#26649D"/>
</g>
<g opacity="0.7">
<path d="M298.769 110.404L297.877 110.404C296.75 108.672 295.449 107.061 293.994 105.596C292.541 104.139 290.945 102.832 289.231 101.698L289.231 100.8C291.76 100.8 294.187 101.812 295.975 103.613C297.764 105.414 298.769 107.857 298.769 110.404Z" fill="#26649D"/>
<path d="M309.895 100.8L309.895 101.698C306.437 103.978 303.492 106.962 301.249 110.458L300.357 110.458C300.357 109.197 300.604 107.948 301.083 106.783C301.562 105.618 302.265 104.559 303.151 103.668C304.94 101.867 307.366 100.855 309.895 100.855L309.895 100.8Z" fill="#26649D"/>
<path d="M300.357 89.5975L301.271 89.5975C302.398 91.3235 303.695 92.9305 305.143 94.3939C306.597 95.858 308.197 97.168 309.917 98.3032L309.917 99.2012C307.387 99.2012 304.961 98.1894 303.173 96.3883C301.384 94.5873 300.379 92.1446 300.379 89.5975L300.357 89.5975Z" fill="#26649D"/>
<path d="M289.231 99.2012L289.231 98.3032C292.676 96.0069 295.618 93.0257 297.877 89.5428L298.769 89.5428C298.769 92.0898 297.764 94.5325 295.975 96.3336C294.187 98.1346 291.76 99.1464 289.231 99.1464L289.231 99.2012Z" fill="#26649D"/>
</g>
<g opacity="0.3">
<path d="M254.274 87.9988L253.415 87.9988C251.156 84.5158 248.214 81.5347 244.769 79.2383L244.769 78.3404C246.021 78.3404 247.262 78.5888 248.419 79.0714C249.576 79.554 250.628 80.2614 251.513 81.1532C252.399 82.045 253.102 83.1037 253.581 84.2689C254.06 85.434 254.307 86.6829 254.307 87.944L254.274 87.9988Z" fill="#26649D"/>
<path d="M265.379 78.3951L265.379 79.2931C261.934 81.5857 258.995 84.5678 256.744 88.0535L255.852 88.0535C255.843 86.7883 256.083 85.5338 256.558 84.3624C257.033 83.1909 257.733 82.1257 258.619 81.228C259.505 80.3302 260.558 79.6177 261.718 79.1316C262.878 78.6454 264.123 78.3951 265.379 78.3951Z" fill="#26649D"/>
<path d="M255.863 67.1927L256.744 67.1927C258.995 70.6821 261.939 73.6648 265.39 75.9531L265.39 76.8511C264.138 76.8511 262.898 76.6026 261.742 76.1198C260.585 75.6371 259.534 74.9295 258.649 74.0376C257.764 73.1456 257.063 72.0869 256.585 70.9218C256.107 69.7567 255.861 68.5081 255.863 67.2474L255.863 67.1927Z" fill="#26649D"/>
<path d="M244.714 76.7964L244.714 75.8984C246.429 74.7638 248.025 73.4577 249.478 72C250.951 70.5382 252.271 68.9272 253.415 67.1927L254.307 67.1927C254.307 68.4585 254.059 69.7118 253.576 70.8805C253.093 72.0493 252.386 73.1104 251.494 74.0029C250.603 74.8954 249.545 75.6017 248.381 76.0811C247.218 76.5605 245.972 76.8036 244.714 76.7964Z" fill="#26649D"/>
</g>
<path d="M276.516 87.9988L275.625 87.9988C274.498 86.2728 273.2 84.6658 271.753 83.2024C270.298 81.7383 268.698 80.4283 266.978 79.2931L266.978 78.3951C269.508 78.3951 271.934 79.4069 273.723 81.208C275.512 83.009 276.516 85.4517 276.516 87.9988Z" fill="#26649D"/>
<path d="M287.643 78.3951L287.643 79.2931C284.178 81.5836 281.217 84.5651 278.942 88.0535L278.05 88.0535C278.05 85.5065 279.055 83.0638 280.844 81.2627C282.633 79.4617 285.059 78.4499 287.588 78.4499L287.643 78.3951Z" fill="#26649D"/>
<path d="M278.104 67.1927L278.996 67.1927C280.124 68.9247 281.425 70.5356 282.879 72C284.332 73.4577 285.929 74.7638 287.643 75.8984L287.643 76.7964C285.113 76.7964 282.687 75.7846 280.898 73.9835C279.109 72.1825 278.104 69.7398 278.104 67.1927Z" fill="#26649D"/>
<path d="M266.978 76.7964L266.978 75.8984C270.436 73.6181 273.381 70.6339 275.625 67.138L276.516 67.138C276.516 69.685 275.512 72.1278 273.723 73.9288C271.934 75.7298 269.508 76.7416 266.978 76.7416L266.978 76.7964Z" fill="#26649D"/>
<g opacity="0.5">
<path d="M298.769 87.9988L297.877 87.9988C295.618 84.5158 292.676 81.5347 289.231 79.2383L289.231 78.3404C291.76 78.3404 294.187 79.3522 295.975 81.1532C297.764 82.9543 298.769 85.397 298.769 87.944L298.769 87.9988Z" fill="#26649D"/>
<path d="M309.895 78.3951L309.895 79.2931C308.175 80.4283 306.575 81.7383 305.121 83.2024C303.681 84.6669 302.391 86.2738 301.271 87.9988L300.379 87.9988C300.379 85.4517 301.384 83.009 303.173 81.208C304.961 79.4069 307.387 78.3951 309.917 78.3951L309.895 78.3951Z" fill="#26649D"/>
<path d="M300.357 67.1927L301.271 67.1927C303.514 70.6886 306.459 73.6728 309.917 75.9531L309.917 76.8511C307.387 76.8511 304.961 75.8393 303.173 74.0382C301.384 72.2372 300.379 69.7945 300.379 67.2474L300.357 67.1927Z" fill="#26649D"/>
<path d="M289.231 76.7963L289.231 75.8984C290.945 74.7638 292.541 73.4577 293.994 72C295.449 70.5355 296.75 68.9246 297.877 67.1927L298.769 67.1927C298.769 69.7397 297.764 72.1824 295.975 73.9835C294.187 75.7845 291.76 76.7963 289.231 76.7963Z" fill="#26649D"/>
</g>
<g opacity="0.2">
<path d="M321.011 110.404L320.13 110.404C317.879 106.914 314.935 103.932 311.484 101.643L311.484 100.745C312.736 100.745 313.975 100.994 315.132 101.477C316.289 101.959 317.339 102.667 318.224 103.559C319.109 104.451 319.811 105.51 320.289 106.675C320.767 107.84 321.012 109.088 321.011 110.349L321.011 110.404Z" fill="#26649D"/>
<path d="M332.137 100.8L332.137 101.698C330.423 102.833 328.827 104.139 327.374 105.596C325.919 107.061 324.618 108.672 323.491 110.404L322.61 110.404C322.608 109.143 322.854 107.894 323.332 106.729C323.81 105.564 324.512 104.505 325.397 103.614C326.281 102.722 327.332 102.014 328.489 101.531C329.646 101.049 330.885 100.8 332.137 100.8Z" fill="#26649D"/>
<path d="M322.61 89.5976L323.491 89.5976C325.75 93.0805 328.692 96.0617 332.137 98.358L332.137 99.256C330.885 99.256 329.646 99.0075 328.489 98.5247C327.332 98.042 326.281 97.3344 325.397 96.4425C324.512 95.5505 323.81 94.4918 323.332 93.3267C322.854 92.1616 322.608 90.913 322.61 89.6523L322.61 89.5976Z" fill="#26649D"/>
<path d="M311.484 99.2012L311.484 98.3033C313.198 97.1652 314.794 95.8555 316.247 94.3939C317.695 92.928 318.996 91.3214 320.13 89.5976L321.011 89.5976C321.012 90.8582 320.767 92.1068 320.289 93.2719C319.811 94.437 319.109 95.4958 318.224 96.3877C317.339 97.2797 316.289 97.9872 315.132 98.47C313.975 98.9527 312.736 99.2012 311.484 99.2012Z" fill="#26649D"/>
</g>
<g opacity="0.3">
<path d="M321.011 87.9988L320.13 87.9988C318.996 86.275 317.695 84.6684 316.247 83.2024C314.794 81.7409 313.198 80.4311 311.484 79.2931L311.484 78.3951C312.736 78.3951 313.975 78.6436 315.132 79.1264C316.289 79.6091 317.339 80.3167 318.224 81.2086C319.109 82.1006 319.811 83.1593 320.289 84.3245C320.767 85.4896 321.012 86.7381 321.011 87.9988Z" fill="#26649D"/>
<path d="M332.137 78.3951L332.137 79.2931C328.692 81.5894 325.75 84.5706 323.491 88.0535L322.61 88.0535C322.608 86.7929 322.854 85.5443 323.332 84.3792C323.81 83.2141 324.512 82.1553 325.397 81.2634C326.281 80.3715 327.332 79.6639 328.489 79.1811C329.646 78.6984 330.885 78.4499 332.137 78.4499L332.137 78.3951Z" fill="#26649D"/>
<path d="M322.61 67.1927L323.491 67.1927C324.618 68.9246 325.919 70.5355 327.374 72C328.827 73.4577 330.423 74.7638 332.137 75.8984L332.137 76.7963C330.885 76.7963 329.646 76.5478 328.489 76.0651C327.332 75.5823 326.281 74.8747 325.397 73.9828C324.512 73.0909 323.81 72.0321 323.332 70.867C322.854 69.7019 322.608 68.4533 322.61 67.1927Z" fill="#26649D"/>
<path d="M311.484 76.7963L311.484 75.8984C314.935 73.6101 317.879 70.6274 320.13 67.1379L321.011 67.1379C321.012 68.3986 320.767 69.6471 320.289 70.8122C319.811 71.9774 319.109 73.0361 318.224 73.9281C317.339 74.82 316.289 75.5276 315.132 76.0103C313.975 76.4931 312.736 76.7416 311.484 76.7416L311.484 76.7963Z" fill="#26649D"/>
</g>
<g opacity="0.5">
<path d="M354.39 78.3951L354.39 79.2931C352.674 80.4339 351.075 81.7434 349.615 83.2024C348.168 84.6658 346.87 86.2728 345.744 87.9988L344.852 87.9988C344.852 85.4517 345.857 83.009 347.645 81.208C349.434 79.4069 351.86 78.3951 354.39 78.3951Z" fill="#26649D"/>
<path d="M344.852 67.1927L345.744 67.1927C346.867 68.9245 348.165 70.5354 349.615 72C351.075 73.4557 352.674 74.7616 354.39 75.8984L354.39 76.7963C351.86 76.7963 349.434 75.7845 347.645 73.9835C345.857 72.1824 344.852 69.7397 344.852 67.1927Z" fill="#26649D"/>
</g>
<g opacity="0.4">
<path d="M365.516 87.9988L364.625 87.9988C362.366 84.5159 359.423 81.5347 355.978 79.2384L355.978 78.3404C358.508 78.3404 360.934 79.3522 362.723 81.1533C364.512 82.9543 365.516 85.397 365.516 87.9441L365.516 87.9988Z" fill="#26649D"/>
<path d="M376.632 78.3952L376.632 79.2931C373.187 81.5858 370.247 84.5678 367.996 88.0536L367.104 88.0536C367.104 85.5084 368.108 83.0674 369.894 81.2667C371.681 79.4659 374.104 78.4528 376.632 78.4499L376.632 78.3952Z" fill="#26649D"/>
<path d="M367.104 67.1927L367.996 67.1927C369.12 68.9246 370.417 70.5355 371.868 72C373.322 73.4577 374.918 74.7638 376.632 75.8984L376.632 76.7964C374.104 76.7935 371.681 75.7804 369.894 73.9797C368.108 72.179 367.104 69.7379 367.104 67.1927Z" fill="#26649D"/>
<path d="M355.978 76.7964L355.978 75.8984C357.692 74.7638 359.288 73.4577 360.742 72C362.196 70.5356 363.497 68.9247 364.625 67.1927L365.516 67.1927C365.516 69.7398 364.512 72.1825 362.723 73.9835C360.934 75.7846 358.508 76.7964 355.978 76.7964Z" fill="#26649D"/>
</g>
<g opacity="0.3">
<path d="M389.368 134.396L390.26 134.396C392.51 137.864 395.446 140.827 398.885 143.102L398.885 144C396.359 143.994 393.938 142.98 392.154 141.179C390.37 139.379 389.368 136.94 389.368 134.396Z" fill="#26649D"/>
<path d="M378.231 144L378.231 143.102C381.682 140.818 384.623 137.834 386.866 134.342L387.758 134.342C387.765 135.606 387.524 136.86 387.049 138.031C386.573 139.202 385.873 140.267 384.988 141.164C384.102 142.061 383.05 142.774 381.89 143.261C380.731 143.747 379.487 143.999 378.231 144V144Z" fill="#26649D"/>
</g>
<g opacity="0.3">
<path d="M433.852 134.396L434.733 134.396C435.866 136.124 437.167 137.734 438.615 139.204C440.069 140.661 441.665 141.967 443.379 143.102L443.379 144C442.127 144 440.887 143.752 439.731 143.269C438.574 142.786 437.523 142.078 436.638 141.186C435.753 140.295 435.052 139.236 434.574 138.071C434.096 136.906 433.85 135.657 433.852 134.396Z" fill="#26649D"/>
<path d="M422.725 144L422.725 143.102C426.177 140.814 429.121 137.831 431.372 134.342L432.264 134.342C432.271 135.607 432.029 136.862 431.553 138.034C431.077 139.205 430.376 140.27 429.489 141.168C428.603 142.065 427.549 142.778 426.388 143.264C425.227 143.75 423.982 144 422.725 144V144Z" fill="#26649D"/>
</g>
<g opacity="0.5">
<path d="M387.758 132.798L386.866 132.798C385.74 131.072 384.442 129.465 382.994 128.001C381.542 126.54 379.946 125.23 378.231 124.092L378.231 123.194C380.759 123.197 383.182 124.21 384.968 126.011C386.755 127.811 387.758 130.252 387.758 132.798Z" fill="#26649D"/>
<path d="M398.885 123.194L398.885 124.092C397.17 125.23 395.574 126.54 394.121 128.001C392.669 129.464 391.368 131.071 390.238 132.798L389.368 132.798C389.368 130.254 390.37 127.815 392.154 126.015C393.938 124.214 396.359 123.2 398.885 123.194Z" fill="#26649D"/>
<path d="M389.368 112.003L390.26 112.003C392.521 115.466 395.464 118.425 398.906 120.697L398.906 121.595C397.654 121.597 396.414 121.35 395.257 120.868C394.1 120.387 393.048 119.68 392.162 118.789C391.276 117.899 390.574 116.841 390.094 115.676C389.615 114.511 389.368 113.263 389.368 112.003Z" fill="#26649D"/>
<path d="M378.231 121.595L378.231 120.708C379.943 119.566 381.538 118.257 382.994 116.799C384.442 115.335 385.74 113.729 386.866 112.003L387.758 112.003C387.758 114.547 386.754 116.987 384.968 118.786C383.181 120.585 380.758 121.595 378.231 121.595Z" fill="#26649D"/>
</g>
<g opacity="0.2">
<path d="M410.033 132.798L409.141 132.798C408.014 131.072 406.717 129.465 405.269 128.001C403.812 126.54 402.212 125.23 400.494 124.092L400.494 123.194C403.024 123.194 405.45 124.206 407.239 126.007C409.028 127.808 410.033 130.251 410.033 132.798Z" fill="#26649D"/>
<path d="M421.137 123.194L421.137 124.092C419.419 125.23 417.82 126.54 416.363 128.001C414.915 129.465 413.618 131.072 412.491 132.798L411.599 132.798C411.599 130.251 412.604 127.808 414.393 126.007C416.181 124.206 418.608 123.194 421.137 123.194Z" fill="#26649D"/>
<path d="M411.599 112.003L412.491 112.003C414.744 115.472 417.688 118.433 421.137 120.697L421.137 121.595C419.885 121.597 418.645 121.35 417.488 120.868C416.331 120.387 415.279 119.68 414.393 118.789C413.507 117.899 412.805 116.841 412.325 115.676C411.846 114.511 411.599 113.263 411.599 112.003Z" fill="#26649D"/>
<path d="M400.473 121.595L400.473 120.708C402.188 119.567 403.788 118.257 405.247 116.799C406.695 115.335 407.992 113.729 409.119 112.003L410.033 112.003C410.033 113.263 409.786 114.511 409.306 115.676C408.827 116.841 408.124 117.899 407.238 118.789C406.352 119.68 405.301 120.387 404.144 120.868C402.986 121.35 401.746 121.597 400.494 121.595L400.473 121.595Z" fill="#26649D"/>
</g>
<g opacity="0.5">
<path d="M456.093 134.396L456.985 134.396C459.242 137.866 462.186 140.83 465.632 143.102L465.632 144C463.102 144 460.676 142.988 458.887 141.187C457.098 139.386 456.093 136.943 456.093 134.396Z" fill="#26649D"/>
<path d="M444.967 144L444.967 143.102C446.687 141.971 448.287 140.664 449.742 139.204C451.19 137.737 452.487 136.126 453.614 134.396L454.505 134.396C454.505 136.943 453.501 139.386 451.712 141.187C449.923 142.988 447.497 144 444.967 144V144Z" fill="#26649D"/>
</g>
<g opacity="0.3">
<path d="M489.429 144L489.429 143.102C492.881 140.818 495.822 137.834 498.065 134.342L498.957 134.342C498.965 135.607 498.725 136.861 498.25 138.033C497.775 139.204 497.075 140.269 496.189 141.167C495.304 142.065 494.25 142.777 493.09 143.264C491.93 143.75 490.686 144 489.429 144V144Z" fill="#26649D"/>
</g>
<g opacity="0.4">
<path d="M454.505 132.798L453.614 132.798C452.487 131.072 451.19 129.465 449.742 128.001C448.287 126.537 446.687 125.227 444.967 124.092L444.967 123.194C447.497 123.194 449.923 124.206 451.712 126.007C453.501 127.808 454.505 130.251 454.505 132.798Z" fill="#26649D"/>
<path d="M465.632 123.194L465.632 124.092C463.917 125.23 462.321 126.54 460.868 128.001C459.416 129.464 458.116 131.071 456.985 132.798L456.093 132.798C456.093 130.251 457.098 127.808 458.887 126.007C460.676 124.206 463.102 123.194 465.632 123.194Z" fill="#26649D"/>
<path d="M456.093 112.003L456.985 112.003C459.247 115.466 462.189 118.425 465.632 120.697L465.632 121.595C464.38 121.597 463.14 121.35 461.982 120.868C460.825 120.387 459.774 119.68 458.888 118.789C458.002 117.899 457.299 116.841 456.82 115.676C456.34 114.511 456.093 113.263 456.093 112.003Z" fill="#26649D"/>
<path d="M444.967 121.595L444.967 120.708C448.419 118.42 451.363 115.437 453.614 111.948L454.505 111.948C454.505 113.208 454.259 114.457 453.779 115.621C453.3 116.786 452.597 117.844 451.711 118.735C450.825 119.626 449.774 120.332 448.616 120.813C447.459 121.295 446.219 121.542 444.967 121.54L444.967 121.595Z" fill="#26649D"/>
</g>
<g opacity="0.5">
<path d="M476.758 132.798L475.866 132.798C474.75 131.073 473.463 129.466 472.027 128.001C470.574 126.54 468.978 125.23 467.263 124.092L467.263 123.194C469.793 123.194 472.219 124.206 474.008 126.007C475.797 127.808 476.802 130.251 476.802 132.798L476.758 132.798Z" fill="#26649D"/>
<path d="M487.884 123.194L487.884 124.092C486.164 125.227 484.564 126.537 483.11 128.001C481.662 129.465 480.365 131.072 479.238 132.798L478.346 132.798C478.346 130.251 479.351 127.808 481.14 126.007C482.929 124.206 485.355 123.194 487.884 123.194Z" fill="#26649D"/>
<path d="M478.346 112.003L479.238 112.003C480.365 113.729 481.662 115.335 483.11 116.799C484.564 118.26 486.164 119.566 487.884 120.697L487.884 121.595C486.632 121.597 485.392 121.35 484.235 120.868C483.078 120.387 482.026 119.68 481.14 118.789C480.255 117.899 479.552 116.841 479.072 115.676C478.593 114.511 478.346 113.263 478.346 112.003Z" fill="#26649D"/>
<path d="M467.22 121.595L467.22 120.708C468.947 119.569 470.557 118.259 472.027 116.799C473.479 115.336 474.78 113.729 475.91 112.003L476.802 112.003C476.802 113.263 476.555 114.511 476.075 115.676C475.596 116.841 474.893 117.899 474.007 118.789C473.121 119.68 472.07 120.387 470.913 120.868C469.755 121.35 468.515 121.597 467.263 121.595L467.22 121.595Z" fill="#26649D"/>
</g>
<g opacity="0.3">
<path d="M499 132.798L498.13 132.798C496.996 131.074 495.695 129.467 494.247 128.001C492.777 126.537 491.163 125.227 489.429 124.092L489.429 123.194C490.681 123.194 491.921 123.442 493.078 123.925C494.234 124.408 495.285 125.116 496.17 126.007C497.055 126.899 497.756 127.958 498.234 129.123C498.713 130.288 498.958 131.537 498.957 132.798L499 132.798Z" fill="#26649D"/>
<path d="M489.429 121.595L489.429 120.708C491.141 119.566 492.737 118.257 494.193 116.799C495.663 115.339 496.982 113.732 498.13 112.002L499.022 112.002C499.025 113.269 498.778 114.523 498.296 115.692C497.814 116.862 497.107 117.923 496.215 118.815C495.322 119.708 494.263 120.413 493.098 120.89C491.934 121.367 490.686 121.607 489.429 121.595Z" fill="#26649D"/>
</g>
<g opacity="0.6">
<path d="M387.758 110.404L386.866 110.404C385.743 108.672 384.445 107.061 382.994 105.596C381.541 104.139 379.945 102.833 378.231 101.698L378.231 100.8C380.759 100.803 383.182 101.816 384.968 103.617C386.755 105.417 387.758 107.859 387.758 110.404Z" fill="#26649D"/>
<path d="M398.885 100.8L398.885 101.698C397.17 102.833 395.574 104.139 394.121 105.596C392.667 107.061 391.366 108.672 390.238 110.404L389.368 110.404C389.368 107.857 390.373 105.414 392.162 103.613C393.95 101.812 396.377 100.8 398.906 100.8L398.885 100.8Z" fill="#26649D"/>
<path d="M389.368 89.5976L390.26 89.5976C392.519 93.0805 395.461 96.0617 398.906 98.358L398.906 99.256C397.649 99.256 396.404 99.0058 395.244 98.5197C394.083 98.0337 393.029 97.3214 392.142 96.4238C391.256 95.5262 390.554 94.461 390.078 93.2896C389.602 92.1181 389.361 90.8633 389.368 89.5976Z" fill="#26649D"/>
<path d="M378.231 99.2012L378.231 98.3033C381.676 96.0106 384.615 93.0286 386.866 89.5428L387.758 89.5428C387.758 92.088 386.755 94.529 384.968 96.3298C383.182 98.1305 380.759 99.1436 378.231 99.1465L378.231 99.2012Z" fill="#26649D"/>
</g>
<g opacity="0.7">
<path d="M410.033 110.404L409.141 110.404C408.017 108.672 406.72 107.061 405.269 105.596C403.812 104.138 402.212 102.832 400.494 101.698L400.494 100.8C403.024 100.8 405.45 101.812 407.239 103.613C409.028 105.414 410.033 107.857 410.033 110.404Z" fill="#26649D"/>
<path d="M421.137 100.8L421.137 101.698C419.419 102.832 417.82 104.138 416.363 105.596C414.912 107.061 413.614 108.672 412.491 110.404L411.599 110.404C411.599 107.857 412.604 105.414 414.393 103.613C416.181 101.812 418.608 100.8 421.137 100.8Z" fill="#26649D"/>
<path d="M411.599 89.5976L412.491 89.5976C414.742 93.087 417.686 96.0697 421.137 98.358L421.137 99.256C418.608 99.256 416.181 98.2442 414.393 96.4431C412.604 94.6421 411.599 92.1994 411.599 89.6523L411.599 89.5976Z" fill="#26649D"/>
<path d="M400.473 99.2012L400.473 98.3033C403.944 96.0209 406.907 93.0378 409.173 89.5428L410.033 89.5428C410.033 92.0899 409.028 94.5326 407.239 96.3336C405.45 98.1347 403.024 99.1465 400.494 99.1465L400.473 99.2012Z" fill="#26649D"/>
</g>
<g opacity="0.7">
<path d="M432.264 110.404L431.372 110.404C430.244 108.672 428.943 107.061 427.489 105.596C426.036 104.139 424.44 102.833 422.725 101.698L422.725 100.8C425.255 100.8 427.681 101.812 429.47 103.613C431.259 105.414 432.264 107.857 432.264 110.404Z" fill="#26649D"/>
<path d="M443.379 100.8L443.379 101.698C441.665 102.833 440.069 104.139 438.615 105.596C437.164 107.061 435.867 108.672 434.743 110.404L433.852 110.404C433.85 109.143 434.096 107.894 434.574 106.729C435.052 105.564 435.753 104.505 436.638 103.614C437.523 102.722 438.574 102.014 439.731 101.531C440.887 101.049 442.127 100.8 443.379 100.8Z" fill="#26649D"/>
<path d="M433.852 89.5976L434.733 89.5976C435.867 91.3214 437.167 92.928 438.615 94.3939C440.068 95.8555 441.664 97.1652 443.379 98.3033L443.379 99.2012C442.127 99.2012 440.887 98.9527 439.731 98.47C438.574 97.9872 437.523 97.2797 436.638 96.3877C435.753 95.4958 435.052 94.437 434.574 93.2719C434.096 92.1068 433.85 90.8582 433.852 89.5976Z" fill="#26649D"/>
<path d="M422.725 99.2012L422.725 98.3033C426.17 96.007 429.113 93.0258 431.372 89.5428L432.264 89.5428C432.264 92.0899 431.259 94.5326 429.47 96.3336C427.681 98.1347 425.255 99.1465 422.725 99.1465L422.725 99.2012Z" fill="#26649D"/>
</g>
<g opacity="0.3">
<path d="M387.758 87.9988L386.866 87.9988C384.615 84.5131 381.676 81.5311 378.231 79.2384L378.231 78.3404C380.759 78.3433 383.182 79.3564 384.968 81.1571C386.755 82.9579 387.758 85.3989 387.758 87.9441L387.758 87.9988Z" fill="#26649D"/>
<path d="M398.885 78.3952L398.885 79.2931C395.44 81.5895 392.497 84.5706 390.238 88.0536L389.368 88.0536C389.368 85.5065 390.373 83.0638 392.162 81.2628C393.95 79.4617 396.377 78.4499 398.906 78.4499L398.885 78.3952Z" fill="#26649D"/>
<path d="M389.368 67.1927L390.26 67.1927C391.387 68.9247 392.688 70.5356 394.143 72C395.596 73.4577 397.192 74.7638 398.906 75.8984L398.906 76.7964C396.377 76.7964 393.95 75.7846 392.162 73.9835C390.373 72.1825 389.368 69.7398 389.368 67.1927Z" fill="#26649D"/>
<path d="M378.231 76.7964L378.231 75.8984C379.945 74.7638 381.541 73.4577 382.994 72C384.445 70.5355 385.743 68.9246 386.866 67.1927L387.758 67.1927C387.758 69.7379 386.755 72.179 384.968 73.9797C383.182 75.7804 380.759 76.7935 378.231 76.7964Z" fill="#26649D"/>
</g>
<g opacity="0.5">
<path d="M410.033 87.9988L409.141 87.9988C406.874 84.5039 403.911 81.5208 400.44 79.2384L400.44 78.3404C401.702 78.3332 402.952 78.578 404.119 79.0608C405.287 79.5437 406.347 80.2548 407.239 81.1531C408.131 82.0514 408.838 83.1191 409.317 84.2942C409.797 85.4692 410.04 86.7285 410.033 87.9988Z" fill="#26649D"/>
<path d="M421.137 78.3952L421.137 79.2931C417.686 81.5814 414.742 84.5641 412.491 88.0536L411.599 88.0536C411.599 85.5065 412.604 83.0638 414.393 81.2628C416.181 79.4617 418.608 78.4499 421.137 78.4499L421.137 78.3952Z" fill="#26649D"/>
<path d="M411.599 67.1927L412.491 67.1927C413.614 68.9246 414.912 70.5355 416.363 72C417.82 73.4583 419.419 74.7644 421.137 75.8984L421.137 76.7964C418.608 76.7964 416.181 75.7846 414.393 73.9835C412.604 72.1825 411.599 69.7398 411.599 67.1927Z" fill="#26649D"/>
<path d="M400.473 76.7964L400.473 75.8984C402.191 74.7644 403.79 73.4583 405.247 72C406.698 70.5355 407.996 68.9246 409.119 67.1927L410.033 67.1927C410.033 69.7398 409.028 72.1825 407.239 73.9835C405.45 75.7846 403.024 76.7964 400.494 76.7964L400.473 76.7964Z" fill="#26649D"/>
</g>
<g opacity="0.7">
<path d="M432.264 87.9988L431.372 87.9988C429.113 84.5159 426.17 81.5347 422.725 79.2384L422.725 78.3404C425.255 78.3404 427.681 79.3522 429.47 81.1533C431.259 82.9543 432.264 85.397 432.264 87.9441L432.264 87.9988Z" fill="#26649D"/>
<path d="M443.379 78.3952L443.379 79.2931C439.934 81.5858 436.995 84.5678 434.743 88.0536L433.852 88.0536C433.85 86.7929 434.096 85.5444 434.574 84.3793C435.052 83.2142 435.753 82.1554 436.638 81.2634C437.523 80.3715 438.574 79.6639 439.731 79.1812C440.887 78.6984 442.127 78.4499 443.379 78.4499L443.379 78.3952Z" fill="#26649D"/>
<path d="M433.852 67.1927L434.733 67.1927C436.999 70.6877 439.962 73.6708 443.433 75.9532L443.433 76.8511C442.181 76.8511 440.942 76.6027 439.785 76.1199C438.628 75.6371 437.578 74.9296 436.693 74.0376C435.808 73.1457 435.106 72.0869 434.628 70.9218C434.15 69.7567 433.905 68.5081 433.906 67.2475L433.852 67.1927Z" fill="#26649D"/>
<path d="M422.725 76.7964L422.725 75.8984C424.44 74.7638 426.036 73.4577 427.489 72C428.943 70.5356 430.244 68.9247 431.372 67.1927L432.264 67.1927C432.264 69.7398 431.259 72.1825 429.47 73.9835C427.681 75.7846 425.255 76.7964 422.725 76.7964Z" fill="#26649D"/>
</g>
<g opacity="0.5">
<path d="M454.505 110.404L453.614 110.404C451.371 106.908 448.425 103.924 444.967 101.643L444.967 100.745C447.497 100.745 449.923 101.757 451.712 103.558C453.501 105.359 454.505 107.802 454.505 110.349L454.505 110.404Z" fill="#26649D"/>
<path d="M465.632 100.8L465.632 101.698C463.918 102.833 462.321 104.139 460.868 105.596C459.414 107.061 458.113 108.672 456.985 110.404L456.093 110.404C456.093 107.857 457.098 105.414 458.887 103.613C460.676 101.812 463.102 100.8 465.632 100.8Z" fill="#26649D"/>
<path d="M456.093 89.5976L456.985 89.5976C459.244 93.0805 462.187 96.0617 465.632 98.358L465.632 99.256C463.102 99.256 460.676 98.2442 458.887 96.4431C457.098 94.6421 456.093 92.1994 456.093 89.6523L456.093 89.5976Z" fill="#26649D"/>
<path d="M444.967 99.2012L444.967 98.3033C446.687 97.1681 448.287 95.8581 449.742 94.3939C451.19 92.9305 452.487 91.3236 453.614 89.5976L454.505 89.5976C454.505 92.1446 453.501 94.5874 451.712 96.3884C449.923 98.1894 447.497 99.2012 444.967 99.2012Z" fill="#26649D"/>
</g>
<g opacity="0.2">
<path d="M476.758 110.404L475.866 110.404C474.752 108.674 473.466 107.063 472.027 105.596C470.573 104.139 468.977 102.833 467.263 101.698L467.263 100.8C469.793 100.8 472.219 101.812 474.008 103.613C475.797 105.414 476.802 107.857 476.802 110.404L476.758 110.404Z" fill="#26649D"/>
<path d="M487.884 100.8L487.884 101.698C484.426 103.978 481.481 106.963 479.238 110.458L478.346 110.458C478.346 107.911 479.351 105.469 481.14 103.668C482.929 101.867 485.355 100.855 487.884 100.855L487.884 100.8Z" fill="#26649D"/>
<path d="M478.346 89.5976L479.238 89.5976C480.365 91.3237 481.662 92.9306 483.11 94.394C484.564 95.8581 486.164 97.1681 487.884 98.3033L487.884 99.2013C485.355 99.2013 482.929 98.1895 481.14 96.3885C479.351 94.5874 478.346 92.1447 478.346 89.5976Z" fill="#26649D"/>
<path d="M467.22 99.2013L467.22 98.3033C470.665 96.007 473.607 93.0258 475.866 89.5429L476.758 89.5429C476.758 92.0899 475.753 94.5327 473.964 96.3337C472.176 98.1347 469.749 99.1465 467.22 99.1465L467.22 99.2013Z" fill="#26649D"/>
</g>
<g opacity="0.5">
<path d="M476.758 87.9988L475.866 87.9988C473.607 84.5159 470.665 81.5347 467.22 79.2384L467.22 78.3404C469.749 78.3404 472.176 79.3522 473.964 81.1533C475.753 82.9543 476.758 85.397 476.758 87.9441L476.758 87.9988Z" fill="#26649D"/>
<path d="M487.884 78.3952L487.884 79.2931C486.164 80.4284 484.564 81.7383 483.11 83.2025C481.662 84.6659 480.365 86.2728 479.238 87.9988L478.346 87.9988C478.346 85.4518 479.351 83.0091 481.14 81.208C482.929 79.407 485.355 78.3952 487.884 78.3952Z" fill="#26649D"/>
<path d="M478.346 67.1927L479.238 67.1927C481.481 70.6886 484.426 73.6728 487.884 75.9532L487.884 76.8511C485.355 76.8511 482.929 75.8393 481.14 74.0383C479.351 72.2373 478.346 69.7945 478.346 67.2475L478.346 67.1927Z" fill="#26649D"/>
<path d="M467.22 76.7964L467.22 75.8984C468.949 74.7663 470.56 73.4601 472.027 72C473.481 70.5356 474.782 68.9247 475.91 67.1927L476.802 67.1927C476.802 69.7398 475.797 72.1825 474.008 73.9835C472.219 75.7846 469.793 76.7964 467.263 76.7964L467.22 76.7964Z" fill="#26649D"/>
</g>
<g opacity="0.2">
<path d="M499 87.9988L498.13 87.9988C496.996 86.2751 495.695 84.6685 494.247 83.2025C492.777 81.738 491.163 80.4282 489.429 79.2931L489.429 78.3952C490.681 78.3952 491.921 78.6437 493.078 79.1264C494.234 79.6092 495.285 80.3168 496.17 81.2087C497.055 82.1006 497.756 83.1594 498.234 84.3245C498.713 85.4896 498.958 86.7382 498.957 87.9988L499 87.9988Z" fill="#26649D"/>
<path d="M489.429 76.7964L489.429 75.8985C491.143 74.7639 492.739 73.4578 494.193 72.0001C495.666 70.5387 496.986 68.9277 498.13 67.1928L499.022 67.1928C499.023 68.459 498.776 69.7129 498.293 70.8823C497.811 72.0517 497.104 73.1135 496.212 74.0062C495.32 74.899 494.262 75.6052 493.098 76.0841C491.933 76.563 490.687 76.8051 489.429 76.7964Z" fill="#26649D"/>
</g>
<g opacity="0.3">
<path d="M11.1263 134.396L12.0182 134.396C13.1445 136.126 14.4417 137.737 15.8901 139.204C17.3447 140.664 18.9447 141.971 20.6648 143.102L20.6648 144C18.135 144 15.7089 142.988 13.9201 141.187C12.1313 139.386 11.1263 136.943 11.1263 134.396Z" fill="#26649D"/>
<path d="M0 144L7.85012e-08 143.102C1.71429 141.967 3.31032 140.661 4.76378 139.204C6.23434 137.739 7.5535 136.129 8.70096 134.396L9.59281 134.396C9.5871 135.661 9.33231 136.913 8.8432 138.078C8.35408 139.244 7.64033 140.3 6.74324 141.186C5.85852 142.079 4.80744 142.787 3.65028 143.27C2.49311 143.753 1.25264 144.001 0 144H0Z" fill="#26649D"/>
</g>
<path d="M33.3682 134.396L34.26 134.396C36.5328 137.872 39.4952 140.836 42.961 143.102L42.961 144C40.4312 144 38.0051 142.988 36.2163 141.187C34.4275 139.386 33.4225 136.943 33.4225 134.396L33.3682 134.396Z" fill="#26649D"/>
<path d="M22.2527 144L22.2527 143.102C23.967 141.967 25.563 140.661 27.0165 139.204C28.4648 137.737 29.7621 136.126 30.8884 134.396L31.7802 134.396C31.7817 135.657 31.5363 136.906 31.0581 138.071C30.58 139.236 29.8784 140.295 28.9935 141.186C28.1087 142.078 27.0579 142.786 25.9012 143.269C24.7446 143.752 23.5048 144 22.2527 144V144Z" fill="#26649D"/>
<g opacity="0.3">
<path d="M9.53843 132.798L8.70096 132.798C7.57064 131.071 6.26975 129.464 4.81816 128.001C3.34811 126.537 1.73372 125.227 7.61077e-07 124.092L8.39578e-07 123.194C1.25264 123.193 2.49311 123.441 3.65028 123.924C4.80744 124.407 5.85852 125.115 6.74324 126.008C7.63002 126.899 8.33341 127.957 8.81307 129.122C9.29274 130.287 9.53923 131.536 9.53843 132.798Z" fill="#26649D"/>
<path d="M20.6648 123.194L20.6648 124.092C18.9446 125.227 17.3447 126.537 15.8901 128.001C14.4423 129.465 13.1451 131.072 12.0182 132.798L11.1263 132.798C11.1263 130.251 12.1313 127.808 13.9201 126.007C15.7089 124.206 18.135 123.194 20.6648 123.194Z" fill="#26649D"/>
</g>
<path d="M31.7802 132.798L30.8993 132.798C29.7652 131.074 28.4646 129.467 27.0165 128.001C25.5635 126.54 23.9675 125.23 22.2527 124.092L22.2527 123.194C23.5048 123.194 24.7446 123.442 25.9012 123.925C27.0579 124.408 28.1087 125.116 28.9935 126.007C29.8784 126.899 30.58 127.958 31.0581 129.123C31.5363 130.288 31.7817 131.537 31.7802 132.798Z" fill="#26649D"/>
<path d="M42.9066 123.194L42.9066 124.092C41.1918 125.23 39.5957 126.54 38.1428 128.001C36.6912 129.464 35.3903 131.071 34.26 132.798L33.3682 132.798C33.3682 130.251 34.3731 127.808 36.1619 126.007C37.9507 124.206 40.3768 123.194 42.9066 123.194Z" fill="#26649D"/>
<path d="M55.6209 134.396L56.5562 134.396C58.7926 137.868 61.7225 140.833 65.1593 143.102L65.1593 144C62.6295 144 60.2034 142.988 58.4146 141.187C56.6258 139.386 55.6209 136.943 55.6209 134.396Z" fill="#26649D"/>
<path d="M44.4945 144L44.4945 143.102C47.9722 140.828 50.9366 137.843 53.1955 134.342L54.0873 134.342C54.0945 135.612 53.8513 136.871 53.3718 138.046C52.8923 139.221 52.1859 140.289 51.2937 141.187C50.4015 142.086 49.3411 142.797 48.174 143.28C47.0069 143.762 45.7563 144.007 44.4945 144Z" fill="#26649D"/>
<path d="M100.115 134.396L101.007 134.396C103.264 137.866 106.208 140.83 109.654 143.102L109.654 144C107.124 144 104.698 142.988 102.909 141.187C101.12 139.386 100.115 136.943 100.115 134.396Z" fill="#26649D"/>
<path d="M88.989 144L88.989 143.102C90.7091 141.971 92.3091 140.664 93.7637 139.204C95.212 137.737 96.5093 136.126 97.6356 134.396L98.5274 134.396C98.5274 136.943 97.5225 139.386 95.7337 141.187C93.9449 142.988 91.5188 144 88.989 144V144Z" fill="#26649D"/>
<path d="M76.2856 132.798L75.3938 132.798C74.2635 131.071 72.9626 129.464 71.511 128.001C70.058 126.54 68.462 125.23 66.7472 124.092L66.7472 123.194C69.2769 123.194 71.7031 124.206 73.4919 126.007C75.2807 127.808 76.2856 130.251 76.2856 132.798Z" fill="#26649D"/>
<path d="M87.4011 123.194L87.4011 124.092C85.6939 125.231 84.1052 126.541 82.6591 128.001C81.2113 129.465 79.914 131.072 78.7871 132.798L77.8735 132.798C77.8721 131.537 78.1175 130.288 78.5957 129.123C79.0738 127.958 79.7754 126.899 80.6603 126.007C81.5451 125.116 82.5959 124.408 83.7525 123.925C84.9092 123.442 86.149 123.194 87.4011 123.194Z" fill="#26649D"/>
<path d="M77.8735 112.002L78.7545 112.002C79.8954 113.727 81.2033 115.334 82.6591 116.799C84.1125 118.257 85.7085 119.563 87.4228 120.697L87.4228 121.595C86.1709 121.598 84.9306 121.352 83.7734 120.871C82.6162 120.39 81.5647 119.683 80.6794 118.792C79.7942 117.901 79.0925 116.842 78.6147 115.677C78.1369 114.512 77.8924 113.263 77.8953 112.002L77.8735 112.002Z" fill="#26649D"/>
<path d="M66.7472 121.595L66.7472 120.708C68.4593 119.566 70.055 118.257 71.511 116.799C72.9626 115.336 74.2635 113.729 75.3938 112.002L76.2856 112.002C76.2856 113.263 76.0388 114.511 75.5593 115.676C75.0799 116.84 74.3771 117.898 73.4912 118.789C72.6054 119.68 71.5538 120.387 70.3966 120.868C69.2394 121.349 67.9993 121.597 66.7472 121.595Z" fill="#26649D"/>
<g opacity="0.5">
<path d="M98.5274 132.798L97.6356 132.798C96.5087 131.072 95.2115 129.465 93.7637 128.001C92.3091 126.537 90.7092 125.227 88.989 124.092L88.989 123.194C91.5188 123.194 93.9449 124.206 95.7337 126.007C97.5225 127.808 98.5274 130.251 98.5274 132.798Z" fill="#26649D"/>
<path d="M109.654 123.194L109.654 124.092C107.939 125.23 106.343 126.54 104.89 128.001C103.438 129.464 102.138 131.071 101.007 132.798L100.115 132.798C100.115 130.251 101.12 127.808 102.909 126.007C104.698 124.206 107.124 123.194 109.654 123.194Z" fill="#26649D"/>
<path d="M100.115 112.003L101.007 112.003C103.268 115.466 106.211 118.425 109.654 120.697L109.654 121.595C108.402 121.597 107.162 121.35 106.004 120.868C104.847 120.387 103.796 119.68 102.91 118.789C102.024 117.899 101.321 116.841 100.842 115.676C100.362 114.511 100.115 113.263 100.115 112.003Z" fill="#26649D"/>
<path d="M88.989 121.595L88.989 120.708C92.4602 118.426 95.4231 115.443 97.69 111.948L98.5818 111.948C98.5818 113.208 98.335 114.457 97.8555 115.621C97.3761 116.786 96.6733 117.844 95.7874 118.735C94.9016 119.626 93.85 120.332 92.6928 120.813C91.5356 121.295 90.2955 121.542 89.0434 121.54L88.989 121.595Z" fill="#26649D"/>
</g>
<path d="M109.654 100.8L109.654 101.698C107.94 102.833 106.344 104.139 104.89 105.596C103.436 107.061 102.135 108.672 101.007 110.404L100.115 110.404C100.115 107.857 101.12 105.414 102.909 103.613C104.698 101.812 107.124 100.8 109.654 100.8Z" fill="#26649D"/>
<path d="M100.115 89.5976L101.007 89.5976C103.266 93.0805 106.209 96.0617 109.654 98.358L109.654 99.256C107.124 99.256 104.698 98.2442 102.909 96.4431C101.12 94.6421 100.115 92.1994 100.115 89.6523L100.115 89.5976Z" fill="#26649D"/>
<path d="M109.654 78.3951L109.654 79.2931C106.209 81.5894 103.266 84.5706 101.007 88.0535L100.115 88.0535C100.115 85.5065 101.12 83.0638 102.909 81.2627C104.698 79.4617 107.124 78.4499 109.654 78.4499L109.654 78.3951Z" fill="#26649D"/>
<g opacity="0.2">
<path d="M122.368 134.396L123.26 134.396C124.386 136.126 125.684 137.737 127.132 139.204C128.587 140.664 130.187 141.971 131.907 143.102L131.907 144C129.377 144 126.951 142.988 125.162 141.187C123.373 139.386 122.368 136.943 122.368 134.396Z" fill="#26649D"/>
<path d="M111.242 144L111.242 143.102C114.713 140.82 117.676 137.837 119.943 134.342L120.835 134.342C120.842 135.612 120.599 136.871 120.119 138.046C119.64 139.221 118.933 140.289 118.041 141.187C117.149 142.086 116.088 142.797 114.921 143.28C113.754 143.762 112.504 144.007 111.242 144Z" fill="#26649D"/>
</g>
<g opacity="0.4">
<path d="M166.863 134.396L167.755 134.396C168.881 136.129 170.183 137.74 171.637 139.204C173.091 140.661 174.687 141.967 176.401 143.102L176.401 144C173.871 144 171.445 142.988 169.656 141.187C167.868 139.386 166.863 136.943 166.863 134.396Z" fill="#26649D"/>
<path d="M155.736 144L155.736 143.102C159.194 140.822 162.14 137.838 164.383 134.342L165.318 134.342C165.325 135.611 165.083 136.869 164.604 138.044C164.125 139.218 163.42 140.285 162.528 141.183C161.637 142.082 160.578 142.793 159.413 143.276C158.247 143.76 156.997 144.006 155.736 144Z" fill="#26649D"/>
</g>
<path d="M120.78 132.798L119.888 132.798C118.758 131.071 117.457 129.464 116.006 128.001C114.553 126.54 112.957 125.23 111.242 124.092L111.242 123.194C113.772 123.194 116.198 124.206 117.987 126.007C119.775 127.808 120.78 130.251 120.78 132.798Z" fill="#26649D"/>
<path d="M131.907 123.194L131.907 124.092C130.186 125.227 128.586 126.537 127.132 128.001C125.684 129.465 124.387 131.072 123.26 132.798L122.368 132.798C122.368 130.251 123.373 127.808 125.162 126.007C126.951 124.206 129.377 123.194 131.907 123.194Z" fill="#26649D"/>
<path d="M122.368 112.002L123.26 112.002C124.387 113.728 125.684 115.335 127.132 116.799C128.587 118.26 130.187 119.566 131.907 120.697L131.907 121.595C130.654 121.597 129.414 121.349 128.257 120.868C127.1 120.387 126.048 119.68 125.163 118.789C124.277 117.898 123.574 116.84 123.094 115.676C122.615 114.511 122.368 113.263 122.368 112.002Z" fill="#26649D"/>
<path d="M111.242 121.595L111.242 120.708C112.954 119.566 114.55 118.257 116.006 116.799C117.457 115.336 118.758 113.729 119.888 112.002L120.78 112.002C120.78 113.263 120.533 114.511 120.054 115.676C119.574 116.84 118.872 117.898 117.986 118.789C117.1 119.68 116.048 120.387 114.891 120.868C113.734 121.349 112.494 121.597 111.242 121.595Z" fill="#26649D"/>
<g opacity="0.2">
<path d="M143.022 132.798L142.141 132.798C141.011 131.071 139.71 129.464 138.258 128.001C136.805 126.54 135.209 125.23 133.495 124.092L133.495 123.194C134.747 123.194 135.986 123.442 137.143 123.925C138.3 124.408 139.35 125.116 140.235 126.007C141.12 126.899 141.822 127.958 142.3 129.123C142.778 130.288 143.023 131.537 143.022 132.798Z" fill="#26649D"/>
<path d="M154.148 123.194L154.148 124.092C152.434 125.23 150.838 126.54 149.385 128.001C147.933 129.464 146.632 131.071 145.502 132.798L144.653 132.798C144.651 130.257 145.649 127.819 147.429 126.019C149.209 124.219 151.625 123.203 154.148 123.194Z" fill="#26649D"/>
<path d="M144.653 112.002L145.534 112.002C147.796 115.466 150.739 118.425 154.181 120.697L154.181 121.595C152.929 121.598 151.689 121.352 150.532 120.871C149.374 120.39 148.323 119.683 147.438 118.792C146.552 117.901 145.851 116.842 145.373 115.677C144.895 114.512 144.651 113.263 144.653 112.002Z" fill="#26649D"/>
<path d="M133.495 121.595L133.495 120.708C135.207 119.566 136.802 118.257 138.258 116.799C139.71 115.336 141.011 113.729 142.141 112.002L143.022 112.002C143.025 113.263 142.78 114.512 142.303 115.677C141.825 116.842 141.123 117.901 140.238 118.792C139.353 119.683 138.301 120.39 137.144 120.871C135.987 121.352 134.746 121.598 133.495 121.595Z" fill="#26649D"/>
</g>
<path d="M165.318 132.798L164.426 132.798C163.299 131.072 162.002 129.465 160.554 128.001C159.098 126.54 157.498 125.23 155.78 124.092L155.78 123.194C158.31 123.194 160.736 124.206 162.524 126.007C164.313 127.808 165.318 130.251 165.318 132.798Z" fill="#26649D"/>
<path d="M176.401 123.194L176.401 124.092C174.686 125.23 173.09 126.54 171.637 128.001C170.183 129.462 168.882 131.069 167.755 132.798L166.863 132.798C166.863 130.251 167.868 127.808 169.656 126.007C171.445 124.206 173.871 123.194 176.401 123.194Z" fill="#26649D"/>
<path d="M166.863 112.002L167.755 112.002C168.882 113.731 170.183 115.338 171.637 116.799C173.091 118.256 174.687 119.563 176.401 120.697L176.401 121.595C175.149 121.597 173.909 121.349 172.752 120.868C171.595 120.387 170.543 119.68 169.657 118.789C168.771 117.898 168.068 116.84 167.589 115.676C167.109 114.511 166.863 113.263 166.863 112.002Z" fill="#26649D"/>
<path d="M155.736 121.595L155.736 120.708C157.452 119.567 159.051 118.257 160.511 116.799C161.959 115.335 163.256 113.728 164.383 112.002L165.318 112.002C165.318 113.263 165.071 114.511 164.592 115.676C164.112 116.84 163.41 117.898 162.524 118.789C161.638 119.68 160.586 120.387 159.429 120.868C158.272 121.349 157.032 121.597 155.78 121.595L155.736 121.595Z" fill="#26649D"/>
<g opacity="0.4">
<path d="M189.115 134.396L190.007 134.396C192.256 137.869 195.197 140.833 198.643 143.102L198.643 144C196.115 143.997 193.692 142.984 191.905 141.183C190.119 139.383 189.115 136.941 189.115 134.396Z" fill="#26649D"/>
<path d="M177.989 144L177.989 143.102C181.441 140.814 184.385 137.831 186.636 134.342L187.527 134.342C187.535 135.607 187.293 136.862 186.817 138.034C186.341 139.205 185.639 140.27 184.753 141.168C183.867 142.065 182.813 142.778 181.652 143.264C180.491 143.75 179.246 144 177.989 144V144Z" fill="#26649D"/>
</g>
<path d="M211.357 134.396L212.249 134.396C214.506 137.866 217.45 140.83 220.896 143.102L220.896 144C218.366 144 215.94 142.988 214.151 141.187C212.362 139.386 211.357 136.943 211.357 134.396Z" fill="#26649D"/>
<path d="M200.242 144L200.242 143.102C203.693 140.818 206.634 137.834 208.877 134.342L209.769 134.342C209.778 135.607 209.538 136.861 209.063 138.033C208.588 139.204 207.887 140.269 207.002 141.167C206.116 142.065 205.063 142.777 203.903 143.264C202.743 143.75 201.498 144 200.242 144V144Z" fill="#26649D"/>
<path d="M209.769 132.798L208.877 132.798C207.751 131.072 206.453 129.465 205.005 128.001C203.553 126.54 201.956 125.23 200.242 124.092L200.242 123.194C201.494 123.194 202.734 123.442 203.89 123.925C205.047 124.408 206.098 125.116 206.983 126.007C207.867 126.899 208.569 127.958 209.047 129.123C209.525 130.288 209.771 131.537 209.769 132.798Z" fill="#26649D"/>
<path d="M220.896 123.194L220.896 124.092C219.181 125.23 217.585 126.54 216.132 128.001C214.68 129.464 213.379 131.071 212.249 132.798L211.357 132.798C211.357 130.251 212.362 127.808 214.151 126.007C215.94 124.206 218.366 123.194 220.896 123.194Z" fill="#26649D"/>
<path d="M211.357 112.003L212.249 112.003C214.51 115.466 217.453 118.425 220.896 120.697L220.896 121.595C219.644 121.597 218.403 121.35 217.246 120.868C216.089 120.387 215.037 119.68 214.152 118.789C213.266 117.899 212.563 116.841 212.083 115.676C211.604 114.511 211.357 113.263 211.357 112.003Z" fill="#26649D"/>
<path d="M200.242 121.595L200.242 120.708C201.954 119.566 203.549 118.257 205.005 116.799C206.453 115.335 207.751 113.729 208.877 112.002L209.769 112.002C209.772 113.263 209.528 114.512 209.05 115.677C208.572 116.842 207.87 117.901 206.985 118.792C206.1 119.683 205.048 120.39 203.891 120.871C202.734 121.352 201.494 121.598 200.242 121.595Z" fill="#26649D"/>
<g opacity="0.4">
<path d="M232.022 132.798L231.13 132.798C230.02 131.074 228.741 129.467 227.312 128.001C225.856 126.54 224.256 125.23 222.538 124.092L222.538 123.194C225.067 123.194 227.494 124.206 229.282 126.007C231.071 127.808 232.076 130.251 232.076 132.798L232.022 132.798Z" fill="#26649D"/>
<path d="M243.148 123.194L243.148 124.092C241.43 125.23 239.83 126.54 238.374 128.001C236.926 129.465 235.629 131.072 234.502 132.798L233.61 132.798C233.61 130.251 234.615 127.808 236.404 126.007C238.192 124.206 240.619 123.194 243.148 123.194Z" fill="#26649D"/>
<path d="M233.61 112.003L234.502 112.003C236.755 115.472 239.699 118.433 243.148 120.697L243.148 121.595C241.896 121.597 240.656 121.35 239.499 120.868C238.342 120.387 237.29 119.68 236.404 118.789C235.518 117.899 234.816 116.841 234.336 115.676C233.857 114.511 233.61 113.263 233.61 112.003Z" fill="#26649D"/>
<path d="M222.484 121.595L222.484 120.708C224.218 119.57 225.836 118.26 227.313 116.799C228.76 115.335 230.058 113.729 231.184 112.003L232.076 112.003C232.076 113.263 231.83 114.511 231.35 115.676C230.871 116.841 230.168 117.899 229.282 118.789C228.396 119.68 227.344 120.387 226.187 120.868C225.03 121.35 223.79 121.597 222.538 121.595L222.484 121.595Z" fill="#26649D"/>
</g>
<g opacity="0.2">
<path d="M120.78 110.404L119.888 110.404C118.761 108.672 117.46 107.061 116.006 105.596C114.552 104.139 112.956 102.832 111.242 101.698L111.242 100.8C113.772 100.8 116.198 101.812 117.987 103.613C119.775 105.414 120.78 107.857 120.78 110.404Z" fill="#26649D"/>
<path d="M131.907 100.8L131.907 101.698C128.429 103.972 125.465 106.957 123.206 110.458L122.314 110.458C122.314 109.197 122.561 107.948 123.04 106.783C123.519 105.618 124.222 104.559 125.108 103.668C126.896 101.867 129.323 100.855 131.852 100.855L131.907 100.8Z" fill="#26649D"/>
<path d="M122.368 89.5975L123.26 89.5975C124.387 91.3235 125.684 92.9305 127.132 94.3939C128.586 95.858 130.186 97.168 131.907 98.3032L131.907 99.2012C129.377 99.2012 126.951 98.1894 125.162 96.3883C123.373 94.5873 122.368 92.1446 122.368 89.5975Z" fill="#26649D"/>
<path d="M111.242 99.2012L111.242 98.3032C114.707 96.0127 117.668 93.0312 119.943 89.5428L120.835 89.5428C120.835 92.0898 119.83 94.5325 118.041 96.3336C116.252 98.1346 113.826 99.1464 111.296 99.1464L111.242 99.2012Z" fill="#26649D"/>
</g>
<g opacity="0.5">
<path d="M143.022 110.404L142.141 110.404C141.014 108.672 139.712 107.061 138.258 105.596C136.805 104.139 135.209 102.833 133.495 101.698L133.495 100.8C134.747 100.8 135.986 101.049 137.143 101.531C138.3 102.014 139.35 102.722 140.235 103.614C141.12 104.505 141.822 105.564 142.3 106.729C142.778 107.894 143.023 109.143 143.022 110.404Z" fill="#26649D"/>
<path d="M154.148 100.8L154.148 101.698C152.434 102.833 150.838 104.139 149.385 105.596C147.93 107.061 146.629 108.672 145.502 110.404L144.653 110.404C144.652 109.143 144.897 107.894 145.376 106.729C145.854 105.564 146.555 104.505 147.44 103.614C148.325 102.722 149.376 102.014 150.532 101.531C151.689 101.049 152.929 100.8 154.181 100.8L154.148 100.8Z" fill="#26649D"/>
<path d="M144.654 89.5976L145.535 89.5976C147.794 93.0805 150.736 96.0617 154.181 98.358L154.181 99.256C152.924 99.256 151.68 99.0057 150.52 98.5195C149.36 98.0334 148.306 97.3209 147.421 96.4232C146.535 95.5254 145.835 94.4602 145.36 93.2887C144.885 92.1173 144.645 90.8628 144.654 89.5976Z" fill="#26649D"/>
<path d="M133.495 99.2012L133.495 98.3033C136.959 96.0128 139.921 93.0312 142.195 89.5428L143.076 89.5428C143.078 90.8035 142.832 92.0521 142.354 93.2172C141.876 94.3823 141.175 95.441 140.29 96.333C139.405 97.2249 138.354 97.9325 137.197 98.4152C136.041 98.898 134.801 99.1465 133.549 99.1465L133.495 99.2012Z" fill="#26649D"/>
</g>
<g opacity="0.2">
<path d="M165.318 110.404L164.426 110.404C163.303 108.672 162.005 107.061 160.554 105.596C159.097 104.138 157.498 102.832 155.78 101.698L155.78 100.8C158.309 100.8 160.736 101.812 162.524 103.613C164.313 105.414 165.318 107.857 165.318 110.404Z" fill="#26649D"/>
<path d="M176.401 100.8L176.401 101.698C174.687 102.833 173.091 104.139 171.637 105.596C170.18 107.058 168.879 108.669 167.755 110.404L166.863 110.404C166.863 107.857 167.868 105.414 169.656 103.613C171.445 101.812 173.871 100.8 176.401 100.8Z" fill="#26649D"/>
<path d="M166.863 89.5976L167.755 89.5976C168.882 91.3264 170.183 92.9337 171.637 94.3939C173.09 95.8555 174.686 97.1652 176.401 98.3033L176.401 99.2012C173.871 99.2012 171.445 98.1894 169.656 96.3884C167.868 94.5874 166.863 92.1446 166.863 89.5976Z" fill="#26649D"/>
<path d="M155.736 99.2012L155.736 98.3033C159.188 96.015 162.132 93.0323 164.383 89.5428L165.318 89.5428C165.318 92.0899 164.313 94.5326 162.525 96.3336C160.736 98.1347 158.31 99.1465 155.78 99.1465L155.736 99.2012Z" fill="#26649D"/>
</g>
<g opacity="0.1">
<path d="M120.78 87.9988L119.888 87.9988C117.613 84.5104 114.652 81.5288 111.187 79.2383L111.187 78.3404C113.717 78.3404 116.143 79.3522 117.932 81.1532C119.721 82.9543 120.726 85.397 120.726 87.944L120.78 87.9988Z" fill="#26649D"/>
<path d="M131.907 78.3951L131.907 79.2931C130.186 80.4283 128.586 81.7383 127.132 83.2024C125.684 84.6658 124.387 86.2728 123.26 87.9988L122.368 87.9988C122.368 85.4517 123.373 83.009 125.162 81.208C126.951 79.4069 129.377 78.3951 131.907 78.3951Z" fill="#26649D"/>
<path d="M122.368 67.1927L123.26 67.1927C125.519 70.6942 128.483 73.6788 131.961 75.9531L131.961 76.8511C129.431 76.8511 127.005 75.8393 125.216 74.0382C123.427 72.2372 122.423 69.7945 122.423 67.2474L122.368 67.1927Z" fill="#26649D"/>
<path d="M111.242 76.7963L111.242 75.8984C112.956 74.7638 114.552 73.4577 116.005 72C117.46 70.5355 118.761 68.9246 119.888 67.1927L120.78 67.1927C120.78 69.7397 119.775 72.1824 117.986 73.9835C116.197 75.7845 113.771 76.7963 111.242 76.7963Z" fill="#26649D"/>
</g>
<g opacity="0.2">
<path d="M165.318 87.9988L164.426 87.9988C162.175 84.5093 159.231 81.5266 155.78 79.2383L155.78 78.3404C157.037 78.3404 158.282 78.5906 159.442 79.0766C160.603 79.5627 161.657 80.275 162.544 81.1726C163.43 82.0701 164.132 83.1353 164.608 84.3068C165.084 85.4783 165.325 86.733 165.318 87.9988Z" fill="#26649D"/>
<path d="M176.401 78.3951L176.401 79.2931C174.686 80.4311 173.09 81.7409 171.637 83.2024C170.183 84.6627 168.882 86.27 167.755 87.9988L166.863 87.9988C166.863 85.4517 167.868 83.009 169.656 81.208C171.445 79.4069 173.871 78.3951 176.401 78.3951Z" fill="#26649D"/>
<path d="M166.863 67.1927L167.755 67.1927C168.879 68.9271 170.18 70.5383 171.637 72C173.091 73.4577 174.687 74.7638 176.401 75.8984L176.401 76.7963C173.871 76.7963 171.445 75.7845 169.656 73.9835C167.868 72.1824 166.863 69.7397 166.863 67.1927Z" fill="#26649D"/>
<path d="M155.736 76.7963L155.736 75.8984C157.454 74.7644 159.054 73.4583 160.511 72C161.962 70.5354 163.259 68.9245 164.383 67.1927L165.318 67.1927C165.318 69.7397 164.313 72.1824 162.525 73.9835C160.736 75.7845 158.31 76.7963 155.78 76.7963L155.736 76.7963Z" fill="#26649D"/>
</g>
<g opacity="0.5">
<path d="M187.527 110.404L186.636 110.404C185.498 108.67 184.186 107.059 182.72 105.596C181.267 104.139 179.671 102.833 177.956 101.698L177.956 100.8C180.486 100.8 182.912 101.812 184.701 103.613C186.49 105.414 187.495 107.857 187.495 110.404L187.527 110.404Z" fill="#26649D"/>
<path d="M198.643 100.8L198.643 101.698C196.929 102.833 195.333 104.139 193.879 105.596C192.428 107.061 191.131 108.672 190.007 110.404L189.115 110.404C189.115 107.859 190.119 105.417 191.905 103.617C193.692 101.816 196.115 100.803 198.643 100.8Z" fill="#26649D"/>
<path d="M189.115 89.5976L190.007 89.5976C192.258 93.0834 195.198 96.0654 198.643 98.358L198.643 99.256C196.115 99.2531 193.692 98.24 191.905 96.4393C190.119 94.6386 189.115 92.1975 189.115 89.6523L189.115 89.5976Z" fill="#26649D"/>
<path d="M177.989 99.2012L177.989 98.3033C181.434 96.007 184.377 93.0258 186.636 89.5428L187.528 89.5428C187.528 92.0899 186.523 94.5326 184.734 96.3336C182.945 98.1347 180.519 99.1465 177.989 99.1465L177.989 99.2012Z" fill="#26649D"/>
</g>
<g opacity="0.4">
<path d="M209.769 110.404L208.877 110.404C207.754 108.672 206.456 107.061 205.005 105.596C203.552 104.139 201.956 102.833 200.242 101.698L200.242 100.8C201.494 100.8 202.734 101.049 203.89 101.531C205.047 102.014 206.098 102.722 206.983 103.614C207.867 104.505 208.569 105.564 209.047 106.729C209.525 107.894 209.771 109.143 209.769 110.404Z" fill="#26649D"/>
<path d="M220.896 100.8L220.896 101.698C219.181 102.833 217.585 104.139 216.132 105.596C214.678 107.061 213.377 108.672 212.249 110.404L211.357 110.404C211.357 109.143 211.604 107.894 212.083 106.729C212.563 105.563 213.265 104.505 214.151 103.613C215.037 102.721 216.088 102.014 217.245 101.531C218.403 101.048 219.643 100.8 220.896 100.8Z" fill="#26649D"/>
<path d="M211.357 89.5976L212.249 89.5976C214.508 93.0805 217.451 96.0617 220.896 98.358L220.896 99.256C218.366 99.256 215.94 98.2442 214.151 96.4431C212.362 94.6421 211.357 92.1994 211.357 89.6523L211.357 89.5976Z" fill="#26649D"/>
<path d="M200.242 99.2012L200.242 98.3033C203.687 96.0106 206.626 93.0286 208.877 89.5428L209.769 89.5428C209.771 90.8035 209.525 92.0521 209.047 93.2172C208.569 94.3823 207.867 95.441 206.983 96.333C206.098 97.2249 205.047 97.9325 203.89 98.4152C202.734 98.898 201.494 99.1465 200.242 99.1465L200.242 99.2012Z" fill="#26649D"/>
</g>
<path d="M232.022 110.404L231.13 110.404C230.024 108.674 228.745 107.064 227.313 105.596C225.856 104.138 224.256 102.832 222.538 101.698L222.538 100.8C225.068 100.8 227.494 101.812 229.283 103.613C231.071 105.414 232.076 107.857 232.076 110.404L232.022 110.404Z" fill="#26649D"/>
<path d="M243.148 100.8L243.148 101.698C241.43 102.832 239.831 104.138 238.374 105.596C236.923 107.061 235.625 108.672 234.502 110.404L233.61 110.404C233.61 107.857 234.615 105.414 236.404 103.613C238.192 101.812 240.619 100.8 243.148 100.8Z" fill="#26649D"/>
<path d="M233.61 89.5976L234.502 89.5976C236.753 93.087 239.697 96.0697 243.148 98.358L243.148 99.256C240.619 99.256 238.192 98.2442 236.404 96.4431C234.615 94.6421 233.61 92.1994 233.61 89.6523L233.61 89.5976Z" fill="#26649D"/>
<path d="M222.484 99.2012L222.484 98.3033C225.935 96.015 228.879 93.0323 231.13 89.5428L232.022 89.5428C232.022 92.0899 231.017 94.5326 229.228 96.3336C227.439 98.1347 225.013 99.1465 222.484 99.1465L222.484 99.2012Z" fill="#26649D"/>
<path d="M187.527 87.9988L186.636 87.9988C184.377 84.5158 181.434 81.5347 177.989 79.2383L177.989 78.3404C180.519 78.3404 182.945 79.3522 184.734 81.1532C186.523 82.9543 187.527 85.397 187.527 87.944L187.527 87.9988Z" fill="#26649D"/>
<path d="M198.643 78.3951L198.643 79.2931C195.198 81.5857 192.258 84.5678 190.007 88.0535L189.115 88.0535C189.115 85.5084 190.119 83.0673 191.905 81.2666C193.692 79.4659 196.115 78.4528 198.643 78.4499L198.643 78.3951Z" fill="#26649D"/>
<path d="M189.115 67.1927L190.007 67.1927C191.131 68.9246 192.428 70.5355 193.879 72C195.333 73.4577 196.929 74.7638 198.643 75.8984L198.643 76.7964C196.115 76.7935 193.692 75.7804 191.905 73.9797C190.119 72.179 189.115 69.7379 189.115 67.1927Z" fill="#26649D"/>
<path d="M177.989 76.7964L177.989 75.8984C179.692 74.762 181.277 73.456 182.72 72C184.174 70.5356 185.475 68.9247 186.603 67.1927L187.495 67.1927C187.495 69.7398 186.49 72.1825 184.701 73.9835C182.912 75.7846 180.486 76.7964 177.956 76.7964L177.989 76.7964Z" fill="#26649D"/>
<g opacity="0.3">
<path d="M209.769 87.9988L208.877 87.9988C206.626 84.513 203.687 81.531 200.242 79.2383L200.242 78.3404C201.494 78.3404 202.734 78.5889 203.89 79.0716C205.047 79.5544 206.098 80.262 206.983 81.1539C207.867 82.0458 208.569 83.1046 209.047 84.2697C209.525 85.4348 209.771 86.6834 209.769 87.944L209.769 87.9988Z" fill="#26649D"/>
<path d="M220.896 78.3951L220.896 79.2931C217.451 81.5894 214.508 84.5706 212.249 88.0535L211.357 88.0535C211.357 86.7924 211.604 85.5435 212.083 84.3784C212.563 83.2132 213.265 82.1545 214.151 81.2627C215.037 80.3709 216.088 79.6635 217.245 79.1809C218.403 78.6983 219.643 78.4499 220.896 78.4499L220.896 78.3951Z" fill="#26649D"/>
<path d="M211.357 67.1927L212.249 67.1927C213.377 68.9246 214.678 70.5355 216.132 72C217.585 73.4577 219.181 74.7638 220.896 75.8984L220.896 76.7963C218.366 76.7963 215.94 75.7845 214.151 73.9835C212.362 72.1824 211.357 69.7397 211.357 67.1927Z" fill="#26649D"/>
<path d="M200.242 76.7963L200.242 75.8984C201.956 74.7638 203.552 73.4577 205.005 72C206.456 70.5354 207.754 68.9245 208.877 67.1927L209.769 67.1927C209.771 68.4533 209.525 69.7019 209.047 70.867C208.569 72.0321 207.867 73.0909 206.983 73.9828C206.098 74.8747 205.047 75.5823 203.89 76.0651C202.734 76.5478 201.494 76.7963 200.242 76.7963Z" fill="#26649D"/>
</g>
<path d="M232.022 87.9988L231.13 87.9988C228.879 84.5093 225.935 81.5266 222.484 79.2383L222.484 78.3404C225.013 78.3404 227.439 79.3522 229.228 81.1532C231.017 82.9543 232.022 85.397 232.022 87.944L232.022 87.9988Z" fill="#26649D"/>
<path d="M243.148 78.3951L243.148 79.2931C239.697 81.5814 236.753 84.5641 234.502 88.0535L233.61 88.0535C233.61 85.5065 234.615 83.0638 236.404 81.2627C238.192 79.4617 240.619 78.4499 243.148 78.4499L243.148 78.3951Z" fill="#26649D"/>
<path d="M233.61 67.1927L234.502 67.1927C235.625 68.9246 236.923 70.5355 238.374 72C239.831 73.4583 241.43 74.7644 243.148 75.8984L243.148 76.7964C240.619 76.7964 238.192 75.7846 236.404 73.9835C234.615 72.1825 233.61 69.7398 233.61 67.1927Z" fill="#26649D"/>
<path d="M222.484 76.7964L222.484 75.8984C224.221 74.7675 225.839 73.4613 227.313 72C228.763 70.5355 230.061 68.9246 231.184 67.1927L232.076 67.1927C232.076 69.7398 231.071 72.1825 229.283 73.9835C227.494 75.7846 225.068 76.7964 222.538 76.7964L222.484 76.7964Z" fill="#26649D"/>
<g opacity="0.5">
<path d="M276.516 65.5939L275.625 65.5939C274.499 63.8603 273.202 62.246 271.753 60.7757C270.298 59.3148 268.698 58.0085 266.978 56.8773L266.978 55.9793C268.23 55.9779 269.47 56.225 270.627 56.7064C271.785 57.1878 272.836 57.8942 273.722 58.7851C274.608 59.676 275.311 60.734 275.79 61.8985C276.27 63.0631 276.516 64.3114 276.516 65.572L276.516 65.5939Z" fill="#26649D"/>
<path d="M287.643 56.0012L287.643 56.8882C285.932 58.0231 284.336 59.3252 282.879 60.7757C281.427 62.2385 280.127 63.8455 278.996 65.572L278.104 65.572C278.104 64.3114 278.351 63.0631 278.831 61.8985C279.31 60.734 280.013 59.676 280.899 58.7851C281.785 57.8942 282.836 57.1878 283.993 56.7064C285.151 56.2249 286.391 55.9779 287.643 55.9793L287.643 56.0012Z" fill="#26649D"/>
<path d="M278.104 44.7988L278.996 44.7988C281.271 48.2872 284.232 51.2688 287.697 53.5593L287.697 54.4572C286.445 54.4572 285.204 54.2088 284.047 53.7262C282.89 53.2435 281.838 52.5361 280.952 51.6444C280.067 50.7526 279.364 49.6939 278.885 48.5287C278.405 47.3635 278.159 46.1147 278.159 44.8536L278.104 44.7988Z" fill="#26649D"/>
<path d="M266.978 54.4025L266.978 53.5045C268.698 52.3693 270.298 51.0593 271.753 49.5952C273.2 48.1318 274.498 46.5248 275.625 44.7988L276.516 44.7988C276.516 47.3459 275.512 49.7886 273.723 51.5896C271.934 53.3907 269.508 54.4025 266.978 54.4025Z" fill="#26649D"/>
</g>
<g opacity="0.6">
<path d="M298.769 65.5939L297.877 65.5939C295.616 62.1308 292.673 59.1715 289.231 56.8992L289.231 56.0012C290.483 55.9998 291.723 56.2468 292.88 56.7283C294.037 57.2097 295.089 57.9161 295.975 58.807C296.861 59.6979 297.563 60.7559 298.043 61.9204C298.522 63.085 298.769 64.3333 298.769 65.5939Z" fill="#26649D"/>
<path d="M309.895 56.0012L309.895 56.8882C306.444 59.1765 303.5 62.1592 301.249 65.6487L300.357 65.6487C300.357 64.388 300.604 63.1397 301.083 61.9752C301.563 60.8106 302.266 59.7527 303.151 58.8617C304.037 57.9708 305.089 57.2645 306.246 56.783C307.403 56.3016 308.643 56.0545 309.895 56.056L309.895 56.0012Z" fill="#26649D"/>
<path d="M300.357 44.7988L301.271 44.7988C302.398 46.5248 303.695 48.1318 305.143 49.5952C306.597 51.0593 308.197 52.3693 309.917 53.5045L309.917 54.4025C307.387 54.4025 304.961 53.3907 303.173 51.5896C301.384 49.7886 300.379 47.3459 300.379 44.7988L300.357 44.7988Z" fill="#26649D"/>
<path d="M289.231 54.4025L289.231 53.5045C292.676 51.2082 295.618 48.227 297.877 44.7441L298.769 44.7441C298.769 47.2911 297.764 49.7338 295.975 51.5349C294.187 53.3359 291.76 54.3477 289.231 54.3477L289.231 54.4025Z" fill="#26649D"/>
</g>
<path d="M321.011 65.5939L320.13 65.5939C318.997 63.8625 317.697 62.2485 316.247 60.7757C314.794 59.318 313.198 58.0119 311.484 56.8773L311.484 55.9793C312.736 55.9764 313.976 56.2226 315.133 56.7036C316.29 57.1847 317.342 57.8912 318.227 58.7825C319.112 59.6739 319.814 60.7325 320.292 61.8976C320.769 63.0628 321.014 64.3115 321.011 65.572L321.011 65.5939Z" fill="#26649D"/>
<path d="M332.137 56.0012L332.137 56.8882C330.426 58.0231 328.831 59.3252 327.374 60.7757C325.922 62.2385 324.621 63.8455 323.491 65.572L322.61 65.572C322.607 64.3115 322.851 63.0628 323.329 61.8976C323.807 60.7325 324.509 59.6739 325.394 58.7825C326.279 57.8912 327.331 57.1847 328.488 56.7036C329.645 56.2226 330.885 55.9764 332.137 55.9793L332.137 56.0012Z" fill="#26649D"/>
<path d="M322.61 44.7988L323.491 44.7988C325.75 48.2818 328.692 51.2629 332.137 53.5593L332.137 54.4572C330.885 54.4572 329.646 54.2087 328.489 53.726C327.332 53.2432 326.281 52.5356 325.397 51.6437C324.512 50.7518 323.81 49.693 323.332 48.5279C322.854 47.3628 322.608 46.1142 322.61 44.8536L322.61 44.7988Z" fill="#26649D"/>
<path d="M311.484 54.4025L311.484 53.5045C313.198 52.3665 314.794 51.0567 316.247 49.5952C317.695 48.1292 318.996 46.5226 320.13 44.7988L321.011 44.7988C321.012 46.0595 320.767 47.308 320.289 48.4731C319.811 49.6383 319.109 50.697 318.224 51.589C317.339 52.4809 316.289 53.1885 315.132 53.6712C313.975 54.154 312.736 54.4025 311.484 54.4025Z" fill="#26649D"/>
<g opacity="0.3">
<path d="M354.39 56.0012L354.39 56.8882C352.677 58.0256 351.078 59.3275 349.615 60.7757C348.168 62.2391 346.87 63.846 345.744 65.572L344.852 65.572C344.852 64.3114 345.098 63.0631 345.578 61.8985C346.057 60.734 346.76 59.676 347.646 58.7851C348.532 57.8942 349.584 57.1878 350.741 56.7064C351.898 56.2249 353.138 55.9779 354.39 55.9793L354.39 56.0012Z" fill="#26649D"/>
<path d="M344.852 44.7988L345.744 44.7988C346.87 46.5248 348.168 48.1318 349.615 49.5952C351.075 51.0541 352.674 52.3637 354.39 53.5045L354.39 54.4025C351.86 54.4025 349.434 53.3907 347.645 51.5896C345.857 49.7886 344.852 47.3459 344.852 44.7988Z" fill="#26649D"/>
</g>
<g opacity="0.2">
<path d="M365.516 65.5939L364.625 65.5939C362.363 62.1308 359.42 59.1715 355.978 56.8992L355.978 56.0012C357.23 55.9998 358.47 56.2468 359.627 56.7283C360.785 57.2097 361.836 57.9161 362.722 58.807C363.608 59.6979 364.311 60.7559 364.79 61.9204C365.27 63.085 365.516 64.3333 365.516 65.5939Z" fill="#26649D"/>
<path d="M376.632 56.0012L376.632 56.8882C374.921 58.0231 373.325 59.3252 371.868 60.7757C370.42 62.2391 369.123 63.846 367.996 65.572L367.104 65.572C367.104 63.0279 368.108 60.5879 369.895 58.789C371.682 56.99 374.105 55.9793 376.632 55.9793L376.632 56.0012Z" fill="#26649D"/>
<path d="M367.104 44.7988L367.996 44.7988C370.247 48.2846 373.187 51.2666 376.632 53.5593L376.632 54.4572C374.104 54.4543 371.681 53.4412 369.894 51.6405C368.108 49.8398 367.104 47.3987 367.104 44.8536L367.104 44.7988Z" fill="#26649D"/>
<path d="M355.978 54.4025L355.978 53.5045C359.423 51.2082 362.366 48.227 364.625 44.7441L365.516 44.7441C365.516 47.2911 364.512 49.7338 362.723 51.5349C360.934 53.3359 358.508 54.3477 355.978 54.3477L355.978 54.4025Z" fill="#26649D"/>
</g>
<g opacity="0.05">
<path d="M276.516 43.2L275.625 43.2C274.498 41.4702 273.201 39.8596 271.753 38.3927C270.298 36.9319 268.698 35.6255 266.978 34.4943L266.978 33.5964C269.508 33.5964 271.934 34.6082 273.723 36.4092C275.512 38.2102 276.516 40.653 276.516 43.2Z" fill="#26649D"/>
<path d="M287.643 33.5964L287.643 34.4943C284.172 36.7767 281.209 39.7598 278.942 43.2548L278.05 43.2548C278.05 40.7077 279.055 38.265 280.844 36.464C282.633 34.6629 285.059 33.6511 287.588 33.6511L287.643 33.5964Z" fill="#26649D"/>
<path d="M278.104 22.3939L278.996 22.3939C281.263 25.8889 284.226 28.872 287.697 31.1544L287.697 32.0523C286.445 32.0523 285.204 31.8039 284.047 31.3213C282.89 30.8386 281.838 30.1312 280.952 29.2395C280.067 28.3477 279.364 27.289 278.885 26.1238C278.405 24.9586 278.159 23.7098 278.159 22.4487L278.104 22.3939Z" fill="#26649D"/>
<path d="M266.978 31.9976L266.978 31.0996C268.698 29.9684 270.298 28.662 271.753 27.2012C273.201 25.7344 274.498 24.1237 275.625 22.3939L276.516 22.3939C276.516 24.941 275.512 27.3837 273.723 29.1847C271.934 30.9858 269.508 31.9976 266.978 31.9976Z" fill="#26649D"/>
</g>
<g opacity="0.5">
<path d="M321.011 43.2L320.13 43.2C318.996 41.4726 317.696 39.8624 316.247 38.3927C314.794 36.935 313.198 35.6289 311.484 34.4943L311.484 33.5964C312.736 33.5964 313.975 33.8448 315.132 34.3276C316.289 34.8104 317.339 35.518 318.224 36.4099C319.109 37.3018 319.811 38.3606 320.289 39.5257C320.767 40.6908 321.012 41.9394 321.011 43.2Z" fill="#26649D"/>
<path d="M332.137 33.5964L332.137 34.4943C328.686 36.7826 325.742 39.7653 323.491 43.2548L322.61 43.2548C322.608 41.9941 322.854 40.7455 323.332 39.5804C323.81 38.4153 324.512 37.3565 325.397 36.4646C326.281 35.5727 327.332 34.8651 328.489 34.3824C329.646 33.8996 330.885 33.6511 332.137 33.6511L332.137 33.5964Z" fill="#26649D"/>
<path d="M322.61 22.3939L323.491 22.3939C325.742 25.8834 328.686 28.866 332.137 31.1544L332.137 32.0523C330.885 32.0523 329.646 31.8038 328.489 31.3211C327.332 30.8383 326.281 30.1307 325.397 29.2388C324.512 28.3469 323.81 27.2881 323.332 26.123C322.854 24.9579 322.608 23.7093 322.61 22.4487L322.61 22.3939Z" fill="#26649D"/>
<path d="M311.484 31.9976L311.484 31.0996C313.198 29.965 314.794 28.6589 316.247 27.2012C317.696 25.7315 318.996 24.1213 320.13 22.3939L321.011 22.3939C321.012 23.6546 320.767 24.9031 320.289 26.0682C319.811 27.2333 319.109 28.2921 318.224 29.184C317.339 30.076 316.289 30.7835 315.132 31.2663C313.975 31.7491 312.736 31.9976 311.484 31.9976Z" fill="#26649D"/>
</g>
<g opacity="0.3">
<path d="M354.39 33.5964L354.39 34.4943C352.674 35.6311 351.075 36.937 349.615 38.3927C348.167 39.8596 346.87 41.4702 345.744 43.2L344.852 43.2C344.852 40.653 345.857 38.2102 347.645 36.4092C349.434 34.6082 351.86 33.5964 354.39 33.5964Z" fill="#26649D"/>
<path d="M344.852 22.3939L345.744 22.3939C346.87 24.1237 348.167 25.7344 349.615 27.2012C351.075 28.6569 352.674 29.9628 354.39 31.0996L354.39 31.9976C351.86 31.9976 349.434 30.9858 347.645 29.1847C345.857 27.3837 344.852 24.9409 344.852 22.3939Z" fill="#26649D"/>
</g>
<g opacity="0.5">
<path d="M365.516 20.7952L364.625 20.7952C362.36 17.332 359.418 14.3698 355.978 12.0895L355.978 11.1915C358.508 11.1915 360.934 12.2033 362.723 14.0044C364.512 15.8054 365.516 18.2481 365.516 20.7952Z" fill="#26649D"/>
<path d="M376.632 11.1915L376.632 12.0895C373.192 14.3662 370.253 17.3292 367.996 20.7952L367.104 20.7952C367.104 18.25 368.108 15.8089 369.894 14.0082C371.681 12.2075 374.104 11.1944 376.632 11.1915Z" fill="#26649D"/>
<path d="M367.104 9.53674e-06L367.996 9.61471e-06C370.249 3.46602 373.189 6.42611 376.632 8.69477L376.632 9.59271C374.106 9.58981 371.684 8.57822 369.898 6.77987C368.112 4.98152 367.107 2.54326 367.104 9.53674e-06Z" fill="#26649D"/>
<path d="M355.978 9.59271L355.978 8.69477C359.42 6.4224 362.363 3.46315 364.625 1.02927e-05L365.516 1.03706e-05C365.514 2.54516 364.507 4.98507 362.719 6.78374C360.93 8.5824 358.506 9.59271 355.978 9.59271Z" fill="#26649D"/>
</g>
<g opacity="0.65">
<path d="M387.758 65.5939L386.866 65.5939C384.613 62.1279 381.673 59.1678 378.231 56.8992L378.231 56.0012C380.758 56.0012 383.181 57.0119 384.968 58.8109C386.754 60.6098 387.758 63.0498 387.758 65.5939Z" fill="#26649D"/>
<path d="M398.885 56.0012L398.885 56.8882C397.174 58.0231 395.578 59.3252 394.121 60.7757C392.669 62.2385 391.368 63.8455 390.238 65.572L389.368 65.572C389.368 64.3114 389.615 63.0631 390.094 61.8985C390.574 60.734 391.276 59.676 392.162 58.7851C393.048 57.8942 394.1 57.1878 395.257 56.7064C396.414 56.2249 397.654 55.9779 398.906 55.9793L398.885 56.0012Z" fill="#26649D"/>
<path d="M389.368 44.7988L390.26 44.7988C392.519 48.2818 395.461 51.2629 398.906 53.5593L398.906 54.4572C397.649 54.4572 396.404 54.207 395.244 53.721C394.083 53.2349 393.029 52.5226 392.142 51.625C391.256 50.7274 390.554 49.6623 390.078 48.4908C389.602 47.3193 389.361 46.0646 389.368 44.7988Z" fill="#26649D"/>
<path d="M378.231 54.4025L378.231 53.5045C381.676 51.2118 384.615 48.2298 386.866 44.7441L387.758 44.7441C387.758 47.2892 386.755 49.7303 384.968 51.531C383.182 53.3317 380.759 54.3448 378.231 54.3477L378.231 54.4025Z" fill="#26649D"/>
</g>
<g opacity="0.5">
<path d="M432.264 65.5939L431.372 65.5939C429.111 62.1308 426.168 59.1715 422.725 56.8992L422.725 56.0012C423.977 55.9998 425.217 56.2468 426.375 56.7283C427.532 57.2097 428.583 57.9161 429.469 58.807C430.355 59.6979 431.058 60.7559 431.537 61.9204C432.017 63.085 432.264 64.3333 432.264 65.5939Z" fill="#26649D"/>
<path d="M443.379 56.0012L443.379 56.8882C441.668 58.0231 440.072 59.3252 438.615 60.7757C437.168 62.2391 435.87 63.846 434.743 65.572L433.852 65.572C433.849 64.3115 434.093 63.0628 434.571 61.8976C435.049 60.7325 435.75 59.6739 436.636 58.7825C437.521 57.8912 438.572 57.1847 439.73 56.7036C440.887 56.2226 442.127 55.9764 443.379 55.9793L443.379 56.0012Z" fill="#26649D"/>
<path d="M433.852 44.7988L434.733 44.7988C435.867 46.5226 437.167 48.1292 438.615 49.5952C440.068 51.0567 441.664 52.3665 443.379 53.5045L443.379 54.4025C442.127 54.4025 440.887 54.154 439.731 53.6712C438.574 53.1885 437.523 52.4809 436.638 51.589C435.753 50.697 435.052 49.6383 434.574 48.4731C434.096 47.308 433.85 46.0595 433.852 44.7988Z" fill="#26649D"/>
<path d="M422.725 54.4025L422.725 53.5045C426.17 51.2082 429.113 48.227 431.372 44.7441L432.264 44.7441C432.264 47.2911 431.259 49.7338 429.47 51.5349C427.681 53.3359 425.255 54.3477 422.725 54.3477L422.725 54.4025Z" fill="#26649D"/>
</g>
<g opacity="0.2">
<path d="M454.505 65.5939L453.614 65.5939C452.488 63.8603 451.191 62.246 449.742 60.7757C448.287 59.3148 446.687 58.0085 444.967 56.8773L444.967 55.9793C446.219 55.9779 447.459 56.225 448.616 56.7064C449.774 57.1878 450.825 57.8942 451.711 58.7851C452.597 59.676 453.3 60.734 453.779 61.8985C454.259 63.0631 454.505 64.3114 454.505 65.572L454.505 65.5939Z" fill="#26649D"/>
<path d="M465.632 56.0012L465.632 56.8882C463.921 58.0231 462.325 59.3252 460.868 60.7757C459.416 62.2385 458.116 63.8455 456.985 65.572L456.093 65.572C456.093 64.3114 456.34 63.0631 456.82 61.8985C457.299 60.734 458.002 59.676 458.888 58.7851C459.774 57.8942 460.825 57.1878 461.982 56.7064C463.14 56.2249 464.38 55.9779 465.632 55.9793L465.632 56.0012Z" fill="#26649D"/>
<path d="M456.093 44.7988L456.985 44.7988C459.244 48.2818 462.187 51.2629 465.632 53.5593L465.632 54.4572C463.102 54.4572 460.676 53.4454 458.887 51.6444C457.098 49.8433 456.093 47.4006 456.093 44.8536L456.093 44.7988Z" fill="#26649D"/>
<path d="M444.967 54.4025L444.967 53.5045C446.687 52.3693 448.287 51.0593 449.742 49.5952C451.19 48.1318 452.487 46.5248 453.614 44.7988L454.505 44.7988C454.505 47.3459 453.501 49.7886 451.712 51.5896C449.923 53.3907 447.497 54.4025 444.967 54.4025Z" fill="#26649D"/>
</g>
<g opacity="0.3">
<path d="M387.758 43.2L386.866 43.2C384.623 39.7076 381.682 36.7241 378.231 34.4396L378.231 33.5416C380.759 33.5445 383.182 34.5576 384.968 36.3583C386.755 38.159 387.758 40.6001 387.758 43.1453L387.758 43.2Z" fill="#26649D"/>
<path d="M398.885 33.5964L398.885 34.4943C395.433 36.7826 392.489 39.7653 390.238 43.2548L389.368 43.2548C389.368 40.7077 390.373 38.265 392.162 36.464C393.95 34.6629 396.377 33.6511 398.906 33.6511L398.885 33.5964Z" fill="#26649D"/>
<path d="M389.368 22.3939L390.26 22.3939C392.511 25.8834 395.455 28.866 398.906 31.1544L398.906 32.0523C396.377 32.0523 393.95 31.0405 392.162 29.2395C390.373 27.4384 389.368 24.9957 389.368 22.4487L389.368 22.3939Z" fill="#26649D"/>
<path d="M378.231 31.9976L378.231 31.0996C381.682 28.8151 384.623 25.8315 386.866 22.3392L387.758 22.3392C387.758 24.8843 386.755 27.3254 384.968 29.1261C383.182 30.9268 380.759 31.9399 378.231 31.9428L378.231 31.9976Z" fill="#26649D"/>
</g>
<g opacity="0.4">
<path d="M410.033 43.2L409.141 43.2C406.882 39.6985 403.918 36.7139 400.44 34.4396L400.44 33.5416C401.702 33.5343 402.952 33.7792 404.119 34.262C405.287 34.7448 406.347 35.456 407.239 36.3543C408.131 37.2526 408.838 38.3202 409.317 39.4953C409.797 40.6704 410.04 41.9296 410.033 43.2Z" fill="#26649D"/>
<path d="M421.137 33.5964L421.137 34.4943C417.679 36.7746 414.734 39.7588 412.491 43.2548L411.599 43.2548C411.599 40.7077 412.604 38.265 414.393 36.464C416.181 34.6629 418.608 33.6511 421.137 33.6511L421.137 33.5964Z" fill="#26649D"/>
<path d="M411.599 22.3939L412.491 22.3939C414.734 25.8898 417.679 28.874 421.137 31.1544L421.137 32.0523C418.608 32.0523 416.181 31.0405 414.393 29.2395C412.604 27.4384 411.599 24.9957 411.599 22.4487L411.599 22.3939Z" fill="#26649D"/>
<path d="M400.473 31.9976L400.473 31.0996C403.95 28.8253 406.915 25.8406 409.174 22.3392L410.033 22.3392C410.033 24.8862 409.028 27.3289 407.239 29.13C405.45 30.931 403.024 31.9428 400.494 31.9428L400.473 31.9976Z" fill="#26649D"/>
</g>
<g opacity="0.2">
<path d="M432.264 43.2L431.372 43.2C429.121 39.7106 426.177 36.7279 422.725 34.4396L422.725 33.5416C425.255 33.5416 427.681 34.5534 429.47 36.3545C431.259 38.1555 432.264 40.5982 432.264 43.1453L432.264 43.2Z" fill="#26649D"/>
<path d="M443.379 33.5964L443.379 34.4943C439.927 36.7788 436.986 39.7624 434.743 43.2548L433.852 43.2548C433.85 41.9941 434.096 40.7455 434.574 39.5804C435.052 38.4153 435.753 37.3565 436.638 36.4646C437.523 35.5727 438.574 34.8651 439.731 34.3824C440.887 33.8996 442.127 33.6511 443.379 33.6511L443.379 33.5964Z" fill="#26649D"/>
<path d="M433.852 22.3939L434.733 22.3939C435.866 24.1213 437.167 25.7315 438.615 27.2012C440.069 28.6589 441.665 29.965 443.379 31.0996L443.379 31.9976C442.127 31.9976 440.887 31.7491 439.731 31.2663C438.574 30.7835 437.523 30.076 436.638 29.184C435.753 28.2921 435.052 27.2333 434.574 26.0682C434.096 24.9031 433.85 23.6546 433.852 22.3939Z" fill="#26649D"/>
<path d="M422.725 31.9976L422.725 31.0996C426.177 28.8113 429.121 25.8286 431.372 22.3392L432.264 22.3392C432.264 24.8862 431.259 27.3289 429.47 29.13C427.681 30.931 425.255 31.9428 422.725 31.9428L422.725 31.9976Z" fill="#26649D"/>
</g>
<g opacity="0.1">
<path d="M432.264 20.7952L431.372 20.7952C429.107 17.332 426.165 14.3698 422.725 12.0895L422.725 11.1915C425.255 11.1915 427.681 12.2033 429.47 14.0044C431.259 15.8054 432.264 18.2481 432.264 20.7952Z" fill="#26649D"/>
<path d="M443.379 11.1915L443.379 12.0895C439.94 14.3662 437 17.3292 434.743 20.7952L433.852 20.7952C433.85 19.5345 434.096 18.2859 434.574 17.1208C435.052 15.9557 435.753 14.8969 436.638 14.005C437.523 13.1131 438.574 12.4055 439.731 11.9228C440.887 11.44 442.127 11.1915 443.379 11.1915Z" fill="#26649D"/>
<path d="M433.852 9.53674e-06L434.733 9.61376e-06C435.867 1.72379 437.167 3.3304 438.615 4.79636C440.069 6.25406 441.665 7.56017 443.379 8.69477L443.379 9.59271C440.852 9.59271 438.429 8.58205 436.642 6.78307C434.855 4.98409 433.852 2.54415 433.852 9.53674e-06Z" fill="#26649D"/>
<path d="M422.725 9.59271L422.725 8.69477C426.168 6.4224 429.111 3.46315 431.372 1.02926e-05L432.264 1.03706e-05C432.261 2.54516 431.255 4.98507 429.466 6.78374C427.678 8.5824 425.253 9.59271 422.725 9.59271Z" fill="#26649D"/>
</g>
<g opacity="0.5">
<path d="M454.505 43.2L453.614 43.2C452.487 41.4702 451.19 39.8596 449.742 38.3927C448.287 36.9319 446.687 35.6255 444.967 34.4943L444.967 33.5964C447.497 33.5964 449.923 34.6082 451.712 36.4092C453.501 38.2102 454.505 40.653 454.505 43.2Z" fill="#26649D"/>
<path d="M465.632 33.5964L465.632 34.4943C462.18 36.7826 459.236 39.7653 456.985 43.2548L456.093 43.2548C456.093 40.7077 457.098 38.265 458.887 36.464C460.676 34.6629 463.102 33.6511 465.632 33.6511L465.632 33.5964Z" fill="#26649D"/>
<path d="M456.093 22.3939L456.985 22.3939C459.236 25.8834 462.18 28.866 465.632 31.1544L465.632 32.0523C463.102 32.0523 460.676 31.0405 458.887 29.2395C457.098 27.4384 456.093 24.9957 456.093 22.4487L456.093 22.3939Z" fill="#26649D"/>
<path d="M444.967 31.9976L444.967 31.0996C446.687 29.9684 448.287 28.662 449.742 27.2012C451.19 25.7344 452.487 24.1237 453.614 22.3939L454.505 22.3939C454.505 24.941 453.501 27.3837 451.712 29.1847C449.923 30.9858 447.497 31.9976 444.967 31.9976Z" fill="#26649D"/>
</g>
<g opacity="0.2">
<path d="M476.758 43.2L475.866 43.2C473.615 39.7106 470.671 36.7279 467.22 34.4396L467.22 33.5416C469.749 33.5416 472.176 34.5534 473.964 36.3545C475.753 38.1555 476.758 40.5982 476.758 43.1453L476.758 43.2Z" fill="#26649D"/>
<path d="M487.884 33.5964L487.884 34.4943C486.164 35.6255 484.564 36.9319 483.11 38.3927C481.661 39.8596 480.364 41.4702 479.238 43.2L478.346 43.2C478.346 40.653 479.351 38.2102 481.14 36.4092C482.929 34.6082 485.355 33.5964 487.884 33.5964Z" fill="#26649D"/>
<path d="M478.346 22.3939L479.238 22.3939C480.364 24.1237 481.661 25.7344 483.11 27.2012C484.564 28.662 486.164 29.9684 487.884 31.0996L487.884 31.9976C485.355 31.9976 482.929 30.9858 481.14 29.1847C479.351 27.3837 478.346 24.9409 478.346 22.3939Z" fill="#26649D"/>
<path d="M467.22 31.9976L467.22 31.0996C470.671 28.8113 473.615 25.8286 475.866 22.3392L476.758 22.3392C476.758 24.8862 475.753 27.3289 473.964 29.13C472.176 30.931 469.749 31.9428 467.22 31.9428L467.22 31.9976Z" fill="#26649D"/>
</g>
<g opacity="0.2">
<path d="M499 43.2L498.13 43.2C496.996 41.4726 495.696 39.8624 494.247 38.3927C492.777 36.9321 491.162 35.6259 489.429 34.4943L489.429 33.5964C490.681 33.5964 491.921 33.8448 493.078 34.3276C494.234 34.8104 495.285 35.518 496.17 36.4099C497.055 37.3018 497.756 38.3606 498.234 39.5257C498.713 40.6908 498.958 41.9394 498.957 43.2L499 43.2Z" fill="#26649D"/>
<path d="M489.429 31.9976L489.429 31.0996C492.881 28.8151 495.822 25.8315 498.065 22.3392L498.957 22.3392C498.958 23.5998 498.713 24.8484 498.234 26.0135C497.756 27.1786 497.055 28.2374 496.17 29.1293C495.285 30.0212 494.234 30.7288 493.078 31.2116C491.921 31.6943 490.681 31.9428 489.429 31.9428L489.429 31.9976Z" fill="#26649D"/>
</g>
<g opacity="0.2">
<path d="M476.758 20.7952L475.866 20.7952C473.601 17.332 470.659 14.3698 467.22 12.0895L467.22 11.1915C469.749 11.1915 472.176 12.2033 473.964 14.0044C475.753 15.8054 476.758 18.2481 476.758 20.7952Z" fill="#26649D"/>
<path d="M487.884 11.1915L487.884 12.0895C486.164 13.2247 484.564 14.5347 483.11 15.9988C481.662 17.4622 480.365 19.0692 479.238 20.7952L478.346 20.7952C478.346 18.2481 479.351 15.8054 481.14 14.0044C482.929 12.2033 485.355 11.1915 487.884 11.1915Z" fill="#26649D"/>
<path d="M478.346 9.53674e-06L479.238 9.61471e-06C480.365 1.72602 481.662 3.33296 483.11 4.79636C484.564 6.2572 486.164 7.56354 487.884 8.69477L487.884 9.59271C485.357 9.59271 482.932 8.5824 481.144 6.78374C479.355 4.98507 478.349 2.54516 478.346 9.53674e-06Z" fill="#26649D"/>
<path d="M467.22 9.59271L467.22 8.69477C470.662 6.4224 473.605 3.46315 475.866 1.02927e-05L476.758 1.03706e-05C476.755 2.54516 475.749 4.98507 473.961 6.78374C472.172 8.5824 469.748 9.59271 467.22 9.59271Z" fill="#26649D"/>
</g>
<g opacity="0.2">
<path d="M499 20.7952L498.13 20.7952C496.996 19.0714 495.695 17.4648 494.247 15.9988C492.794 14.5373 491.198 13.2275 489.483 12.0895L489.483 11.1915C490.735 11.1915 491.975 11.44 493.132 11.9228C494.288 12.4055 495.339 13.1131 496.224 14.005C497.109 14.8969 497.81 15.9557 498.288 17.1208C498.767 18.2859 499.012 19.5345 499.011 20.7952L499 20.7952Z" fill="#26649D"/>
<path d="M489.429 9.59271L489.429 8.69477C492.895 6.4332 495.858 3.47264 498.13 1.02974e-05L499.022 1.03754e-05C499.022 2.54415 498.018 4.98409 496.231 6.78307C494.444 8.58205 492.021 9.59271 489.494 9.59271L489.429 9.59271Z" fill="#26649D"/>
</g>
<g opacity="0.5">
<path d="M154.148 56.0012L154.148 56.8882C152.437 58.0231 150.842 59.3252 149.385 60.7757C147.933 62.2385 146.632 63.8455 145.502 65.572L144.653 65.572C144.651 64.3115 144.895 63.0628 145.373 61.8976C145.851 60.7325 146.552 59.6739 147.438 58.7825C148.323 57.8912 149.374 57.1847 150.532 56.7036C151.689 56.2226 152.929 55.9764 154.181 55.9793L154.148 56.0012Z" fill="#26649D"/>
</g>
<g opacity="0.5">
<path d="M165.318 65.5939L164.426 65.5939C162.173 62.1242 159.229 59.1634 155.78 56.8992L155.78 56.0012C157.032 55.9998 158.272 56.2468 159.429 56.7283C160.586 57.2097 161.638 57.9161 162.524 58.807C163.41 59.6979 164.112 60.7559 164.592 61.9204C165.071 63.085 165.318 64.3333 165.318 65.5939Z" fill="#26649D"/>
<path d="M176.401 56.0012L176.401 56.8882C174.69 58.0231 173.094 59.3252 171.637 60.7757C170.183 62.2359 168.882 63.8432 167.755 65.572L166.863 65.572C166.863 64.3114 167.109 63.0631 167.589 61.8985C168.068 60.734 168.771 59.676 169.657 58.7851C170.543 57.8942 171.595 57.1878 172.752 56.7064C173.909 56.2249 175.149 55.9779 176.401 55.9793L176.401 56.0012Z" fill="#26649D"/>
</g>
<g opacity="0.2">
<path d="M187.527 65.5939L186.636 65.5939C184.374 62.1308 181.431 59.1715 177.989 56.8992L177.989 56.0012C179.241 55.9998 180.481 56.2468 181.638 56.7283C182.796 57.2097 183.847 57.9161 184.733 58.807C185.619 59.6979 186.322 60.7559 186.801 61.9204C187.281 63.085 187.527 64.3333 187.527 65.5939Z" fill="#26649D"/>
<path d="M198.643 56.0012L198.643 56.8882C196.932 58.0231 195.336 59.3252 193.879 60.7757C192.431 62.2391 191.134 63.846 190.007 65.572L189.115 65.572C189.115 63.0279 190.119 60.5879 191.906 58.789C193.693 56.99 196.116 55.9793 198.643 55.9793L198.643 56.0012Z" fill="#26649D"/>
<path d="M189.115 44.7988L190.007 44.7988C192.258 48.2846 195.198 51.2666 198.643 53.5593L198.643 54.4572C196.115 54.4543 193.692 53.4412 191.905 51.6405C190.119 49.8398 189.115 47.3987 189.115 44.8536L189.115 44.7988Z" fill="#26649D"/>
<path d="M177.989 54.4025L177.989 53.5045C181.434 51.2082 184.377 48.227 186.636 44.7441L187.527 44.7441C187.527 47.2911 186.523 49.7338 184.734 51.5349C182.945 53.3359 180.519 54.3477 177.989 54.3477L177.989 54.4025Z" fill="#26649D"/>
</g>
<g opacity="0.1">
<path d="M232.022 65.5939L231.13 65.5939C228.877 62.1242 225.933 59.1634 222.484 56.8992L222.484 56.0012C223.736 55.9998 224.976 56.2468 226.133 56.7283C227.29 57.2097 228.342 57.9161 229.228 58.807C230.113 59.6979 230.816 60.7559 231.296 61.9204C231.775 63.085 232.022 64.3333 232.022 65.5939Z" fill="#26649D"/>
<path d="M243.148 56.0012L243.148 56.8882C241.434 58.0228 239.834 59.3249 238.374 60.7757C236.926 62.2391 235.629 63.846 234.502 65.572L233.61 65.572C233.61 64.3114 233.857 63.0631 234.336 61.8985C234.816 60.734 235.518 59.676 236.404 58.7851C237.29 57.8942 238.342 57.1878 239.499 56.7064C240.656 56.2249 241.896 55.9779 243.148 55.9793L243.148 56.0012Z" fill="#26649D"/>
<path d="M233.61 44.7988L234.502 44.7988C236.753 48.2883 239.697 51.271 243.148 53.5593L243.148 54.4572C240.619 54.4572 238.192 53.4454 236.404 51.6444C234.615 49.8433 233.61 47.4006 233.61 44.8536L233.61 44.7988Z" fill="#26649D"/>
<path d="M222.484 54.4025L222.484 53.5045C225.935 51.2162 228.879 48.2335 231.13 44.7441L232.022 44.7441C232.022 47.2911 231.017 49.7338 229.228 51.5349C227.439 53.3359 225.013 54.3477 222.484 54.3477L222.484 54.4025Z" fill="#26649D"/>
</g>
</g>
</g>
<defs>
<clipPath id="clip0_582_2326">
<path d="M6.99383e-07 136C3.13125e-07 140.418 3.58172 144 8 144L499 144L499 2.83652e-05L8 -1.45594e-05C3.58172 -1.49457e-05 1.22758e-05 3.58171 1.18895e-05 7.99998L6.99383e-07 136Z" fill="white"/>
</clipPath>
</defs>
</svg>
