<svg width="152" height="91" viewBox="0 0 152 91" fill="none" xmlns="http://www.w3.org/2000/svg">
<g clip-path="url(#clip0_582_2709)">
<g opacity="0.7">
<g opacity="0.3">
<path d="M141.77 81.8199L140.95 81.8199C138.873 85.0175 136.148 87.743 132.95 89.8199L132.95 90.6399C135.276 90.6399 137.507 89.716 139.151 88.0713C140.796 86.4266 141.72 84.1959 141.72 81.8699L141.77 81.8199Z" fill="#26649D"/>
<path d="M152 90.5899L152 89.7699C150.424 88.7338 148.956 87.5411 147.62 86.2099C146.266 84.875 145.052 83.4039 144 81.8199L143.18 81.8199C143.188 82.9719 143.423 84.1109 143.873 85.1715C144.323 86.2321 144.978 87.1933 145.8 87.9999C146.61 88.8207 147.576 89.4723 148.64 89.9169C149.705 90.3615 150.847 90.5903 152 90.5899V90.5899Z" fill="#26649D"/>
</g>
<g opacity="0.6">
<path d="M100.86 81.8199L100 81.8199C98.967 83.4015 97.774 84.8725 96.44 86.2099C95.1005 87.5416 93.6296 88.7344 92.05 89.7699L92.05 90.5899C94.3759 90.5899 96.6066 89.666 98.2513 88.0213C99.896 86.3766 100.82 84.1459 100.82 81.8199L100.86 81.8199Z" fill="#26649D"/>
<path d="M111.09 90.5899L111.09 89.7699C109.51 88.7344 108.039 87.5416 106.7 86.2099C105.366 84.8725 104.173 83.4015 103.14 81.8199L102.32 81.8199C102.32 84.1459 103.244 86.3766 104.889 88.0213C106.533 89.666 108.764 90.5899 111.09 90.5899Z" fill="#26649D"/>
</g>
<g opacity="0.4">
<path d="M122.78 80.36L123.59 80.36C124.634 78.7928 125.83 77.3324 127.16 76C128.496 74.6688 129.964 73.4761 131.54 72.44L131.54 71.6C130.389 71.5974 129.249 71.8221 128.185 72.2614C127.121 72.7007 126.154 73.3459 125.34 74.1599C124.526 74.9738 123.881 75.9406 123.441 77.0046C123.002 78.0686 122.777 79.2089 122.78 80.36Z" fill="#26649D"/>
<path d="M112.55 71.6L112.55 72.41C114.125 73.459 115.592 74.6615 116.93 76C118.265 77.3359 119.461 78.8033 120.5 80.38L121.32 80.38C121.32 79.2288 121.093 78.0888 120.652 77.0254C120.211 75.9619 119.565 74.9958 118.751 74.1822C117.936 73.3686 116.969 72.7236 115.905 72.2839C114.841 71.8443 113.701 71.6187 112.55 71.62L112.55 71.6Z" fill="#26649D"/>
<path d="M121.32 61.37L120.5 61.37C118.403 64.5375 115.681 67.2429 112.5 69.32L112.5 70.14C114.826 70.14 117.057 69.216 118.701 67.5713C120.346 65.9266 121.27 63.6959 121.27 61.37L121.32 61.37Z" fill="#26649D"/>
<path d="M131.54 70.14L131.54 69.32C128.378 67.2409 125.675 64.5351 123.6 61.37L122.78 61.37C122.779 62.5212 123.004 63.6614 123.444 64.7254C123.884 65.7893 124.529 66.7562 125.342 67.5707C126.156 68.3852 127.122 69.0314 128.185 69.4722C129.249 69.9131 130.389 70.14 131.54 70.14Z" fill="#26649D"/>
</g>
<g opacity="0.5">
<path d="M102.32 80.36L103.14 80.36C105.226 77.1864 107.951 74.4823 111.14 72.42L111.14 71.6C109.989 71.5987 108.849 71.8243 107.785 72.2639C106.721 72.7036 105.754 73.3486 104.939 74.1622C104.125 74.9758 103.479 75.9419 103.038 77.0054C102.597 78.0688 102.37 79.2088 102.37 80.36L102.32 80.36Z" fill="#26649D"/>
<path d="M92.0901 71.6L92.0901 72.41C93.6684 73.4587 95.1389 74.6612 96.4801 76C97.7962 77.332 98.9755 78.7926 100 80.36L100.82 80.36C100.82 79.2088 100.593 78.0688 100.152 77.0054C99.7114 75.9419 99.0653 74.9758 98.2508 74.1622C97.4363 73.3486 96.4694 72.7036 95.4054 72.2639C94.3415 71.8243 93.2013 71.5987 92.0501 71.6L92.0901 71.6Z" fill="#26649D"/>
<path d="M100.86 61.37L100 61.37C97.9249 64.5385 95.2185 67.2449 92.05 69.32L92.05 70.14C94.3759 70.14 96.6066 69.216 98.2513 67.5713C99.896 65.9266 100.82 63.6959 100.82 61.37L100.86 61.37Z" fill="#26649D"/>
<path d="M111.09 70.14L111.09 69.32C107.903 67.2503 105.18 64.5435 103.09 61.37L102.27 61.37C102.27 62.5217 102.497 63.6621 102.938 64.7261C103.378 65.7902 104.024 66.757 104.839 67.5713C105.653 68.3857 106.62 69.0317 107.684 69.4724C108.748 69.9131 109.888 70.14 111.04 70.14L111.09 70.14Z" fill="#26649D"/>
</g>
<g opacity="0.65">
<path d="M92.0899 51.14L92.0899 52C95.2458 54.0606 97.9393 56.7542 99.9999 59.91L100.82 59.91C100.82 57.5841 99.896 55.3534 98.2513 53.7087C96.6066 52.064 94.3759 51.14 92.0499 51.14L92.0899 51.14Z" fill="#26649D"/>
<path d="M100.86 40.91L100 40.91C97.9376 44.1024 95.2294 46.8276 92.05 48.91L92.05 49.73C93.2017 49.73 94.3421 49.5031 95.4061 49.0624C96.4701 48.6217 97.4369 47.9757 98.2513 47.1613C99.0657 46.3469 99.7117 45.3801 100.152 44.3161C100.593 43.2521 100.82 42.1117 100.82 40.96L100.86 40.91Z" fill="#26649D"/>
</g>
<g opacity="0.4">
<path d="M80.4 81.8199L79.59 81.8199C77.5057 85.0115 74.7816 87.7357 71.59 89.8199L71.59 90.6399C72.7412 90.6399 73.8812 90.413 74.9446 89.9722C76.0081 89.5313 76.9742 88.8852 77.7878 88.0707C78.6014 87.2562 79.2464 86.2893 79.6861 85.2253C80.1257 84.1614 80.3513 83.0212 80.35 81.8699L80.4 81.8199Z" fill="#26649D"/>
<path d="M90.63 90.5899L90.63 89.7699C89.0538 88.7338 87.5864 87.5411 86.25 86.2099C84.913 84.8726 83.7167 83.4016 82.68 81.8199L81.86 81.8199C81.86 84.1459 82.784 86.3766 84.4287 88.0213C86.0734 89.666 88.3041 90.5899 90.63 90.5899Z" fill="#26649D"/>
</g>
<g opacity="0.3">
<path d="M39.49 81.8199L38.67 81.8199C36.5931 85.0175 33.8675 87.743 30.67 89.8199L30.67 90.6399C32.9959 90.6399 35.2266 89.716 36.8713 88.0713C38.516 86.4266 39.44 84.1959 39.44 81.8699L39.49 81.8199Z" fill="#26649D"/>
<path d="M49.72 90.5899L49.72 89.7699C48.1438 88.7338 46.6763 87.5411 45.34 86.2099C44.0029 84.8726 42.8067 83.4016 41.77 81.8199L40.95 81.8199C40.95 84.1459 41.874 86.3766 43.5186 88.0213C45.1633 89.666 47.394 90.5899 49.72 90.5899Z" fill="#26649D"/>
</g>
<g opacity="0.5">
<path d="M61.4101 80.36L62.2301 80.36C63.2673 78.7908 64.4599 77.33 65.7901 76C67.1275 74.666 68.5985 73.473 70.1801 72.44L70.1801 71.6C69.0288 71.5987 67.8886 71.8243 66.8247 72.2639C65.7607 72.7036 64.7938 73.3486 63.9793 74.1622C63.1648 74.9758 62.5187 75.9419 62.0778 77.0054C61.637 78.0688 61.4101 79.2088 61.4101 80.36Z" fill="#26649D"/>
<path d="M51.1801 71.6L51.1801 72.41C52.7551 73.459 54.2223 74.6615 55.5601 76C56.8947 77.3359 58.0908 78.8033 59.1301 80.38L59.9501 80.38C59.9501 79.2288 59.7232 78.0888 59.2823 77.0254C58.8414 75.9619 58.1953 74.9958 57.3808 74.1822C56.5663 73.3686 55.5994 72.7236 54.5355 72.2839C53.4715 71.8443 52.3313 71.6187 51.1801 71.62L51.1801 71.6Z" fill="#26649D"/>
<path d="M59.9501 61.37L59.1301 61.37C57.0477 64.5325 54.3426 67.2376 51.1801 69.32L51.1801 70.14C53.506 70.14 55.7367 69.216 57.3814 67.5713C59.0261 65.9266 59.9501 63.6959 59.9501 61.37Z" fill="#26649D"/>
<path d="M70.1801 70.14L70.1801 69.32C68.5984 68.2833 67.1274 67.087 65.7901 65.75C64.4589 64.4136 63.2662 62.9462 62.2301 61.37L61.4101 61.37C61.4101 63.6959 62.334 65.9266 63.9787 67.5713C65.6234 69.216 67.8541 70.14 70.1801 70.14Z" fill="#26649D"/>
</g>
<g opacity="0.3">
<path d="M40.95 80.36L41.77 80.36C43.8637 77.1925 46.5868 74.4897 49.77 72.42L49.77 71.6C48.6188 71.5987 47.4786 71.8243 46.4146 72.2639C45.3507 72.7036 44.3838 73.3486 43.5693 74.1622C42.7548 74.9758 42.1086 75.9419 41.6678 77.0054C41.2269 78.0688 41 79.2088 41 80.36L40.95 80.36Z" fill="#26649D"/>
<path d="M30.72 71.6L30.72 72.41C33.9116 74.4943 36.6358 77.2184 38.72 80.41L39.54 80.41C39.54 79.2588 39.3131 78.1188 38.8723 77.0554C38.4314 75.9919 37.7853 75.0258 36.9708 74.2122C36.1563 73.3986 35.1894 72.7536 34.1254 72.3139C33.0615 71.8743 31.9213 71.6487 30.77 71.65L30.72 71.6Z" fill="#26649D"/>
<path d="M39.49 61.37L38.67 61.37C37.6339 62.9462 36.4412 64.4136 35.11 65.75C33.7726 67.087 32.3016 68.2833 30.72 69.32L30.72 70.14C33.0459 70.14 35.2766 69.216 36.9213 67.5713C38.566 65.9266 39.49 63.6959 39.49 61.37Z" fill="#26649D"/>
<path d="M49.72 70.14L49.72 69.32C46.5394 67.2429 43.817 64.5375 41.72 61.37L40.9 61.37C40.9 63.6959 41.8239 65.9266 43.4686 67.5713C45.1133 69.216 47.344 70.14 49.67 70.14L49.72 70.14Z" fill="#26649D"/>
</g>
<g opacity="0.3">
<path d="M81.86 59.9099L82.68 59.9099C84.7594 56.7559 87.4655 54.0634 90.63 51.9999L90.63 51.1799C88.3041 51.1799 86.0734 52.1039 84.4287 53.7486C82.784 55.3933 81.86 57.624 81.86 59.9499L81.86 59.9099Z" fill="#26649D"/>
<path d="M71.64 51.14L71.64 52C74.8085 54.0717 77.5123 56.7789 79.58 59.95L80.4 59.95C80.4013 58.7988 80.1757 57.6586 79.7361 56.5946C79.2964 55.5307 78.6514 54.5638 77.8378 53.7493C77.0242 52.9348 76.0581 52.2886 74.9946 51.8478C73.9312 51.4069 72.7912 51.18 71.64 51.18L71.64 51.14Z" fill="#26649D"/>
<path d="M80.4 40.91L79.59 40.91C78.5413 42.4883 77.3388 43.9588 76 45.3C74.6637 46.6311 73.1962 47.8239 71.62 48.86L71.62 49.68C72.7712 49.68 73.9112 49.4531 74.9746 49.0122C76.0381 48.5713 77.0042 47.9252 77.8178 47.1107C78.6314 46.2962 79.2764 45.3293 79.7161 44.2654C80.1557 43.2014 80.3813 42.0612 80.38 40.91L80.4 40.91Z" fill="#26649D"/>
<path d="M90.63 49.68L90.63 48.86C87.4565 46.7703 84.7497 44.0465 82.68 40.86L81.86 40.86C81.86 43.1859 82.784 45.4166 84.4287 47.0613C86.0734 48.706 88.3041 49.63 90.63 49.63L90.63 49.68Z" fill="#26649D"/>
</g>
<g opacity="0.65">
<path d="M61.4101 59.9099L62.2301 59.9099C63.2656 58.3303 64.4584 56.8594 65.7901 55.5199C67.1294 54.1998 68.6004 53.0204 70.1801 51.9999L70.1801 51.1799C67.8541 51.1799 65.6234 52.1039 63.9787 53.7486C62.334 55.3933 61.4101 57.624 61.4101 59.9499L61.4101 59.9099Z" fill="#26649D"/>
<path d="M51.1801 51.14L51.1801 52C54.3486 54.0751 57.0549 56.7815 59.1301 59.95L59.9501 59.95C59.9501 57.6241 59.0261 55.3934 57.3814 53.7487C55.7367 52.104 53.506 51.18 51.1801 51.18L51.1801 51.14Z" fill="#26649D"/>
<path d="M59.9501 40.91L59.1301 40.91C57.0603 44.0965 54.3536 46.8203 51.1801 48.91L51.1801 49.73C52.3318 49.73 53.4722 49.5031 54.5362 49.0624C55.6002 48.6217 56.567 47.9757 57.3814 47.1613C58.1958 46.3469 58.8418 45.3801 59.2825 44.3161C59.7232 43.2521 59.9501 42.1117 59.9501 40.96L59.9501 40.91Z" fill="#26649D"/>
<path d="M70.1801 49.68L70.1801 48.86C68.5985 47.8269 67.1275 46.634 65.7901 45.3C64.4584 43.9605 63.2656 42.4896 62.2301 40.91L61.4101 40.91C61.4101 43.2359 62.334 45.4666 63.9787 47.1113C65.6234 48.756 67.8541 49.68 70.1801 49.68Z" fill="#26649D"/>
</g>
<g opacity="0.6">
<path d="M40.95 59.91L41.77 59.91C43.8597 56.7365 46.5835 54.0298 49.77 51.96L49.77 51.14C47.4441 51.14 45.2134 52.064 43.5687 53.7087C41.924 55.3534 41 57.5841 41 59.91L40.95 59.91Z" fill="#26649D"/>
<path d="M30.72 51.14L30.72 52C32.3015 53.033 33.7726 54.226 35.11 55.56C36.4417 56.8995 37.6344 58.3704 38.67 59.95L39.49 59.95C39.49 57.6241 38.566 55.3934 36.9213 53.7487C35.2766 52.104 33.0459 51.18 30.72 51.18L30.72 51.14Z" fill="#26649D"/>
<path d="M39.49 40.91L38.67 40.91C37.6344 42.4896 36.4417 43.9605 35.11 45.3C33.7726 46.634 32.3015 47.8269 30.72 48.86L30.72 49.68C33.0459 49.68 35.2766 48.756 36.9213 47.1113C38.566 45.4666 39.49 43.2359 39.49 40.91Z" fill="#26649D"/>
<path d="M49.72 49.68L49.72 48.86C46.5284 46.7757 43.8043 44.0516 41.72 40.86L40.9 40.86C40.9 43.1859 41.8239 45.4166 43.4686 47.0613C45.1133 48.706 47.344 49.63 49.67 49.63L49.72 49.68Z" fill="#26649D"/>
</g>
<g opacity="0.5">
<path d="M40.95 39.45L41.77 39.45C43.8617 36.2644 46.5844 33.5417 49.77 31.45L49.77 30.63C47.4441 30.63 45.2134 31.554 43.5687 33.1987C41.924 34.8434 41 37.0741 41 39.4L40.95 39.45Z" fill="#26649D"/>
<path d="M30.72 30.68L30.72 31.5C32.3016 32.5367 33.7726 33.7329 35.11 35.07C36.4412 36.4064 37.6339 37.8738 38.67 39.45L39.49 39.45C39.49 37.124 38.566 34.8934 36.9213 33.2487C35.2766 31.604 33.0459 30.68 30.72 30.68Z" fill="#26649D"/>
<path d="M39.49 20.46L38.67 20.46C37.6339 22.0362 36.4412 23.5037 35.11 24.84C33.7726 26.1741 32.3015 27.367 30.72 28.4L30.72 29.22C31.8712 29.2213 33.0114 28.9957 34.0754 28.5561C35.1393 28.1164 36.1062 27.4714 36.9207 26.6578C37.7352 25.8442 38.3814 24.8781 38.8222 23.8146C39.2631 22.7512 39.49 21.6112 39.49 20.46Z" fill="#26649D"/>
<path d="M49.72 29.22L49.72 28.41C48.1458 27.3674 46.6787 26.1715 45.34 24.84C44.0053 23.5041 42.8092 22.0367 41.77 20.46L40.95 20.46C40.95 21.6112 41.1769 22.7512 41.6177 23.8146C42.0586 24.8781 42.7047 25.8442 43.5192 26.6578C44.3337 27.4714 45.3006 28.1164 46.3646 28.5561C47.4286 28.9957 48.5687 29.2213 49.72 29.22Z" fill="#26649D"/>
</g>
<g opacity="0.2">
<path d="M20.4999 59.91L21.3099 59.91C23.3996 56.7365 26.1234 54.0298 29.3099 51.96L29.3099 51.14C28.1587 51.14 27.0188 51.3669 25.9553 51.8078C24.8919 52.2486 23.9257 52.8948 23.1122 53.7093C22.2986 54.5238 21.6535 55.4907 21.2139 56.5546C20.7742 57.6186 20.5486 58.7588 20.5499 59.91L20.4999 59.91Z" fill="#26649D"/>
<path d="M10.2699 51.14L10.2699 52C13.4384 54.0751 16.1447 56.7815 18.2199 59.95L18.9999 59.95C19.0012 58.7988 18.7756 57.6586 18.3359 56.5946C17.8963 55.5307 17.2512 54.5638 16.4377 53.7493C15.6241 52.9348 14.658 52.2886 13.5945 51.8478C12.531 51.4069 11.3911 51.18 10.2399 51.18L10.2699 51.14Z" fill="#26649D"/>
<path d="M18.9999 40.91L18.1899 40.91C16.1202 44.0965 13.4134 46.8203 10.2399 48.91L10.2399 49.73C11.3954 49.73 12.5394 49.5014 13.6061 49.0575C14.6729 48.6135 15.6413 47.9629 16.4555 47.1431C17.2697 46.3232 17.9137 45.3505 18.3504 44.2807C18.7871 43.211 19.0078 42.0654 18.9999 40.91Z" fill="#26649D"/>
<path d="M29.2599 49.68L29.2599 48.86C26.0683 46.7757 23.3442 44.0516 21.2599 40.86L20.4499 40.86C20.4486 42.0112 20.6742 43.1514 21.1138 44.2154C21.5535 45.2793 22.1985 46.2462 23.0121 47.0607C23.8257 47.8752 24.7918 48.5214 25.8553 48.9622C26.9187 49.4031 28.0587 49.63 29.2099 49.63L29.2599 49.68Z" fill="#26649D"/>
</g>
<g opacity="0.2">
<path d="M-6.14168e-05 59.91L0.819946 59.91C2.90379 56.7461 5.62516 54.0519 8.80994 52L8.80994 51.18C7.65824 51.1748 6.51679 51.3964 5.45074 51.8323C4.3847 52.2681 3.41495 52.9097 2.59686 53.7204C1.77878 54.531 1.12838 55.4949 0.6828 56.5569C0.237218 57.6189 0.00517907 58.7583 -6.14168e-05 59.91Z" fill="#26649D"/>
<path d="M8.80994 49.68L8.80994 48.86C5.63048 46.7776 2.92236 44.0524 0.85994 40.86L-6.10352e-05 40.86C-6.11368e-05 43.1859 0.923924 45.4166 2.56862 47.0613C4.21331 48.706 6.44399 49.63 8.76994 49.63L8.80994 49.68Z" fill="#26649D"/>
</g>
<g opacity="0.3">
<path d="M20.4999 39.45L21.3099 39.45C23.4016 36.2644 26.1244 33.5417 29.3099 31.45L29.3099 30.63C28.1587 30.63 27.0188 30.8569 25.9553 31.2978C24.8919 31.7386 23.9257 32.3848 23.1122 33.1993C22.2986 34.0138 21.6535 34.9807 21.2139 36.0446C20.7742 37.1086 20.5486 38.2488 20.5499 39.4L20.4999 39.45Z" fill="#26649D"/>
<path d="M10.2699 30.68L10.2699 31.5C13.4374 33.597 16.1428 36.3194 18.2199 39.5L18.9999 39.5C19.0012 38.3488 18.7756 37.2086 18.3359 36.1446C17.8963 35.0806 17.2512 34.1138 16.4377 33.2993C15.6241 32.4848 14.658 31.8386 13.5945 31.3978C12.531 30.9569 11.3911 30.73 10.2399 30.73L10.2699 30.68Z" fill="#26649D"/>
<path d="M19 20.46L18.19 20.46C16.1109 23.6225 13.4051 26.3249 10.24 28.4L10.24 29.22C11.3911 29.2227 12.5314 28.9979 13.5954 28.5586C14.6594 28.1193 15.6261 27.4741 16.4401 26.6602C17.2541 25.8462 17.8992 24.8794 18.3385 23.8154C18.7778 22.7514 19.0026 21.6111 19 20.46Z" fill="#26649D"/>
<path d="M29.2599 29.22L29.2599 28.41C27.6857 27.3674 26.2186 26.1715 24.8799 24.84C23.5452 23.5041 22.3491 22.0367 21.3099 20.46L20.4999 20.46C20.4972 21.6111 20.722 22.7514 21.1613 23.8154C21.6006 24.8794 22.2458 25.8462 23.0597 26.6602C23.8737 27.4741 24.8405 28.1193 25.9045 28.5586C26.9685 28.9979 28.1088 29.2227 29.2599 29.22Z" fill="#26649D"/>
</g>
<g opacity="0.2">
<path d="M-0.000107197 39.45L0.8199 39.45C2.88964 36.2635 5.59639 33.5397 8.7699 31.45L8.7699 30.63C7.61399 30.63 6.46947 30.8585 5.40218 31.3023C4.33488 31.7462 3.36585 32.3967 2.55083 33.2163C1.7358 34.036 1.09084 35.0087 0.653061 36.0785C0.215278 37.1483 -0.00669704 38.2941 -0.000107197 39.45Z" fill="#26649D"/>
<path d="M8.80994 29.22L8.80994 28.41C7.2325 27.3676 5.76202 26.1718 4.41994 24.84C3.08877 23.5037 1.89605 22.0362 0.85994 20.46L-6.10352e-05 20.46C-6.20392e-05 21.6112 0.226853 22.7512 0.667709 23.8146C1.10857 24.8781 1.75471 25.8442 2.56921 26.6578C3.38371 27.4714 4.3506 28.1164 5.41457 28.5561C6.47853 28.9957 7.61872 29.2213 8.76994 29.22L8.80994 29.22Z" fill="#26649D"/>
</g>
<g opacity="0.5">
<path d="M40.95 19L41.77 19C42.8067 17.4184 44.0029 15.9473 45.34 14.61C46.6763 13.2788 48.1438 12.0861 49.72 11.05L49.72 10.23C47.394 10.23 45.1633 11.154 43.5186 12.7987C41.874 14.4433 40.95 16.674 40.95 19Z" fill="#26649D"/>
<path d="M30.7199 10.23L30.7199 11.05C33.9175 13.1269 36.643 15.8524 38.7199 19.05L39.5399 19.05C39.5399 16.724 38.6159 14.4933 36.9712 12.8487C35.3266 11.204 33.0959 10.28 30.7699 10.28L30.7199 10.23Z" fill="#26649D"/>
</g>
<g opacity="0.3">
<path d="M20.5 19L21.31 19C22.3467 17.4184 23.543 15.9473 24.88 14.61C26.2164 13.2788 27.6838 12.0861 29.26 11.05L29.26 10.23C28.1088 10.23 26.9689 10.4569 25.9054 10.8978C24.8419 11.3386 23.8758 11.9848 23.0622 12.7993C22.2486 13.6138 21.6036 14.5806 21.1639 15.6446C20.7243 16.7086 20.4987 17.8488 20.5 19Z" fill="#26649D"/>
<path d="M10.27 10.23L10.27 11.05C11.8462 12.0861 13.3136 13.2788 14.65 14.61C15.987 15.9473 17.1833 17.4184 18.22 19L19 19C19.0013 17.8488 18.7757 16.7086 18.3361 15.6446C17.8964 14.5806 17.2514 13.6138 16.4378 12.7993C15.6242 11.9848 14.6581 11.3386 13.5946 10.8978C12.5311 10.4569 11.3912 10.23 10.24 10.23L10.27 10.23Z" fill="#26649D"/>
<path d="M19 0L18.19 -3.54308e-08C17.1508 1.57665 15.9547 3.04412 14.62 4.38C13.296 5.73048 11.8386 6.94334 10.27 8L10.27 8.82C12.5957 8.8193 14.8259 7.89486 16.47 6.25C17.2846 5.42766 17.9277 4.4517 18.362 3.3788C18.7963 2.30589 19.0132 1.1574 19 0V0Z" fill="#26649D"/>
<path d="M29.26 8.77L29.26 8C27.6834 6.96074 26.2159 5.76465 24.88 4.43C23.5427 3.07838 22.3465 1.59405 21.31 -3.47506e-07L20.5 -3.82912e-07C20.4974 1.15111 20.7222 2.29139 21.1615 3.35537C21.6009 4.41935 22.246 5.38606 23.06 6.2C23.8735 7.01534 24.8399 7.66206 25.9038 8.10308C26.9677 8.5441 28.1083 8.77074 29.26 8.77Z" fill="#26649D"/>
</g>
</g>
<g opacity="0.7">
<g opacity="0.3">
<path d="M141.77 81.8199L140.95 81.8199C138.873 85.0175 136.148 87.743 132.95 89.8199L132.95 90.6399C135.276 90.6399 137.507 89.716 139.151 88.0713C140.796 86.4266 141.72 84.1959 141.72 81.8699L141.77 81.8199Z" fill="#26649D"/>
<path d="M152 90.5899L152 89.7699C150.424 88.7338 148.956 87.5411 147.62 86.2099C146.266 84.875 145.052 83.4039 144 81.8199L143.18 81.8199C143.188 82.9719 143.423 84.1109 143.873 85.1715C144.323 86.2321 144.978 87.1933 145.8 87.9999C146.61 88.8207 147.576 89.4723 148.64 89.9169C149.705 90.3615 150.847 90.5903 152 90.5899V90.5899Z" fill="#26649D"/>
</g>
<g opacity="0.6">
<path d="M100.86 81.8199L100 81.8199C98.967 83.4015 97.774 84.8725 96.44 86.2099C95.1005 87.5416 93.6296 88.7344 92.05 89.7699L92.05 90.5899C94.3759 90.5899 96.6066 89.666 98.2513 88.0213C99.896 86.3766 100.82 84.1459 100.82 81.8199L100.86 81.8199Z" fill="#26649D"/>
<path d="M111.09 90.5899L111.09 89.7699C109.51 88.7344 108.039 87.5416 106.7 86.2099C105.366 84.8725 104.173 83.4015 103.14 81.8199L102.32 81.8199C102.32 84.1459 103.244 86.3766 104.889 88.0213C106.533 89.666 108.764 90.5899 111.09 90.5899Z" fill="#26649D"/>
</g>
<g opacity="0.4">
<path d="M122.78 80.36L123.59 80.36C124.634 78.7928 125.83 77.3324 127.16 76C128.496 74.6688 129.964 73.4761 131.54 72.44L131.54 71.6C130.389 71.5974 129.249 71.8221 128.185 72.2614C127.121 72.7007 126.154 73.3459 125.34 74.1599C124.526 74.9738 123.881 75.9406 123.441 77.0046C123.002 78.0686 122.777 79.2089 122.78 80.36Z" fill="#26649D"/>
<path d="M112.55 71.6L112.55 72.41C114.125 73.459 115.592 74.6615 116.93 76C118.265 77.3359 119.461 78.8033 120.5 80.38L121.32 80.38C121.32 79.2288 121.093 78.0888 120.652 77.0254C120.211 75.9619 119.565 74.9958 118.751 74.1822C117.936 73.3686 116.969 72.7236 115.905 72.2839C114.841 71.8443 113.701 71.6187 112.55 71.62L112.55 71.6Z" fill="#26649D"/>
<path d="M121.32 61.37L120.5 61.37C118.403 64.5375 115.681 67.2429 112.5 69.32L112.5 70.14C114.826 70.14 117.057 69.216 118.701 67.5713C120.346 65.9266 121.27 63.6959 121.27 61.37L121.32 61.37Z" fill="#26649D"/>
<path d="M131.54 70.14L131.54 69.32C128.378 67.2409 125.675 64.5351 123.6 61.37L122.78 61.37C122.779 62.5212 123.004 63.6614 123.444 64.7254C123.884 65.7893 124.529 66.7562 125.342 67.5707C126.156 68.3852 127.122 69.0314 128.185 69.4722C129.249 69.9131 130.389 70.14 131.54 70.14Z" fill="#26649D"/>
</g>
<g opacity="0.5">
<path d="M102.32 80.36L103.14 80.36C105.226 77.1864 107.951 74.4823 111.14 72.42L111.14 71.6C109.989 71.5987 108.849 71.8243 107.785 72.2639C106.721 72.7036 105.754 73.3486 104.939 74.1622C104.125 74.9758 103.479 75.9419 103.038 77.0054C102.597 78.0688 102.37 79.2088 102.37 80.36L102.32 80.36Z" fill="#26649D"/>
<path d="M92.0901 71.6L92.0901 72.41C93.6684 73.4587 95.1389 74.6612 96.4801 76C97.7962 77.332 98.9755 78.7926 100 80.36L100.82 80.36C100.82 79.2088 100.593 78.0688 100.152 77.0054C99.7114 75.9419 99.0653 74.9758 98.2508 74.1622C97.4363 73.3486 96.4694 72.7036 95.4054 72.2639C94.3415 71.8243 93.2013 71.5987 92.0501 71.6L92.0901 71.6Z" fill="#26649D"/>
<path d="M100.86 61.37L100 61.37C97.9249 64.5385 95.2185 67.2449 92.05 69.32L92.05 70.14C94.3759 70.14 96.6066 69.216 98.2513 67.5713C99.896 65.9266 100.82 63.6959 100.82 61.37L100.86 61.37Z" fill="#26649D"/>
<path d="M111.09 70.14L111.09 69.32C107.903 67.2503 105.18 64.5435 103.09 61.37L102.27 61.37C102.27 62.5217 102.497 63.6621 102.938 64.7261C103.378 65.7902 104.024 66.757 104.839 67.5713C105.653 68.3857 106.62 69.0317 107.684 69.4724C108.748 69.9131 109.888 70.14 111.04 70.14L111.09 70.14Z" fill="#26649D"/>
</g>
<g opacity="0.65">
<path d="M92.0899 51.14L92.0899 52C95.2458 54.0606 97.9393 56.7542 99.9999 59.91L100.82 59.91C100.82 57.5841 99.896 55.3534 98.2513 53.7087C96.6066 52.064 94.3759 51.14 92.0499 51.14L92.0899 51.14Z" fill="#26649D"/>
<path d="M100.86 40.91L100 40.91C97.9376 44.1024 95.2294 46.8276 92.05 48.91L92.05 49.73C93.2017 49.73 94.3421 49.5031 95.4061 49.0624C96.4701 48.6217 97.4369 47.9757 98.2513 47.1613C99.0657 46.3469 99.7117 45.3801 100.152 44.3161C100.593 43.2521 100.82 42.1117 100.82 40.96L100.86 40.91Z" fill="#26649D"/>
</g>
<g opacity="0.4">
<path d="M80.4 81.8199L79.59 81.8199C77.5057 85.0115 74.7816 87.7357 71.59 89.8199L71.59 90.6399C72.7412 90.6399 73.8812 90.413 74.9446 89.9722C76.0081 89.5313 76.9742 88.8852 77.7878 88.0707C78.6014 87.2562 79.2464 86.2893 79.6861 85.2253C80.1257 84.1614 80.3513 83.0212 80.35 81.8699L80.4 81.8199Z" fill="#26649D"/>
<path d="M90.63 90.5899L90.63 89.7699C89.0538 88.7338 87.5864 87.5411 86.25 86.2099C84.913 84.8726 83.7167 83.4016 82.68 81.8199L81.86 81.8199C81.86 84.1459 82.784 86.3766 84.4287 88.0213C86.0734 89.666 88.3041 90.5899 90.63 90.5899Z" fill="#26649D"/>
</g>
<g opacity="0.3">
<path d="M39.49 81.8199L38.67 81.8199C36.5931 85.0175 33.8675 87.743 30.67 89.8199L30.67 90.6399C32.9959 90.6399 35.2266 89.716 36.8713 88.0713C38.516 86.4266 39.44 84.1959 39.44 81.8699L39.49 81.8199Z" fill="#26649D"/>
<path d="M49.72 90.5899L49.72 89.7699C48.1438 88.7338 46.6763 87.5411 45.34 86.2099C44.0029 84.8726 42.8067 83.4016 41.77 81.8199L40.95 81.8199C40.95 84.1459 41.874 86.3766 43.5186 88.0213C45.1633 89.666 47.394 90.5899 49.72 90.5899Z" fill="#26649D"/>
</g>
<g opacity="0.5">
<path d="M61.4101 80.36L62.2301 80.36C63.2673 78.7908 64.4599 77.33 65.7901 76C67.1275 74.666 68.5985 73.473 70.1801 72.44L70.1801 71.6C69.0288 71.5987 67.8886 71.8243 66.8247 72.2639C65.7607 72.7036 64.7938 73.3486 63.9793 74.1622C63.1648 74.9758 62.5187 75.9419 62.0778 77.0054C61.637 78.0688 61.4101 79.2088 61.4101 80.36Z" fill="#26649D"/>
<path d="M51.1801 71.6L51.1801 72.41C52.7551 73.459 54.2223 74.6615 55.5601 76C56.8947 77.3359 58.0908 78.8033 59.1301 80.38L59.9501 80.38C59.9501 79.2288 59.7232 78.0888 59.2823 77.0254C58.8414 75.9619 58.1953 74.9958 57.3808 74.1822C56.5663 73.3686 55.5994 72.7236 54.5355 72.2839C53.4715 71.8443 52.3313 71.6187 51.1801 71.62L51.1801 71.6Z" fill="#26649D"/>
<path d="M59.9501 61.37L59.1301 61.37C57.0477 64.5325 54.3426 67.2376 51.1801 69.32L51.1801 70.14C53.506 70.14 55.7367 69.216 57.3814 67.5713C59.0261 65.9266 59.9501 63.6959 59.9501 61.37Z" fill="#26649D"/>
<path d="M70.1801 70.14L70.1801 69.32C68.5984 68.2833 67.1274 67.087 65.7901 65.75C64.4589 64.4136 63.2662 62.9462 62.2301 61.37L61.4101 61.37C61.4101 63.6959 62.334 65.9266 63.9787 67.5713C65.6234 69.216 67.8541 70.14 70.1801 70.14Z" fill="#26649D"/>
</g>
<g opacity="0.3">
<path d="M40.95 80.36L41.77 80.36C43.8637 77.1925 46.5868 74.4897 49.77 72.42L49.77 71.6C48.6188 71.5987 47.4786 71.8243 46.4146 72.2639C45.3507 72.7036 44.3838 73.3486 43.5693 74.1622C42.7548 74.9758 42.1086 75.9419 41.6678 77.0054C41.2269 78.0688 41 79.2088 41 80.36L40.95 80.36Z" fill="#26649D"/>
<path d="M30.72 71.6L30.72 72.41C33.9116 74.4943 36.6358 77.2184 38.72 80.41L39.54 80.41C39.54 79.2588 39.3131 78.1188 38.8723 77.0554C38.4314 75.9919 37.7853 75.0258 36.9708 74.2122C36.1563 73.3986 35.1894 72.7536 34.1254 72.3139C33.0615 71.8743 31.9213 71.6487 30.77 71.65L30.72 71.6Z" fill="#26649D"/>
<path d="M39.49 61.37L38.67 61.37C37.6339 62.9462 36.4412 64.4136 35.11 65.75C33.7726 67.087 32.3016 68.2833 30.72 69.32L30.72 70.14C33.0459 70.14 35.2766 69.216 36.9213 67.5713C38.566 65.9266 39.49 63.6959 39.49 61.37Z" fill="#26649D"/>
<path d="M49.72 70.14L49.72 69.32C46.5394 67.2429 43.817 64.5375 41.72 61.37L40.9 61.37C40.9 63.6959 41.8239 65.9266 43.4686 67.5713C45.1133 69.216 47.344 70.14 49.67 70.14L49.72 70.14Z" fill="#26649D"/>
</g>
<g opacity="0.3">
<path d="M81.86 59.9099L82.68 59.9099C84.7594 56.7559 87.4655 54.0634 90.63 51.9999L90.63 51.1799C88.3041 51.1799 86.0734 52.1039 84.4287 53.7486C82.784 55.3933 81.86 57.624 81.86 59.9499L81.86 59.9099Z" fill="#26649D"/>
<path d="M71.64 51.14L71.64 52C74.8085 54.0717 77.5123 56.7789 79.58 59.95L80.4 59.95C80.4013 58.7988 80.1757 57.6586 79.7361 56.5946C79.2964 55.5307 78.6514 54.5638 77.8378 53.7493C77.0242 52.9348 76.0581 52.2886 74.9946 51.8478C73.9312 51.4069 72.7912 51.18 71.64 51.18L71.64 51.14Z" fill="#26649D"/>
<path d="M80.4 40.91L79.59 40.91C78.5413 42.4883 77.3388 43.9588 76 45.3C74.6637 46.6311 73.1962 47.8239 71.62 48.86L71.62 49.68C72.7712 49.68 73.9112 49.4531 74.9746 49.0122C76.0381 48.5713 77.0042 47.9252 77.8178 47.1107C78.6314 46.2962 79.2764 45.3293 79.7161 44.2654C80.1557 43.2014 80.3813 42.0612 80.38 40.91L80.4 40.91Z" fill="#26649D"/>
<path d="M90.63 49.68L90.63 48.86C87.4565 46.7703 84.7497 44.0465 82.68 40.86L81.86 40.86C81.86 43.1859 82.784 45.4166 84.4287 47.0613C86.0734 48.706 88.3041 49.63 90.63 49.63L90.63 49.68Z" fill="#26649D"/>
</g>
<g opacity="0.65">
<path d="M61.4101 59.9099L62.2301 59.9099C63.2656 58.3303 64.4584 56.8594 65.7901 55.5199C67.1294 54.1998 68.6004 53.0204 70.1801 51.9999L70.1801 51.1799C67.8541 51.1799 65.6234 52.1039 63.9787 53.7486C62.334 55.3933 61.4101 57.624 61.4101 59.9499L61.4101 59.9099Z" fill="#26649D"/>
<path d="M51.1801 51.14L51.1801 52C54.3486 54.0751 57.0549 56.7815 59.1301 59.95L59.9501 59.95C59.9501 57.6241 59.0261 55.3934 57.3814 53.7487C55.7367 52.104 53.506 51.18 51.1801 51.18L51.1801 51.14Z" fill="#26649D"/>
<path d="M59.9501 40.91L59.1301 40.91C57.0603 44.0965 54.3536 46.8203 51.1801 48.91L51.1801 49.73C52.3318 49.73 53.4722 49.5031 54.5362 49.0624C55.6002 48.6217 56.567 47.9757 57.3814 47.1613C58.1958 46.3469 58.8418 45.3801 59.2825 44.3161C59.7232 43.2521 59.9501 42.1117 59.9501 40.96L59.9501 40.91Z" fill="#26649D"/>
<path d="M70.1801 49.68L70.1801 48.86C68.5985 47.8269 67.1275 46.634 65.7901 45.3C64.4584 43.9605 63.2656 42.4896 62.2301 40.91L61.4101 40.91C61.4101 43.2359 62.334 45.4666 63.9787 47.1113C65.6234 48.756 67.8541 49.68 70.1801 49.68Z" fill="#26649D"/>
</g>
<g opacity="0.6">
<path d="M40.95 59.91L41.77 59.91C43.8597 56.7365 46.5835 54.0298 49.77 51.96L49.77 51.14C47.4441 51.14 45.2134 52.064 43.5687 53.7087C41.924 55.3534 41 57.5841 41 59.91L40.95 59.91Z" fill="#26649D"/>
<path d="M30.72 51.14L30.72 52C32.3015 53.033 33.7726 54.226 35.11 55.56C36.4417 56.8995 37.6344 58.3704 38.67 59.95L39.49 59.95C39.49 57.6241 38.566 55.3934 36.9213 53.7487C35.2766 52.104 33.0459 51.18 30.72 51.18L30.72 51.14Z" fill="#26649D"/>
<path d="M39.49 40.91L38.67 40.91C37.6344 42.4896 36.4417 43.9605 35.11 45.3C33.7726 46.634 32.3015 47.8269 30.72 48.86L30.72 49.68C33.0459 49.68 35.2766 48.756 36.9213 47.1113C38.566 45.4666 39.49 43.2359 39.49 40.91Z" fill="#26649D"/>
<path d="M49.72 49.68L49.72 48.86C46.5284 46.7757 43.8043 44.0516 41.72 40.86L40.9 40.86C40.9 43.1859 41.8239 45.4166 43.4686 47.0613C45.1133 48.706 47.344 49.63 49.67 49.63L49.72 49.68Z" fill="#26649D"/>
</g>
<g opacity="0.5">
<path d="M40.95 39.45L41.77 39.45C43.8617 36.2644 46.5844 33.5417 49.77 31.45L49.77 30.63C47.4441 30.63 45.2134 31.554 43.5687 33.1987C41.924 34.8434 41 37.0741 41 39.4L40.95 39.45Z" fill="#26649D"/>
<path d="M30.72 30.68L30.72 31.5C32.3016 32.5367 33.7726 33.7329 35.11 35.07C36.4412 36.4064 37.6339 37.8738 38.67 39.45L39.49 39.45C39.49 37.124 38.566 34.8934 36.9213 33.2487C35.2766 31.604 33.0459 30.68 30.72 30.68Z" fill="#26649D"/>
<path d="M39.49 20.46L38.67 20.46C37.6339 22.0362 36.4412 23.5037 35.11 24.84C33.7726 26.1741 32.3015 27.367 30.72 28.4L30.72 29.22C31.8712 29.2213 33.0114 28.9957 34.0754 28.5561C35.1393 28.1164 36.1062 27.4714 36.9207 26.6578C37.7352 25.8442 38.3814 24.8781 38.8222 23.8146C39.2631 22.7512 39.49 21.6112 39.49 20.46Z" fill="#26649D"/>
<path d="M49.72 29.22L49.72 28.41C48.1458 27.3674 46.6787 26.1715 45.34 24.84C44.0053 23.5041 42.8092 22.0367 41.77 20.46L40.95 20.46C40.95 21.6112 41.1769 22.7512 41.6177 23.8146C42.0586 24.8781 42.7047 25.8442 43.5192 26.6578C44.3337 27.4714 45.3006 28.1164 46.3646 28.5561C47.4286 28.9957 48.5687 29.2213 49.72 29.22Z" fill="#26649D"/>
</g>
<g opacity="0.2">
<path d="M20.4999 59.91L21.3099 59.91C23.3996 56.7365 26.1234 54.0298 29.3099 51.96L29.3099 51.14C28.1587 51.14 27.0188 51.3669 25.9553 51.8078C24.8919 52.2486 23.9257 52.8948 23.1122 53.7093C22.2986 54.5238 21.6535 55.4907 21.2139 56.5546C20.7742 57.6186 20.5486 58.7588 20.5499 59.91L20.4999 59.91Z" fill="#26649D"/>
<path d="M10.2699 51.14L10.2699 52C13.4384 54.0751 16.1447 56.7815 18.2199 59.95L18.9999 59.95C19.0012 58.7988 18.7756 57.6586 18.3359 56.5946C17.8963 55.5307 17.2512 54.5638 16.4377 53.7493C15.6241 52.9348 14.658 52.2886 13.5945 51.8478C12.531 51.4069 11.3911 51.18 10.2399 51.18L10.2699 51.14Z" fill="#26649D"/>
<path d="M18.9999 40.91L18.1899 40.91C16.1202 44.0965 13.4134 46.8203 10.2399 48.91L10.2399 49.73C11.3954 49.73 12.5394 49.5014 13.6061 49.0575C14.6729 48.6135 15.6413 47.9629 16.4555 47.1431C17.2697 46.3232 17.9137 45.3505 18.3504 44.2807C18.7871 43.211 19.0078 42.0654 18.9999 40.91Z" fill="#26649D"/>
<path d="M29.2599 49.68L29.2599 48.86C26.0683 46.7757 23.3442 44.0516 21.2599 40.86L20.4499 40.86C20.4486 42.0112 20.6742 43.1514 21.1138 44.2154C21.5535 45.2793 22.1985 46.2462 23.0121 47.0607C23.8257 47.8752 24.7918 48.5214 25.8553 48.9622C26.9187 49.4031 28.0587 49.63 29.2099 49.63L29.2599 49.68Z" fill="#26649D"/>
</g>
<g opacity="0.2">
<path d="M-6.14168e-05 59.91L0.819946 59.91C2.90379 56.7461 5.62516 54.0519 8.80994 52L8.80994 51.18C7.65824 51.1748 6.51679 51.3964 5.45074 51.8323C4.3847 52.2681 3.41495 52.9097 2.59686 53.7204C1.77878 54.531 1.12838 55.4949 0.6828 56.5569C0.237218 57.6189 0.00517907 58.7583 -6.14168e-05 59.91Z" fill="#26649D"/>
<path d="M8.80994 49.68L8.80994 48.86C5.63048 46.7776 2.92236 44.0524 0.85994 40.86L-6.10352e-05 40.86C-6.11368e-05 43.1859 0.923924 45.4166 2.56862 47.0613C4.21331 48.706 6.44399 49.63 8.76994 49.63L8.80994 49.68Z" fill="#26649D"/>
</g>
<g opacity="0.3">
<path d="M20.4999 39.45L21.3099 39.45C23.4016 36.2644 26.1244 33.5417 29.3099 31.45L29.3099 30.63C28.1587 30.63 27.0188 30.8569 25.9553 31.2978C24.8919 31.7386 23.9257 32.3848 23.1122 33.1993C22.2986 34.0138 21.6535 34.9807 21.2139 36.0446C20.7742 37.1086 20.5486 38.2488 20.5499 39.4L20.4999 39.45Z" fill="#26649D"/>
<path d="M10.2699 30.68L10.2699 31.5C13.4374 33.597 16.1428 36.3194 18.2199 39.5L18.9999 39.5C19.0012 38.3488 18.7756 37.2086 18.3359 36.1446C17.8963 35.0806 17.2512 34.1138 16.4377 33.2993C15.6241 32.4848 14.658 31.8386 13.5945 31.3978C12.531 30.9569 11.3911 30.73 10.2399 30.73L10.2699 30.68Z" fill="#26649D"/>
<path d="M19 20.46L18.19 20.46C16.1109 23.6225 13.4051 26.3249 10.24 28.4L10.24 29.22C11.3911 29.2227 12.5314 28.9979 13.5954 28.5586C14.6594 28.1193 15.6261 27.4741 16.4401 26.6602C17.2541 25.8462 17.8992 24.8794 18.3385 23.8154C18.7778 22.7514 19.0026 21.6111 19 20.46Z" fill="#26649D"/>
<path d="M29.2599 29.22L29.2599 28.41C27.6857 27.3674 26.2186 26.1715 24.8799 24.84C23.5452 23.5041 22.3491 22.0367 21.3099 20.46L20.4999 20.46C20.4972 21.6111 20.722 22.7514 21.1613 23.8154C21.6006 24.8794 22.2458 25.8462 23.0597 26.6602C23.8737 27.4741 24.8405 28.1193 25.9045 28.5586C26.9685 28.9979 28.1088 29.2227 29.2599 29.22Z" fill="#26649D"/>
</g>
<g opacity="0.2">
<path d="M-0.000107197 39.45L0.8199 39.45C2.88964 36.2635 5.59639 33.5397 8.7699 31.45L8.7699 30.63C7.61399 30.63 6.46947 30.8585 5.40218 31.3023C4.33488 31.7462 3.36585 32.3967 2.55083 33.2163C1.7358 34.036 1.09084 35.0087 0.653061 36.0785C0.215278 37.1483 -0.00669704 38.2941 -0.000107197 39.45Z" fill="#26649D"/>
<path d="M8.80994 29.22L8.80994 28.41C7.2325 27.3676 5.76202 26.1718 4.41994 24.84C3.08877 23.5037 1.89605 22.0362 0.85994 20.46L-6.10352e-05 20.46C-6.20392e-05 21.6112 0.226853 22.7512 0.667709 23.8146C1.10857 24.8781 1.75471 25.8442 2.56921 26.6578C3.38371 27.4714 4.3506 28.1164 5.41457 28.5561C6.47853 28.9957 7.61872 29.2213 8.76994 29.22L8.80994 29.22Z" fill="#26649D"/>
</g>
<g opacity="0.5">
<path d="M40.95 19L41.77 19C42.8067 17.4184 44.0029 15.9473 45.34 14.61C46.6763 13.2788 48.1438 12.0861 49.72 11.05L49.72 10.23C47.394 10.23 45.1633 11.154 43.5186 12.7987C41.874 14.4433 40.95 16.674 40.95 19Z" fill="#26649D"/>
<path d="M30.7199 10.23L30.7199 11.05C33.9175 13.1269 36.643 15.8524 38.7199 19.05L39.5399 19.05C39.5399 16.724 38.6159 14.4933 36.9712 12.8487C35.3266 11.204 33.0959 10.28 30.7699 10.28L30.7199 10.23Z" fill="#26649D"/>
</g>
<g opacity="0.3">
<path d="M20.5 19L21.31 19C22.3467 17.4184 23.543 15.9473 24.88 14.61C26.2164 13.2788 27.6838 12.0861 29.26 11.05L29.26 10.23C28.1088 10.23 26.9689 10.4569 25.9054 10.8978C24.8419 11.3386 23.8758 11.9848 23.0622 12.7993C22.2486 13.6138 21.6036 14.5806 21.1639 15.6446C20.7243 16.7086 20.4987 17.8488 20.5 19Z" fill="#26649D"/>
<path d="M10.27 10.23L10.27 11.05C11.8462 12.0861 13.3136 13.2788 14.65 14.61C15.987 15.9473 17.1833 17.4184 18.22 19L19 19C19.0013 17.8488 18.7757 16.7086 18.3361 15.6446C17.8964 14.5806 17.2514 13.6138 16.4378 12.7993C15.6242 11.9848 14.6581 11.3386 13.5946 10.8978C12.5311 10.4569 11.3912 10.23 10.24 10.23L10.27 10.23Z" fill="#26649D"/>
<path d="M19 0L18.19 -3.54308e-08C17.1508 1.57665 15.9547 3.04412 14.62 4.38C13.296 5.73048 11.8386 6.94334 10.27 8L10.27 8.82C12.5957 8.8193 14.8259 7.89486 16.47 6.25C17.2846 5.42766 17.9277 4.4517 18.362 3.3788C18.7963 2.30589 19.0132 1.1574 19 0V0Z" fill="#26649D"/>
<path d="M29.26 8.77L29.26 8C27.6834 6.96074 26.2159 5.76465 24.88 4.43C23.5427 3.07838 22.3465 1.59405 21.31 -3.47506e-07L20.5 -3.82912e-07C20.4974 1.15111 20.7222 2.29139 21.1615 3.35537C21.6009 4.41935 22.246 5.38606 23.06 6.2C23.8735 7.01534 24.8399 7.66206 25.9038 8.10308C26.9677 8.5441 28.1083 8.77074 29.26 8.77Z" fill="#26649D"/>
</g>
</g>
</g>
<defs>
<clipPath id="clip0_582_2709">
<path d="M144 -3.49691e-07C148.418 -1.56562e-07 152 3.58172 152 8L152 90.59L0.0399893 90.59L0.0399929 7.99999C0.0399931 3.58171 3.62172 -6.48582e-06 8.03999 -6.29269e-06L144 -3.49691e-07Z" fill="white"/>
</clipPath>
</defs>
</svg>
