<svg width="308" height="305" viewBox="0 0 308 305" fill="none" xmlns="http://www.w3.org/2000/svg">
<g clip-path="url(#clip0_584_4118)">
<path d="M308 304.302C308 304.689 307.689 305 307.301 305H0.698572C0.311147 305 0 304.689 0 304.302C0 303.915 0.311147 303.604 0.698572 303.604H307.301C307.689 303.604 308 303.915 308 304.302Z" fill="#3F3D56"/>
<path d="M212.825 270.331L216.347 284.989L205.781 287.921L203.432 272.09L212.825 270.331Z" fill="#FFB6B6"/>
<path d="M229.849 222.839L218.695 232.22L211.651 243.36L221.631 249.81L238.655 230.461L229.849 222.839Z" fill="#FFB6B6"/>
<path d="M226.327 126.095L235.719 157.756C235.719 157.756 277.399 194.109 273.29 201.731C269.18 209.353 241.59 230.461 241.59 230.461C241.59 230.461 243.637 237.211 237.624 234.422C231.61 231.634 225.153 224.011 225.153 224.011C225.153 224.011 225.153 218.148 228.088 219.321C231.023 220.493 244.525 204.663 244.525 204.663L215.173 177.691V267.877C215.173 267.877 222.218 274.029 215.173 274.525C208.129 275.022 201.671 276.194 201.671 276.194C201.671 276.194 193.453 273.263 196.388 270.331L187.583 222.252L181.125 163.62L185.821 133.131L226.327 126.095Z" fill="#2F2E41"/>
<path d="M207.542 283.23C207.542 283.23 208.129 280.885 210.477 280.885H217.648C217.648 280.885 219.869 290.853 219.282 290.853C218.695 290.853 228.675 303.752 218.108 304.338C207.542 304.924 204.606 303.752 204.606 303.752L203.432 299.123C203.432 299.123 201.671 296.13 202.258 293.784C202.845 291.439 207.542 283.23 207.542 283.23Z" fill="#2F2E41"/>
<path d="M222.218 245.119C222.218 245.119 228.96 245.013 227.35 246.825C225.74 248.637 222.805 251.569 222.805 251.569C222.805 251.569 215.822 265.641 212.562 263.002C209.303 260.364 204.019 231.047 205.781 227.529C207.542 224.011 209.89 224.011 209.89 224.011L220.72 230.517C220.72 230.517 213.999 246.878 222.218 245.119Z" fill="#2F2E41"/>
<path d="M205.781 76.2569L208.129 61.5988L192.279 55.1492L189.931 77.4296L205.781 76.2569Z" fill="#FFB6B6"/>
<path opacity="0.1" d="M205.781 76.2569L208.129 61.5988L192.279 55.1492L189.931 77.4296L205.781 76.2569Z" fill="black"/>
<path d="M189.05 74.2048L207.835 69.5142L227.794 75.9638C227.794 75.9638 236.6 100.589 233.665 109.384C230.73 118.179 230.73 135.358 230.73 135.358C230.73 135.358 230.436 127.854 213.412 133.131C196.388 138.408 184.06 137.821 184.06 137.821L183.473 116.713L176.099 97.9646C172.947 89.9509 176.344 80.8523 183.98 76.8571L189.05 74.2048Z" fill="#E6E6E6"/>
<path d="M275.282 143.276C277.933 146.447 278.443 150.384 276.422 152.069C274.401 153.754 270.614 152.548 267.963 149.374C266.886 148.121 266.126 146.629 265.745 145.022L254.684 131.442L260.072 127.086L271.391 140.317C272.906 140.979 274.24 141.993 275.282 143.276V143.276Z" fill="#FFB6B6"/>
<path d="M226.942 76.1511L223.092 91.3817L241.934 121.506L261.169 140.815L267.403 135.649L248.004 111.541L233.3 80.479L226.942 76.1511Z" fill="#E6E6E6"/>
<path d="M271.796 61.4503C285.214 60.4599 295.075 45.9128 293.821 28.9586C292.566 12.0043 280.672 -0.937015 267.253 0.053391C253.835 1.0438 243.975 15.5908 245.229 32.5451C246.484 49.4994 258.378 62.4407 271.796 61.4503Z" fill="#80DDEF"/>
<path d="M271.286 61.4504H270.112V178.386H271.286V61.4504Z" fill="#2F2E41"/>
<path d="M271.578 58.981L271.719 63.1245L273.594 66.9604L265.772 66.5619L269.06 63.2588L268.688 59.4938L271.578 58.981Z" fill="#6C63FF"/>
<path d="M201.775 66.311C210.702 66.311 217.938 59.0832 217.938 50.1673C217.938 41.2514 210.702 34.0237 201.775 34.0237C192.849 34.0237 185.612 41.2514 185.612 50.1673C185.612 59.0832 192.849 66.311 201.775 66.311Z" fill="#FFB6B6"/>
<path d="M200.485 28.4633C200.953 28.7359 201.579 28.3234 201.729 27.8036C201.879 27.2839 201.705 26.7321 201.531 26.2196L200.659 23.6397C200.041 21.81 199.384 19.9163 198.045 18.5237C196.023 16.4217 192.81 15.887 189.918 16.2744C186.203 16.7719 182.538 18.7808 180.811 22.1028C179.084 25.4248 179.819 30.0602 182.94 32.1328C178.492 37.2246 176.942 42.8992 177.187 49.6521C177.431 56.405 184.799 62.6198 189.604 67.377C190.677 66.7273 191.653 63.6827 191.063 62.5767C190.473 61.4707 191.318 60.1893 190.587 59.1705C189.856 58.1518 189.245 59.774 189.984 58.761C190.45 58.1217 188.63 56.6512 189.323 56.2686C192.675 54.4181 193.79 50.2454 195.895 47.05C198.434 43.1958 202.78 40.5857 207.379 40.1526C209.912 39.9141 212.588 40.3461 214.665 41.8151C216.741 43.2841 218.085 45.9092 217.604 48.4048C218.851 47.1401 219.472 45.2867 219.238 43.5271C219.003 41.7675 217.92 40.1403 216.385 39.2449C217.318 36.163 216.519 32.618 214.353 30.2332C212.188 27.8484 203.402 28.2546 200.241 28.8822" fill="#2F2E41"/>
<path d="M199.994 40.2461C195.807 40.6976 192.783 44.3206 190.23 47.6664C188.758 49.5948 187.217 51.7245 187.254 54.1489C187.291 56.6001 188.932 58.7025 189.716 61.0255C190.998 64.8224 189.749 69.3399 186.698 71.9415C189.713 72.5129 192.972 70.2551 193.492 67.2345C194.098 63.7182 191.429 60.3243 191.745 56.7703C192.024 53.6391 194.494 51.2293 196.595 48.8882C198.695 46.547 200.667 43.4404 199.701 40.4487" fill="#2F2E41"/>
<path d="M184.579 137.528H63.8446C50.1532 137.528 39.0541 148.613 39.0541 162.288V279.221C39.0541 292.896 50.1531 303.982 63.8445 303.982H184.579C198.271 303.982 209.37 292.896 209.37 279.221V162.288C209.37 148.613 198.271 137.528 184.579 137.528V137.528Z" fill="white"/>
<path d="M184.58 304.568H63.8446C49.8515 304.568 38.467 293.197 38.467 279.221V162.288C38.467 148.312 49.8515 136.941 63.8446 136.941H184.58C198.573 136.941 209.957 148.312 209.957 162.288V279.221C209.957 293.197 198.573 304.568 184.58 304.568ZM63.8446 138.114C50.4987 138.114 39.6411 148.959 39.6411 162.288V279.221C39.6411 292.551 50.4987 303.395 63.8446 303.395H184.58C197.925 303.395 208.783 292.551 208.783 279.221V162.288C208.783 148.959 197.925 138.114 184.58 138.114H63.8446Z" fill="#3F3D56"/>
<path d="M171.84 149.031C173.386 149.031 174.64 147.779 174.64 146.235C174.64 144.69 173.386 143.438 171.84 143.438C170.294 143.438 169.04 144.69 169.04 146.235C169.04 147.779 170.294 149.031 171.84 149.031Z" fill="#3F3D56"/>
<path d="M179.539 149.031C181.085 149.031 182.338 147.779 182.338 146.235C182.338 144.69 181.085 143.438 179.539 143.438C177.993 143.438 176.739 144.69 176.739 146.235C176.739 147.779 177.993 149.031 179.539 149.031Z" fill="#3F3D56"/>
<path d="M187.238 149.031C188.784 149.031 190.037 147.779 190.037 146.235C190.037 144.69 188.784 143.438 187.238 143.438C185.692 143.438 184.438 144.69 184.438 146.235C184.438 147.779 185.692 149.031 187.238 149.031Z" fill="#3F3D56"/>
<path d="M59.8866 263.044C59.0169 263.044 58.3093 263.751 58.3093 264.62C58.3093 265.043 58.4731 265.435 58.7704 265.724C59.0703 266.031 59.463 266.195 59.8866 266.195H186.157C187.027 266.195 187.734 265.489 187.734 264.62C187.734 264.196 187.571 263.804 187.273 263.515C186.973 263.209 186.581 263.044 186.157 263.044H59.8866Z" fill="#E6E6E6"/>
<path d="M127.404 262.519V266.72H59.8867C59.3083 266.72 58.7825 266.489 58.404 266.101C58.0149 265.723 57.7836 265.197 57.7836 264.62C57.7836 263.465 58.73 262.519 59.8867 262.519H127.404V262.519Z" fill="#26649D"/>
<path d="M183.528 254.642H162.497C160.178 254.642 158.291 252.758 158.291 250.441C158.291 248.124 160.178 246.24 162.497 246.24H183.528C185.847 246.24 187.734 248.124 187.734 250.441C187.734 252.758 185.847 254.642 183.528 254.642Z" fill="#E6E6E6"/>
<path d="M104.518 257.645L89.8166 208.307L88.6913 208.641L103.341 257.806" fill="#2F2E41"/>
<path d="M105.027 145.36C118.445 144.37 128.306 129.823 127.052 112.868C125.797 95.9139 113.903 82.9727 100.484 83.9631C87.0663 84.9535 77.2056 99.5005 78.4601 116.455C79.7145 133.409 91.609 146.35 105.027 145.36Z" fill="#26649D"/>
<path d="M104.517 145.36H103.343V262.296H104.517V145.36Z" fill="#2F2E41"/>
<path d="M90.4774 206.877L91.7955 210.809L94.6876 213.951L87.0768 215.797L89.2851 211.695L87.8539 208.192L90.4774 206.877Z" fill="#80DDEF"/>
<path d="M104.809 142.891L104.95 147.034L106.825 150.87L99.0029 150.472L102.291 147.168L101.919 143.403L104.809 142.891Z" fill="#26649D"/>
<path d="M90.8729 207.908C103.44 203.106 108.697 186.342 102.615 170.464C96.5339 154.585 81.4166 145.606 68.85 150.407C56.2833 155.208 51.0261 171.973 57.1075 187.851C63.189 203.73 78.3062 212.709 90.8729 207.908Z" fill="#80DDEF"/>
<path d="M197.543 131.526C201.503 132.72 204.096 135.729 203.335 138.246C202.573 140.763 198.747 141.834 194.785 140.639C193.197 140.184 191.74 139.355 190.538 138.221L173.823 132.95L175.927 126.354L192.664 131.191C194.294 130.912 195.967 131.027 197.543 131.526Z" fill="#FFB6B6"/>
<path d="M168.504 88.2766L186.115 75.3774L185.528 100.003L169.091 121.111L186.702 128.147L186.115 138.193C186.115 138.193 163.807 132.837 160.285 132.251C156.763 131.665 153.828 123.456 153.828 123.456L168.504 88.2766Z" fill="#E6E6E6"/>
</g>
<defs>
<clipPath id="clip0_584_4118">
<rect width="308" height="305" fill="white"/>
</clipPath>
</defs>
</svg>
