<svg width="346" height="297" viewBox="0 0 346 297" fill="none" xmlns="http://www.w3.org/2000/svg">
<g clip-path="url(#clip0_582_2978)">
<path d="M110.511 41.0102C107.73 26.1637 112.109 9.27323 124.279 0.286621C123.59 16.6967 128.742 32.8213 138.825 45.8074C142.731 50.8015 147.598 55.9505 147.447 62.283C147.353 66.2233 145.216 69.894 142.401 72.6594C139.585 75.4249 136.116 77.4186 132.689 79.3814L132.156 80.2091C122.11 68.9075 113.292 55.8567 110.511 41.0102Z" fill="#F0F0F0"/>
<path d="M124.501 0.513569C119.388 11.9274 118.01 24.6579 120.564 36.897C121.067 39.5416 121.985 42.0905 123.284 44.45C124.623 46.7077 126.545 48.5664 128.848 49.8331C130.972 51.0571 133.287 52.0638 135.075 53.7815C135.978 54.6743 136.681 55.7472 137.138 56.93C137.596 58.1128 137.798 59.3787 137.73 60.6447C137.645 63.8036 136.426 66.7433 135.134 69.5768C133.7 72.7229 132.16 75.968 132.253 79.5051C132.265 79.9337 131.597 79.926 131.586 79.4981C131.424 73.3442 135.885 68.402 136.879 62.497C137.343 59.7417 136.977 56.8303 135.034 54.6945C133.336 52.8269 130.95 51.7867 128.789 50.5658C126.523 49.3631 124.588 47.6254 123.151 45.5046C121.736 43.2186 120.722 40.7092 120.151 38.0837C118.771 32.1934 118.329 26.1233 118.839 20.0959C119.384 13.2136 121.105 6.475 123.928 0.171586C124.103 -0.218483 124.675 0.126042 124.501 0.513561L124.501 0.513569Z" fill="white"/>
<path d="M119.509 33.0044C117.392 33.153 115.291 32.5462 113.581 31.2924C111.871 30.0386 110.664 28.2194 110.175 26.1598C110.077 25.7427 110.723 25.5719 110.82 25.9895C111.272 27.9084 112.397 29.6028 113.992 30.7671C115.586 31.9314 117.546 32.4888 119.516 32.3388C119.945 32.3067 119.935 32.9725 119.509 33.0044Z" fill="white"/>
<path d="M127.689 49.3538C130.563 46.1125 132.107 41.9098 132.012 37.5839C132.002 37.1553 132.669 37.1628 132.679 37.5909C132.769 42.0927 131.154 46.4629 128.156 49.8294C127.87 50.1501 127.405 49.6728 127.689 49.3538Z" fill="white"/>
<path d="M120.166 13.627C120.997 13.7398 121.843 13.6449 122.629 13.3508C123.414 13.0568 124.114 12.5728 124.665 11.9423C124.947 11.6182 125.412 12.0959 125.132 12.4179C124.52 13.1116 123.746 13.6452 122.879 13.972C122.012 14.2988 121.078 14.4089 120.159 14.2927C120.071 14.289 119.989 14.2521 119.927 14.1897C119.866 14.1272 119.831 14.0438 119.829 13.9564C119.83 13.8682 119.866 13.7842 119.93 13.7225C119.993 13.6609 120.078 13.6266 120.166 13.627Z" fill="white"/>
<path d="M174.051 12.5669C173.881 12.7742 173.711 12.9816 173.542 13.1945C171.269 15.9944 169.227 18.974 167.438 22.1037C167.296 22.3435 167.155 22.5886 167.02 22.832C162.789 30.418 160.007 38.7215 158.816 47.3204C158.345 50.7425 158.136 54.1954 158.19 57.6492C158.265 62.4191 158.727 67.5848 157.261 71.9717C157.113 72.4311 156.937 72.881 156.734 73.3186L133.21 80.7939C133.148 80.7841 133.087 80.7797 133.025 80.77L132.099 81.1113C132.084 80.9334 132.072 80.7485 132.057 80.5706C132.047 80.4674 132.043 80.3626 132.034 80.2594C132.029 80.1901 132.025 80.1206 132.017 80.0584C132.015 80.0353 132.014 80.0122 132.014 79.9944C132.006 79.9321 132.005 79.8734 131.999 79.8165C131.929 78.7833 131.864 77.7484 131.811 76.71C131.809 76.7047 131.809 76.7047 131.812 76.6977C131.409 68.7892 131.663 60.7777 133.129 53.0595C133.173 52.8273 133.215 52.5898 133.27 52.3542C133.95 48.8788 134.914 45.4647 136.152 42.1459C136.835 40.3308 137.611 38.5514 138.475 36.8145C140.716 32.3309 143.65 28.2268 147.17 24.6526C154.188 17.5286 163.412 12.7224 173.296 12.571C173.549 12.5673 173.797 12.5652 174.051 12.5669Z" fill="#F0F0F0"/>
<path d="M174.094 12.8815C163.121 18.9243 154.336 28.2617 148.987 39.5676C147.792 41.9811 146.986 44.5674 146.599 47.2312C146.306 49.8382 146.718 52.476 147.792 54.8705C148.749 57.1233 149.99 59.317 150.381 61.7625C150.563 63.0173 150.476 64.2962 150.127 65.5153C149.779 66.7345 149.176 67.8663 148.358 68.8367C146.382 71.3074 143.635 72.9229 140.893 74.4096C137.849 76.0603 134.66 77.7267 132.599 80.6067C132.35 80.9557 131.821 80.5489 132.071 80.2004C135.656 75.1897 142.201 73.9222 146.56 69.8043C148.593 67.8829 150.059 65.3385 149.797 62.4669C149.568 59.9558 148.291 57.6925 147.302 55.42C146.22 53.0994 145.723 50.5497 145.857 47.9937C146.107 45.3188 146.811 42.7058 147.94 40.2668C150.395 34.7352 153.706 29.6228 157.752 25.117C162.341 19.9491 167.784 15.6022 173.843 12.2645C174.218 12.0581 174.466 12.6764 174.094 12.8815Z" fill="white"/>
<path d="M150.494 35.8261C148.714 34.6735 147.403 32.9274 146.795 30.8995C146.186 28.8716 146.32 26.6941 147.173 24.7558C147.347 24.3642 147.965 24.6153 147.791 25.0075C146.994 26.8109 146.869 28.8393 147.44 30.7265C148.01 32.6137 149.238 34.2354 150.902 35.2988C151.263 35.5303 150.854 36.0563 150.494 35.8261Z" fill="white"/>
<path d="M147.156 53.7921C151.407 52.9298 155.177 50.501 157.712 46.9901C157.963 46.642 158.492 47.0487 158.241 47.3964C155.596 51.0451 151.668 53.5646 147.242 54.4522C146.82 54.5366 146.736 53.876 147.156 53.7921V53.7921Z" fill="white"/>
<path d="M162.716 20.7486C163.312 21.3377 164.045 21.7701 164.849 22.0068C165.654 22.2436 166.505 22.2774 167.325 22.1051C167.746 22.0155 167.829 22.6762 167.411 22.7652C166.503 22.9513 165.564 22.9129 164.674 22.6533C163.785 22.3936 162.973 21.9207 162.309 21.2759C162.241 21.2203 162.197 21.1411 162.186 21.0544C162.175 20.9677 162.197 20.88 162.248 20.8091C162.302 20.7395 162.382 20.6942 162.47 20.6828C162.557 20.6715 162.646 20.6951 162.716 20.7486V20.7486Z" fill="white"/>
<path d="M244.792 112.546C244.854 112.818 244.894 113.095 244.913 113.373L266.639 125.874L271.92 122.842L277.55 130.193L268.724 136.467C268.011 136.974 267.153 137.236 266.277 137.215C265.402 137.194 264.557 136.89 263.87 136.349L241.466 118.721C240.455 119.094 239.354 119.151 238.309 118.885C237.264 118.619 236.326 118.042 235.618 117.231C234.91 116.42 234.467 115.413 234.347 114.345C234.227 113.276 234.435 112.196 234.946 111.249C235.456 110.302 236.243 109.532 237.203 109.042C238.162 108.552 239.249 108.365 240.318 108.505C241.387 108.646 242.387 109.108 243.186 109.83C243.986 110.552 244.545 111.499 244.792 112.546Z" fill="#FFB6B6"/>
<path d="M266.941 124.494C267.01 124.175 267.147 123.875 267.343 123.614C267.539 123.352 267.789 123.136 268.076 122.98L278.107 117.529C279.443 116.524 281.124 116.088 282.782 116.317C284.439 116.545 285.939 117.421 286.95 118.75C287.962 120.08 288.404 121.756 288.178 123.41C287.953 125.064 287.079 126.561 285.749 127.573L277.709 135.719C277.48 135.952 277.203 136.132 276.897 136.248C276.592 136.364 276.264 136.413 275.938 136.392C275.612 136.37 275.294 136.279 275.006 136.124C274.718 135.969 274.467 135.754 274.27 135.493L267.349 126.34C267.151 126.08 267.013 125.78 266.943 125.462C266.872 125.143 266.872 124.813 266.941 124.494Z" fill="#3F3D56"/>
<path d="M284.408 93.2467C285.851 88.6593 289.133 84.4519 293.672 82.9011C298.211 81.3503 304.858 83.7126 308.27 87.1046C314.512 93.3091 314.704 100.904 310.416 107.64C309.563 107.595 306.619 107.562 305.756 107.53L304.535 103.47V107.49C297.796 107.282 290.781 107.412 283.761 107.546C283.132 102.777 282.965 97.8341 284.408 93.2467Z" fill="#2F2E41"/>
<path d="M282.93 285.36H276.784L273.86 261.716L282.932 261.716L282.93 285.36Z" fill="#FFB6B6"/>
<path d="M320.81 285.36H314.664L311.74 261.716L320.811 261.716L320.81 285.36Z" fill="#FFB6B6"/>
<path d="M302.864 140.139L304.256 143.75L303.978 147.362L276.722 156.777L278.074 140.972L281.138 137.361L302.864 140.139Z" fill="#FFB6B6"/>
<path d="M294.246 107.64C299.622 107.64 303.98 103.294 303.98 97.9314C303.98 92.5693 299.622 88.2224 294.246 88.2224C288.87 88.2224 284.511 92.5693 284.511 97.9314C284.511 103.294 288.87 107.64 294.246 107.64Z" fill="#FFB7B7"/>
<path d="M308.966 156.71V162.88C308.966 162.88 316.208 172.266 312.308 179.489L323.481 275.61H311.783L292.254 194.49L283.93 273.943H273.903L272.708 210.752C272.393 194.131 275.176 177.596 280.913 161.988V161.988L308.966 156.71Z" fill="#2F2E41"/>
<path d="M287.557 85.2886C289.427 84.1513 291.57 83.5361 293.76 83.5073C295.951 83.4785 298.109 84.0371 300.009 85.1249C301.908 86.2126 303.48 87.7894 304.56 89.6905C305.64 91.5915 306.188 93.747 306.146 95.9314C300.705 96.181 294.989 96.246 289.193 96.2572L287.823 92.9136L287.015 96.2597C285.249 96.2595 283.48 96.2572 281.707 96.2527C281.635 94.0744 282.137 91.9153 283.164 89.9913C284.19 88.0672 285.705 86.4456 287.557 85.2886Z" fill="#2F2E41"/>
<path d="M285.68 297H281.319L280.54 292.893L278.546 297H266.979C266.425 297 265.885 296.823 265.438 296.496C264.992 296.168 264.662 295.706 264.497 295.178C264.332 294.651 264.34 294.084 264.521 293.561C264.702 293.038 265.045 292.587 265.502 292.273L274.739 285.91V281.758L284.455 282.337L285.68 297Z" fill="#2F2E41"/>
<path d="M324.117 297H319.756L318.977 292.893L316.983 297H305.416C304.862 297 304.322 296.823 303.875 296.496C303.429 296.168 303.099 295.706 302.934 295.178C302.769 294.651 302.777 294.084 302.958 293.561C303.139 293.038 303.482 292.587 303.939 292.273L313.176 285.91V281.758L322.892 282.337L324.117 297Z" fill="#2F2E41"/>
<path d="M313.395 176.5C313.936 169.084 313.379 161.629 311.74 154.376C309.673 145.221 307.045 133.573 306.995 133.272C306.994 133.266 306.993 133.26 306.993 133.254L306.192 116.191C306.19 116.142 306.169 116.095 306.134 116.06C306.098 116.025 306.051 116.005 306.001 116.003L300.462 115.818C300.411 115.816 300.363 115.794 300.327 115.758C300.291 115.721 300.271 115.672 300.271 115.62C300.271 115.209 300.19 114.801 300.032 114.421C299.874 114.041 299.643 113.695 299.351 113.404C299.059 113.113 298.713 112.883 298.332 112.725C297.95 112.568 297.542 112.487 297.129 112.487H286.066C285.35 112.487 284.658 112.748 284.121 113.221C283.584 113.694 283.238 114.346 283.149 115.055C283.144 115.104 283.121 115.149 283.084 115.182C283.047 115.214 282.999 115.232 282.95 115.23L278.645 115.086C278.602 115.085 278.56 115.097 278.524 115.122C278.489 115.147 278.463 115.183 278.45 115.224L278.151 116.173C273.805 130.13 272.598 144.872 274.617 159.348C275.138 163.2 274.902 168.992 274.704 172.219C274.685 172.534 274.728 172.85 274.831 173.149C274.935 173.448 275.096 173.723 275.307 173.96C275.517 174.196 275.772 174.389 276.057 174.526C276.343 174.664 276.652 174.744 276.969 174.762C284.972 175.221 307.631 186.156 313.055 180.936C313.068 180.923 313.213 178.997 313.395 176.5Z" fill="#3F3D56"/>
<path d="M269.014 112.546C269.076 112.818 269.116 113.095 269.135 113.373L290.862 125.874L296.143 122.842L301.773 130.193L292.947 136.467C292.234 136.974 291.375 137.236 290.5 137.215C289.624 137.194 288.78 136.89 288.092 136.349L265.688 118.721C264.677 119.094 263.576 119.151 262.531 118.885C261.487 118.619 260.548 118.042 259.84 117.231C259.132 116.42 258.689 115.413 258.569 114.345C258.449 113.276 258.658 112.196 259.168 111.249C259.678 110.302 260.465 109.532 261.425 109.042C262.385 108.552 263.471 108.365 264.54 108.505C265.609 108.646 266.609 109.108 267.409 109.83C268.208 110.552 268.768 111.499 269.014 112.546Z" fill="#FFB6B6"/>
<path d="M291.163 124.494C291.232 124.175 291.369 123.875 291.565 123.614C291.761 123.352 292.011 123.136 292.298 122.98L302.329 117.529C303.665 116.524 305.346 116.088 307.004 116.317C308.661 116.547 310.16 117.422 311.171 118.751C312.183 120.081 312.625 121.756 312.4 123.41C312.175 125.063 311.301 126.561 309.971 127.573L301.932 135.719C301.702 135.951 301.425 136.132 301.12 136.248C300.814 136.364 300.487 136.413 300.16 136.392C299.834 136.37 299.516 136.279 299.228 136.124C298.941 135.969 298.69 135.754 298.493 135.493L291.571 126.34C291.374 126.08 291.235 125.78 291.165 125.461C291.095 125.143 291.094 124.813 291.163 124.494Z" fill="#3F3D56"/>
<path d="M25.3481 263.317C39.3475 263.317 50.6962 251.998 50.6962 238.036C50.6962 224.073 39.3475 212.754 25.3481 212.754C11.3487 212.754 0 224.073 0 238.036C0 251.998 11.3487 263.317 25.3481 263.317Z" fill="#F0F0F0"/>
<path d="M249.342 150.306L65.6484 234.422C63.0337 235.615 60.051 235.726 57.3546 234.729C54.6583 233.732 52.4685 231.709 51.2657 229.104L5.93457 130.629C4.7377 128.021 4.62687 125.046 5.62638 122.357C6.62589 119.668 8.65414 117.484 11.2661 116.284L194.96 32.1689C197.575 30.9752 200.557 30.8647 203.254 31.8615C205.95 32.8584 208.14 34.8813 209.343 37.4864L254.674 135.961C255.871 138.569 255.982 141.544 254.982 144.233C253.983 146.923 251.954 149.107 249.342 150.306Z" fill="white"/>
<path d="M14.3215 122.922C13.473 123.311 12.8141 124.021 12.4894 124.895C12.1646 125.768 12.2007 126.735 12.5895 127.582L57.9207 226.057C58.3114 226.903 59.0228 227.56 59.8987 227.884C60.7747 228.208 61.7436 228.172 62.5931 227.784L246.287 143.669C247.135 143.279 247.794 142.57 248.119 141.696C248.444 140.822 248.408 139.856 248.019 139.009L202.688 40.5337C202.297 39.6874 201.586 39.0303 200.71 38.7064C199.834 38.3826 198.865 38.4185 198.015 38.8063L14.3215 122.922Z" fill="#E4E4E4"/>
<path d="M249.342 150.306L65.6484 234.422C63.0337 235.615 60.051 235.726 57.3546 234.729C54.6583 233.732 52.4685 231.709 51.2657 229.104L5.93457 130.629C4.7377 128.021 4.62687 125.046 5.62638 122.357C6.62589 119.668 8.65414 117.484 11.2661 116.284L194.96 32.1689C197.575 30.9752 200.557 30.8647 203.254 31.8615C205.95 32.8584 208.14 34.8813 209.343 37.4864L254.674 135.961C255.871 138.569 255.982 141.544 254.982 144.233C253.983 146.923 251.954 149.107 249.342 150.306ZM11.7361 117.305C9.39542 118.38 7.57785 120.338 6.68216 122.748C5.78646 125.158 5.88581 127.823 6.95839 130.16L52.2895 228.635C53.3674 230.97 55.3297 232.783 57.746 233.676C60.1623 234.569 62.8352 234.47 65.1784 233.401L248.872 149.285C251.213 148.21 253.031 146.253 253.926 143.843C254.822 141.433 254.723 138.767 253.65 136.43L208.319 37.9553C207.241 35.6207 205.279 33.8079 202.862 32.9146C200.446 32.0212 197.773 32.1203 195.43 33.1901L11.7361 117.305Z" fill="#CACACA"/>
<path d="M203.442 105.62L57.508 172.444C56.3326 172.981 55.0199 173.142 53.7492 172.906C52.4785 172.671 51.3116 172.05 50.4078 171.128L7.71055 127.458C7.0103 126.741 6.49268 125.868 6.20119 124.911C5.90971 123.953 5.8529 122.94 6.03551 121.957C6.21813 120.973 6.63486 120.048 7.25064 119.258C7.86643 118.468 8.66328 117.837 9.57424 117.419L196.597 31.4316C197.496 31.0185 198.481 30.8237 199.47 30.8632C200.459 30.9026 201.424 31.1752 202.288 31.6587C203.151 32.1421 203.887 32.8226 204.435 33.6444C204.984 34.4662 205.329 35.406 205.444 36.3866L205.469 36.386L207.091 99.7813C207.123 101.004 206.795 102.209 206.146 103.247C205.497 104.285 204.557 105.11 203.442 105.62ZM197.075 32.4491L10.0457 118.439C9.29853 118.783 8.64495 119.3 8.13988 119.948C7.63481 120.595 7.29303 121.354 7.14324 122.161C6.99345 122.968 7.04005 123.799 7.27911 124.584C7.51817 125.369 7.94272 126.085 8.51705 126.673L51.2142 170.344C51.9555 171.1 52.9126 171.609 53.9549 171.802C54.9972 171.995 56.0739 171.863 57.0379 171.423L202.972 104.599C203.886 104.181 204.657 103.504 205.19 102.653C205.722 101.801 205.991 100.813 205.965 99.8099L204.357 36.9764L204.582 36.9708L204.357 36.9764C204.335 36.1285 204.103 35.2992 203.681 34.5629C203.258 33.8266 202.66 33.2064 201.938 32.7577C201.216 32.309 200.394 32.0459 199.546 31.992C198.697 31.9382 197.848 32.0952 197.075 32.4491Z" fill="#CACACA"/>
<path d="M111.928 196.022L66.4612 216.842C66.1313 216.993 65.7747 217.078 65.4117 217.092C65.0488 217.106 64.6867 217.049 64.3461 216.923C64.0054 216.797 63.693 216.606 63.4266 216.36C63.1602 216.113 62.9451 215.817 62.7936 215.488C62.6421 215.159 62.5571 214.803 62.5434 214.441C62.5298 214.079 62.5879 213.718 62.7143 213.378C62.8407 213.039 63.033 212.727 63.2801 212.462C63.5273 212.196 63.8245 211.982 64.1547 211.831L109.622 191.011C110.288 190.707 111.048 190.679 111.734 190.933C112.421 191.188 112.979 191.704 113.284 192.368C113.59 193.032 113.619 193.79 113.365 194.475C113.11 195.16 112.594 195.717 111.928 196.022Z" fill="white"/>
<path d="M145.191 131.676C145.971 133.367 146.41 135.195 146.482 137.055C146.553 138.916 146.257 140.772 145.609 142.518C144.961 144.264 143.974 145.866 142.705 147.231C141.436 148.597 139.91 149.7 138.213 150.476C136.517 151.253 134.683 151.689 132.818 151.759C130.952 151.828 129.092 151.531 127.341 150.883C125.591 150.235 123.987 149.249 122.619 147.982C121.251 146.715 120.147 145.192 119.369 143.499" fill="#CACACA"/>
<path d="M247.704 284.249H45.575C42.6994 284.246 39.9424 283.105 37.909 281.077C35.8756 279.049 34.7319 276.299 34.7286 273.431V165.073C34.7319 162.205 35.8757 159.455 37.9091 157.427C39.9425 155.399 42.6994 154.258 45.575 154.255H247.704C250.58 154.258 253.337 155.399 255.37 157.427C257.404 159.455 258.547 162.205 258.551 165.073V273.431C258.547 276.299 257.404 279.049 255.37 281.077C253.337 283.105 250.58 284.246 247.704 284.249Z" fill="white"/>
<path d="M45.575 161.559C44.6408 161.56 43.7452 161.93 43.0846 162.589C42.424 163.248 42.0524 164.141 42.0514 165.073V273.431C42.0524 274.363 42.424 275.256 43.0846 275.915C43.7452 276.574 44.6408 276.944 45.575 276.945H247.704C248.638 276.944 249.534 276.574 250.195 275.915C250.855 275.256 251.227 274.363 251.228 273.431V165.073C251.227 164.141 250.855 163.248 250.195 162.589C249.534 161.93 248.638 161.56 247.704 161.559H45.575Z" fill="#147BDA"/>
<path d="M247.704 284.249H45.575C42.6994 284.246 39.9424 283.105 37.909 281.077C35.8756 279.049 34.7319 276.299 34.7286 273.431V165.073C34.7319 162.205 35.8757 159.455 37.9091 157.427C39.9425 155.399 42.6994 154.258 45.575 154.255H247.704C250.58 154.258 253.337 155.399 255.37 157.427C257.404 159.455 258.547 162.205 258.551 165.073V273.431C258.547 276.299 257.404 279.049 255.37 281.077C253.337 283.105 250.58 284.246 247.704 284.249ZM45.575 155.379C42.9981 155.382 40.5275 156.404 38.7053 158.221C36.8831 160.039 35.8581 162.503 35.8552 165.073V273.431C35.8581 276.001 36.8831 278.465 38.7053 280.283C40.5275 282.1 42.9981 283.122 45.575 283.125H247.704C250.281 283.122 252.752 282.1 254.574 280.283C256.396 278.465 257.421 276.001 257.424 273.431V165.073C257.421 162.503 256.396 160.039 254.574 158.221C252.752 156.404 250.281 155.382 247.704 155.379H45.575Z" fill="#3F3D56"/>
<path d="M224.684 224.537H64.1049C62.8124 224.535 61.5519 224.135 60.4956 223.392C59.4393 222.649 58.6386 221.6 58.2028 220.386L37.6694 162.93C37.3326 161.987 37.2276 160.978 37.3631 159.987C37.4987 158.996 37.8708 158.052 38.4483 157.234C39.0258 156.416 39.7917 155.748 40.6817 155.287C41.5717 154.825 42.5597 154.584 43.5627 154.582L249.5 154.266C250.49 154.265 251.466 154.498 252.349 154.945C253.231 155.393 253.995 156.042 254.577 156.841C255.159 157.639 255.543 158.564 255.698 159.539C255.853 160.514 255.774 161.512 255.467 162.451L255.49 162.461L230.444 220.749C229.961 221.874 229.158 222.833 228.134 223.506C227.11 224.179 225.911 224.538 224.684 224.537ZM249.509 155.39L43.5643 155.706C42.7416 155.707 41.9312 155.905 41.2013 156.283C40.4713 156.662 39.8431 157.21 39.3695 157.88C38.8958 158.551 38.5906 159.326 38.4794 160.139C38.3682 160.952 38.4544 161.779 38.7305 162.552L59.2639 220.008C59.6213 221.004 60.278 221.865 61.1444 222.474C62.0108 223.084 63.0447 223.412 64.1049 223.413H224.684C225.69 223.414 226.674 223.12 227.514 222.568C228.354 222.015 229.012 221.229 229.408 220.307L254.233 162.535L254.44 162.623L254.233 162.535C254.568 161.755 254.703 160.905 254.628 160.06C254.552 159.215 254.268 158.402 253.799 157.694C253.331 156.986 252.694 156.405 251.945 156.003C251.197 155.601 250.36 155.39 249.509 155.39Z" fill="#3F3D56"/>
<path d="M103.698 268.611H53.6681C52.935 268.611 52.232 268.32 51.7136 267.803C51.1953 267.286 50.9041 266.585 50.9041 265.854C50.9041 265.123 51.1953 264.422 51.7136 263.905C52.232 263.388 52.935 263.097 53.6681 263.097H103.698C104.431 263.097 105.134 263.388 105.652 263.905C106.171 264.422 106.462 265.123 106.462 265.854C106.462 266.585 106.171 267.286 105.652 267.803C105.134 268.32 104.431 268.611 103.698 268.611Z" fill="white"/>
<path d="M160.846 223.975C160.846 227.733 159.349 231.337 156.685 233.994C154.021 236.651 150.407 238.144 146.64 238.144C142.872 238.144 139.258 236.651 136.594 233.994C133.93 231.337 132.433 227.733 132.433 223.975" fill="#3F3D56"/>
<path d="M70.9746 61.066C73.7745 61.066 76.0443 58.8023 76.0443 56.0098C76.0443 53.2173 73.7745 50.9535 70.9746 50.9535C68.1748 50.9535 65.905 53.2173 65.905 56.0098C65.905 58.8023 68.1748 61.066 70.9746 61.066Z" fill="#F0F0F0"/>
<path d="M5.06962 182.417C7.86949 182.417 10.1392 180.153 10.1392 177.36C10.1392 174.568 7.86949 172.304 5.06962 172.304C2.26975 172.304 0 174.568 0 177.36C0 180.153 2.26975 182.417 5.06962 182.417Z" fill="#F0F0F0"/>
<path d="M258.551 87.4709C261.351 87.4709 263.62 85.2072 263.62 82.4147C263.62 79.6222 261.351 77.3584 258.551 77.3584C255.751 77.3584 253.481 79.6222 253.481 82.4147C253.481 85.2072 255.751 87.4709 258.551 87.4709Z" fill="#F0F0F0"/>
<path d="M345.329 297H248.841C248.663 297 248.492 296.93 248.367 296.804C248.241 296.679 248.17 296.508 248.17 296.331C248.17 296.154 248.241 295.983 248.367 295.858C248.492 295.733 248.663 295.662 248.841 295.662H345.329C345.507 295.663 345.677 295.733 345.802 295.859C345.928 295.984 345.998 296.154 345.998 296.331C345.998 296.508 345.928 296.678 345.802 296.803C345.677 296.929 345.507 296.999 345.329 297Z" fill="#CACACA"/>
</g>
<defs>
<clipPath id="clip0_582_2978">
<rect width="346" height="297" fill="white"/>
</clipPath>
</defs>
</svg>
